<?xml version="1.0" encoding="utf-8"?>
<!-- Generator: Adobe Illustrator 26.0.3, SVG Export Plug-In . SVG Version: 6.00 Build 0)  -->
<svg version="1.1" id="Layer_2" xmlns="http://www.w3.org/2000/svg" xmlns:xlink="http://www.w3.org/1999/xlink" x="0px" y="0px"
	 viewBox="0 0 33.6 28" style="enable-background:new 0 0 33.6 28;" xml:space="preserve">
<style type="text/css">
	.st0{opacity:0.75;}
	.st1{clip-path:url(#SVGID_00000150822392144317018160000000696162629422269863_);}
	.st2{clip-path:url(#SVGID_00000060714459201650101570000002842948263079350914_);}
	.st3{fill:#FFD1AB;}
	.st4{fill:none;stroke:#FFFFFF;stroke-width:0.5;stroke-miterlimit:10;}
	.st5{clip-path:url(#SVGID_00000078736374163644439740000010986339948333388989_);}
	.st6{fill:url(#Rectangle_492_00000024691663198245856120000011767589578279438517_);}
	.st7{clip-path:url(#SVGID_00000033330610634806589850000003566536316666895276_);}
	.st8{fill:url(#Rectangle_494_00000078759889566779908530000001149809985359297471_);}
	.st9{clip-path:url(#SVGID_00000079450746458210538330000005248115708529991081_);}
	.st10{clip-path:url(#SVGID_00000064349574088579757700000003440656633541945489_);}
	.st11{fill:#D0C1F8;}
</style>
<g>
	<g id="Group_756" transform="translate(73.059 182.853)" class="st0">
		<g id="Group_755">
			<g>
				<g>
					<defs>
						<rect id="SVGID_1_" x="-72.8" y="-170.4" width="12.6" height="15.5"/>
					</defs>
					<clipPath id="SVGID_00000150823249635124165670000013347830768820336777_">
						<use xlink:href="#SVGID_1_"  style="overflow:visible;"/>
					</clipPath>
					<g id="Group_754" style="clip-path:url(#SVGID_00000150823249635124165670000013347830768820336777_);">
						<g id="Group_753" transform="translate(0 0)">
							<g>
								<g>
									<defs>
										<rect id="SVGID_00000016053151419627033710000008263496451392080552_" x="-72.8" y="-170.4" width="12.6" height="15.5"/>
									</defs>
									<clipPath id="SVGID_00000023267151674665782640000016574909619765382314_">
										<use xlink:href="#SVGID_00000016053151419627033710000008263496451392080552_"  style="overflow:visible;"/>
									</clipPath>
									<g id="Group_752" style="clip-path:url(#SVGID_00000023267151674665782640000016574909619765382314_);">
										
											<image style="overflow:visible;enable-background:new    ;" width="270" height="324" id="Rectangle_487" xlink:href="E7F688B.png"  transform="matrix(4.394607e-02 0 0 4.394607e-02 -72.783 -170.2363)">
										</image>
									</g>
								</g>
							</g>
						</g>
					</g>
				</g>
			</g>
		</g>
	</g>
	<path id="Path_565" class="st3" d="M6.2,12.6c-3.2,0-5.8,2.6-5.8,5.8c0,2.4,1.7,4.3,3.5,6.4c0.6,0.7,1.2,1.3,1.7,2
		c0.2,0.3,0.7,0.4,1,0.1c0.1,0,0.1-0.1,0.1-0.1c0.5-0.7,1.1-1.4,1.7-2c1.8-2.1,3.5-4.1,3.5-6.4C12.1,15.2,9.4,12.6,6.2,12.6
		 M6.2,20.6c-1.2,0-2.2-1-2.2-2.2s1-2.2,2.2-2.2s2.2,1,2.2,2.2S7.4,20.6,6.2,20.6L6.2,20.6"/>
	<path id="Path_566" class="st4" d="M6.2,12.6c-3.2,0-5.8,2.6-5.8,5.8c0,2.4,1.7,4.3,3.5,6.4c0.6,0.7,1.2,1.3,1.7,2
		c0.2,0.3,0.7,0.4,1,0.1c0.1,0,0.1-0.1,0.1-0.1c0.5-0.7,1.1-1.4,1.7-2c1.8-2.1,3.5-4.1,3.5-6.4C12.1,15.2,9.4,12.6,6.2,12.6z
		 M6.2,20.6c-1.2,0-2.2-1-2.2-2.2s1-2.2,2.2-2.2s2.2,1,2.2,2.2C8.4,19.6,7.4,20.6,6.2,20.6L6.2,20.6z"/>
	<path id="Path_567" d="M11.9,15.9l-0.7-0.2L5.9,27.3h0.4L11.9,15.9z"/>
	<path id="Path_568" d="M18.1,20.1l0,0.8h-0.2l0-0.8H18.1z"/>
	<path id="Path_569" d="M18,22.1l0,1.2h-0.1l0-1.2H18z"/>
	<g id="Group_762" transform="translate(131.229 59.741)">
		<g>
			<g>
				<defs>
					<path id="SVGID_00000055698915569358079710000017812136721368364989_" d="M-125.1-32.2L-125.1-32.2h1h3.1l0,0
						c1.3-2.6,3.3-4.1,6-4.4l-0.8,4.4l1-4.5l0,0l0.6-3.2c-1.4,0.1-2.8,0.4-4,0.9l4.8-11.8l4.8,11.8c-1.2-0.5-2.4-0.8-3.7-0.9
						l0.6,3.2l0,0l0.9,4.4l-0.7-4.3c2.5,0.5,4.4,1.9,5.6,4.4l0,0h3.1h1l0,0l-11.5-27.6L-125.1-32.2z"/>
				</defs>
				<clipPath id="SVGID_00000137810878849446473100000000310817135111756168_">
					<use xlink:href="#SVGID_00000055698915569358079710000017812136721368364989_"  style="overflow:visible;"/>
				</clipPath>
				<g id="Group_761" style="clip-path:url(#SVGID_00000137810878849446473100000000310817135111756168_);">
					
						<linearGradient id="Rectangle_492_00000056408374226837132920000011813120421260390287_" gradientUnits="userSpaceOnUse" x1="-346.3828" y1="-35.8212" x2="-346.3826" y2="-35.8212" gradientTransform="matrix(229.823 0 0 272.811 79468.3828 9726.4551)">
						<stop  offset="0" style="stop-color:#66ADE8"/>
						<stop  offset="1" style="stop-color:#8D49F5"/>
					</linearGradient>
					
						<rect id="Rectangle_492" x="-125.1" y="-59.8" style="fill:url(#Rectangle_492_00000056408374226837132920000011813120421260390287_);" width="23.3" height="27.6"/>
				</g>
			</g>
		</g>
	</g>
	<g id="Group_766" transform="translate(214.661 169.126)">
		<g>
			<g>
				<defs>
					<path id="SVGID_00000052089172793086799100000014895146723434653837_" d="M-196.9-158L-196.9-158L-196.9-158l-3.2,8.3l0.2-0.1
						c1-0.4,1.9-0.6,3-0.8c1,0.1,2,0.4,3,0.8l0.2,0.1L-196.9-158L-196.9-158L-196.9-158z"/>
				</defs>
				<clipPath id="SVGID_00000016039864178072037050000014170249518671947650_">
					<use xlink:href="#SVGID_00000052089172793086799100000014895146723434653837_"  style="overflow:visible;"/>
				</clipPath>
				<g id="Group_765" style="clip-path:url(#SVGID_00000016039864178072037050000014170249518671947650_);">
					
						<linearGradient id="Rectangle_494_00000114075045075720512160000001213262340904320186_" gradientUnits="userSpaceOnUse" x1="-514.3725" y1="-36.719" x2="-514.3718" y2="-36.719" gradientTransform="matrix(62.96 0 0 82.289 32163.1152 2867.6633)">
						<stop  offset="0" style="stop-color:#66ADE8"/>
						<stop  offset="1" style="stop-color:#8D49F5"/>
					</linearGradient>
					
						<rect id="Rectangle_494" x="-200.1" y="-158.1" style="fill:url(#Rectangle_494_00000114075045075720512160000001213262340904320186_);" width="6.4" height="8.3"/>
				</g>
			</g>
		</g>
	</g>
	<path id="Path_575" d="M26.9,20.5l-0.5-0.2c0,0-3.4,2.5,2.8,7.2L26.9,20.5z"/>
	<g id="Group_770" transform="translate(326.559 242.853)">
		<g>
			<g>
				<defs>
					<rect id="SVGID_00000048478765692154613350000005988269933687156143_" x="-300.6" y="-224.3" width="7.7" height="9.4"/>
				</defs>
				<clipPath id="SVGID_00000101100864172374631010000006783738383608943780_">
					<use xlink:href="#SVGID_00000048478765692154613350000005988269933687156143_"  style="overflow:visible;"/>
				</clipPath>
				<g id="Group_769" style="clip-path:url(#SVGID_00000101100864172374631010000006783738383608943780_);">
					<g id="Group_768" transform="translate(0 0)">
						<g>
							<g>
								<defs>
									<rect id="SVGID_00000128458858586498083380000003411152449971090305_" x="-300.6" y="-224.3" width="7.7" height="9.4"/>
								</defs>
								<clipPath id="SVGID_00000066491066655260699030000009564162311371531929_">
									<use xlink:href="#SVGID_00000128458858586498083380000003411152449971090305_"  style="overflow:visible;"/>
								</clipPath>
								<g id="Group_767" style="clip-path:url(#SVGID_00000066491066655260699030000009564162311371531929_);">
									
										<image style="overflow:visible;enable-background:new    ;" width="162" height="198" id="Rectangle_495" xlink:href="E7F6889.png"  transform="matrix(4.471086e-02 0 0 4.471086e-02 -300.6256 -224.3299)">
									</image>
								</g>
							</g>
						</g>
					</g>
				</g>
			</g>
		</g>
	</g>
	<path id="Path_576" class="st11" d="M29.4,18.9c-1.9,0-3.4,1.5-3.4,3.4c0,1.4,1,2.5,2.1,3.8c0.3,0.4,0.7,0.8,1,1.2
		c0.1,0.2,0.4,0.2,0.6,0.1c0,0,0.1-0.1,0.1-0.1c0.3-0.4,0.7-0.8,1-1.2c1.1-1.2,2.1-2.4,2.1-3.8C32.8,20.4,31.3,18.9,29.4,18.9
		 M29.4,23.6c-0.7,0-1.3-0.6-1.3-1.3c0-0.7,0.6-1.3,1.3-1.3c0.7,0,1.3,0.6,1.3,1.3l0,0C30.7,23,30.1,23.6,29.4,23.6L29.4,23.6"/>
	<path id="Path_577" class="st4" d="M29.4,18.9c-1.9,0-3.4,1.5-3.4,3.4c0,1.4,1,2.5,2.1,3.8c0.3,0.4,0.7,0.8,1,1.2
		c0.1,0.2,0.4,0.2,0.6,0.1c0,0,0.1-0.1,0.1-0.1c0.3-0.4,0.7-0.8,1-1.2c1.1-1.2,2.1-2.4,2.1-3.8C32.8,20.4,31.3,18.9,29.4,18.9z
		 M29.4,23.6c-0.7,0-1.3-0.6-1.3-1.3c0-0.7,0.6-1.3,1.3-1.3c0.7,0,1.3,0.6,1.3,1.3l0,0C30.7,23,30.1,23.6,29.4,23.6L29.4,23.6z"/>
</g>
</svg>
