<?xml version="1.0" encoding="utf-8"?>
<!-- Generator: Adobe Illustrator 26.0.3, SVG Export Plug-In . SVG Version: 6.00 Build 0)  -->
<svg version="1.1" xmlns="http://www.w3.org/2000/svg" xmlns:xlink="http://www.w3.org/1999/xlink" x="0px" y="0px"
	 viewBox="0 0 1800 954" style="enable-background:new 0 0 1800 954;" xml:space="preserve">
<style type="text/css">
	.st0{display:none;}
	.st1{display:inline;fill:#F8FBFF;filter:url(#Adobe_OpacityMaskFilter);}
	.st2{display:inline;mask:url(#mask0_231_2073_00000138546529126972191730000011570576775051141008_);}
	.st3{fill:none;stroke:#1E78FF;stroke-opacity:0.04;}
	.st4{fill:#D1DFF4;fill-opacity:0.39;}
	.st5{fill:url(#SVGID_1_);}
	.st6{fill:#B5EDB8;}
	.st7{fill:#AADAFF;}
	.st8{fill:#FFFFFF;}
	.st9{fill:#DFE1E4;}
	.st10{fill:#DDDDDD;}
	.st11{fill:#D8D7D6;}
	.st12{fill:#E7E7E7;}
</style>
<g id="Layer_1" class="st0">
	<defs>
		<filter id="Adobe_OpacityMaskFilter" filterUnits="userSpaceOnUse" x="3" y="-27" width="1798" height="1247">
			<feColorMatrix  type="matrix" values="1 0 0 0 0  0 1 0 0 0  0 0 1 0 0  0 0 0 1 0"/>
		</filter>
	</defs>
	
		<mask maskUnits="userSpaceOnUse" x="3" y="-27" width="1798" height="1247" id="mask0_231_2073_00000138546529126972191730000011570576775051141008_" style="display:inline;">
		<path style="fill:#F8FBFF;filter:url(#Adobe_OpacityMaskFilter);" d="M-1,81L1805,0l-5,877L-5,954L-1,81z"/>
	</mask>
	<g class="st2">
		<path class="st3" d="M142-27v1247"/>
		<path class="st3" d="M282-27v1247"/>
		<path class="st3" d="M420-27v1247"/>
		<path class="st3" d="M560-27v1247"/>
		<path class="st3" d="M701-27v1247"/>
		<path class="st3" d="M841-27v1247"/>
		<path class="st3" d="M979-27v1247"/>
		<path class="st3" d="M1119-27v1247"/>
		<path class="st3" d="M1259-27v1247"/>
		<path class="st3" d="M1399-27v1247"/>
		<path class="st3" d="M1537-27v1247"/>
		<path class="st3" d="M1677-27v1247"/>
		<path class="st3" d="M1801,250H3"/>
		<path class="st3" d="M1801,390H3"/>
		<path class="st3" d="M1801,530H3"/>
		<path class="st3" d="M1801,670H3"/>
		<path class="st3" d="M1801,810H3"/>
		<path class="st3" d="M1801,950H3"/>
		<circle class="st4" cx="700" cy="250" r="3"/>
		<circle class="st4" cx="700" cy="390" r="3"/>
		<circle class="st4" cx="700" cy="530" r="3"/>
		<circle class="st4" cx="700" cy="670" r="3"/>
		<circle class="st4" cx="841" cy="670" r="3"/>
		<circle class="st4" cx="841" cy="530" r="3"/>
		<circle class="st4" cx="841" cy="390" r="3"/>
		<circle class="st4" cx="841" cy="250" r="3"/>
		<circle class="st4" cx="977" cy="250" r="3"/>
		<circle class="st4" cx="978" cy="390" r="3"/>
		<circle class="st4" cx="975" cy="530" r="3"/>
		<circle class="st4" cx="979" cy="670" r="3"/>
		<circle class="st4" cx="1118" cy="670" r="3"/>
		<circle class="st4" cx="1116" cy="530" r="3"/>
		<circle class="st4" cx="1117" cy="390" r="3"/>
		<circle class="st4" cx="1118" cy="250" r="3"/>
		<circle class="st4" cx="419" cy="250" r="3"/>
		<circle class="st4" cx="419" cy="390" r="3"/>
		<circle class="st4" cx="419" cy="530" r="3"/>
		<circle class="st4" cx="419" cy="670" r="3"/>
		<circle class="st4" cx="560" cy="670" r="3"/>
		<circle class="st4" cx="560" cy="530" r="3"/>
		<circle class="st4" cx="560" cy="390" r="3"/>
		<circle class="st4" cx="560" cy="250" r="3"/>
		<circle class="st4" cx="141" cy="250" r="3"/>
		<circle class="st4" cx="141" cy="390" r="3"/>
		<circle class="st4" cx="141" cy="530" r="3"/>
		<circle class="st4" cx="141" cy="670" r="3"/>
		<circle class="st4" cx="282" cy="670" r="3"/>
		<circle class="st4" cx="282" cy="530" r="3"/>
		<circle class="st4" cx="282" cy="390" r="3"/>
		<circle class="st4" cx="282" cy="250" r="3"/>
		<circle class="st4" cx="1258" cy="250" r="3"/>
		<circle class="st4" cx="1259" cy="390" r="3"/>
		<circle class="st4" cx="1257" cy="530" r="3"/>
		<circle class="st4" cx="1259" cy="670" r="3"/>
		<circle class="st4" cx="1400" cy="670" r="3"/>
		<circle class="st4" cx="1398" cy="530" r="3"/>
		<circle class="st4" cx="1399" cy="390" r="3"/>
		<circle class="st4" cx="1398" cy="250" r="3"/>
		<circle class="st4" cx="1536" cy="250" r="3"/>
		<circle class="st4" cx="1537" cy="390" r="3"/>
		<circle class="st4" cx="1536" cy="530" r="3"/>
		<circle class="st4" cx="1537" cy="670" r="3"/>
		<circle class="st4" cx="702" cy="810" r="3"/>
		<circle class="st4" cx="840" cy="810" r="3"/>
		<circle class="st4" cx="979" cy="810" r="3"/>
		<circle class="st4" cx="1119" cy="810" r="3"/>
		<circle class="st4" cx="419" cy="810" r="3"/>
		<circle class="st4" cx="560" cy="810" r="3"/>
		<circle class="st4" cx="142" cy="810" r="3"/>
		<circle class="st4" cx="282" cy="810" r="3"/>
		<circle class="st4" cx="1259" cy="811" r="3"/>
		<circle class="st4" cx="1399" cy="810" r="3"/>
		<circle class="st4" cx="1536" cy="810" r="3"/>
		<circle class="st4" cx="1677" cy="810" r="3"/>
		<circle class="st4" cx="702" cy="950" r="3"/>
		<circle class="st4" cx="840" cy="950" r="3"/>
		<circle class="st4" cx="979" cy="950" r="3"/>
		<circle class="st4" cx="1119" cy="950" r="3"/>
		<circle class="st4" cx="419" cy="950" r="3"/>
		<circle class="st4" cx="560" cy="950" r="3"/>
		<circle class="st4" cx="142" cy="950" r="3"/>
		<circle class="st4" cx="282" cy="950" r="3"/>
		<circle class="st4" cx="1259" cy="951" r="3"/>
		<circle class="st4" cx="1399" cy="950" r="3"/>
		<circle class="st4" cx="1536" cy="950" r="3"/>
		<circle class="st4" cx="1677" cy="950" r="3"/>
		<circle class="st4" cx="1677" cy="670" r="3"/>
		<circle class="st4" cx="1677" cy="530" r="3"/>
		<circle class="st4" cx="1677" cy="390" r="3"/>
		<circle class="st4" cx="1677" cy="250" r="3"/>
	</g>
</g>
<g id="Layer_2">
	
		<radialGradient id="SVGID_1_" cx="904.7719" cy="477.2361" r="875.8527" gradientTransform="matrix(0.9979 -0.0653 0.0276 0.4212 -11.2263 335.3131)" gradientUnits="userSpaceOnUse">
		<stop  offset="0" style="stop-color:#F1F3F4"/>
		<stop  offset="0.5212" style="stop-color:#F1F3F2;stop-opacity:0.4788"/>
		<stop  offset="0.7089" style="stop-color:#F2F3EB;stop-opacity:0.2911"/>
		<stop  offset="0.8427" style="stop-color:#F4F3E0;stop-opacity:0.1573"/>
		<stop  offset="0.9501" style="stop-color:#F6F3CF;stop-opacity:0.0499"/>
		<stop  offset="1" style="stop-color:#F7F3C4;stop-opacity:0"/>
	</radialGradient>
	<path class="st5" d="M382.91,902.5c0,0-421.26-19.25-333.73-419.08S287.39,66.65,287.39,66.65s231.84-80.74,391.4,77.34
		s602.81,5.15,655.78-26.21s411.08-113.41,424.02,47.61s60.59,625.96-151.2,600.53s-456.03,75.53-508.77,110.25
		C1045.88,910.88,561.35,913.88,382.91,902.5z"/>
	<g id="map_1_">
		<path class="st6" d="M342.48,171.77l-39.22,86.68l332.07-36.02c0,0-53.51-38.87-93.8-48.18c-39.9-9.37-81.54-17.12-107.61-16.41
			C407.8,158.54,342.48,171.77,342.48,171.77z"/>
		<polygon class="st7" points="222.86,436.08 140.88,617.16 140.88,617.96 270.26,611.34 468.33,592.78 650.97,565.04 
			784.39,532.56 856.62,515.17 889.26,498.43 896.38,487.66 		"/>
		<g>
			<path class="st8" d="M1701.65,792.32v-11.93l-178.88,18.7l-39.35-98.96l80.34-6.3c31.44,1.96,82.17,6.22,137.89,18.84v-10.36
				c-29.02-6.15-56.5-10.26-80.54-13.05l80.54-6.54v-17.26l-93.65,7.7c19.4-7.57,38.97-17.26,56.87-29.74
				c47.58-34.61,32.4-67.65,17.51-85.73l19.27,1.41v-15.82l-22.12-1.61l12.39-43.86l9.72,0.17v-10.86l-7.01-0.12l7.01-31.96
				l55.28-287.48c-36.76-9.6-176.8,18.05-267.78,43.54c-15.01,4.04-30.79,8.54-47.16,13.49l-101.91-77.22l194.46-25.27l-15.96-15.86
				l-258,33.8l-23.33-58.69l-26.89,0.2l23,61.92l-204.85,25.13l-17.98-96.93l-17.96,0.2l16.6,99.03l-93.68,11.06
				c-17.42-23.44-56.1-40.54-101.42-43.26l1.05-54.12l-26.9,0.2l-2.48,54.12c-59.98,4.38-110.53,33.46-115.64,68.37
				c-0.14,0.89-0.2,1.76-0.27,2.65l-31,3.44c-6.51-7.25-35.85-35.28-124.45-52.89c-17.81-3.61-34.93-5.67-51.11-6.61l33.58-99.3
				l-17.58,0.2l-35.1,98.49c-33.82-0.23-63.02,4.1-83.66,8.39L393,87.81l-26.87,0.2l-42.05,90.01l-131.03-15.79l-10.46,10.61
				l136.33,16.26l-28.71,61.44l-149.32,15.21v15.39l141.68-14.22l-44.35,94.97l-97.33-10.03v11.7l92.14,9.41l-23.47,50.27
				L96.5,417.48l-21.1,13.64l126.52,8.47l-41.49,88.84l-143.3-1.14v10.93l138.26,1.04l-14.49,31.05L61.14,694.57
				c47.39-0.83,175.44-4.61,224.26-7.37c5.71-0.15,11.93-0.25,18.55-0.28l-107.61,91.83l-119.91,6.69v15.95l98.54-5.21L69.87,872.33
				v26.24L210.2,793.75l547.09-38.8l-2.26,48.76L350.56,842.1l5.69,10.44L754.54,815l-2.42,52.21h47.78l1.1-56.68l338.26-33.51
				l77.57,52.72l-473.85,45.27l8.18,10.46l480.91-45.64l81.16,51.99l28.61-4.47l-79.52-50.49l220.4-21.92l19.37,52.17l47.75-0.03
				l-22.56-56.65L1701.65,792.32z M354.34,175.67c27.34-6.46,84.22-16.1,148.66-3.03c70.04,13.84,99.47,34.53,109.76,43.59
				l-289.88,30.94L354.34,175.67z M315.66,263.54l207.75-21.68l-38.84,144.75l-213.66-21.38L315.66,263.54z M528.3,305.91
				l119.66,12.37l-12.32,141.23l-142.78-11.95L528.3,305.91z M266.04,376.31l215.56,21.4l-12.83,47.8l-224.71-19.26L266.04,376.31z
				 M231.2,776.32l102.72-89.18c45.98,0.95,103.02,5.16,152.88,17.68c76.1,18.76,112.54,34.65,129.35,44.09L231.2,776.32z
				 M758.06,738.52l-104.03,7.63c-15.85-10.36-54.72-29.57-146.27-52.17c-31.62-7.97-65.32-12.91-97.69-15.88
				c87.96-7.92,175.57-18.86,260.45-32.75c31.44-5.2,62.32-10.79,92.62-16.73L758.06,738.52z M767.73,528.85
				c-204.21,53.48-434.71,73.23-604.06,80.03l73.18-166.28l532.8,44.42L767.73,528.85z M770.42,470.6l-109.99-9.06l9.69-141.01
				l106.74,10.79L770.42,470.6z M777.37,320.2l-246.29-25.4l13.82-55.24l127.41-13.76c10.64,26.04,52.71,45.55,107.18,48.53
				L777.37,320.2z M1652.1,539.61l-239.77-18.19l-42.4-106.57l308.22,27.53L1652.1,539.61z M1223.86,477.22
				c38.76-21.43,76.32-40.14,112.45-56.51l36.24,97.63l-199.44-15.5C1190.63,494.56,1207.57,486.02,1223.86,477.22z M1047.88,401.91
				L911.79,271.75l223.64-33.78c1.05,0.74,2.13,1.45,3.22,2.21c54.23,37.47,63.38,65.74,64.6,76.56
				C1151.17,340.96,1098.41,369.17,1047.88,401.91z M1680.28,431.97l-117.77-10.47l124.57-28.77L1680.28,431.97z M1695.18,315.69
				l-6.07,62.75l-169.05,39.25l-146.9-13.32C1496.46,348.85,1610.81,325.32,1695.18,315.69z M1321.62,149.7l104.25,79.84
				c-35.77,11.06-74.21,24.29-113.78,40.03l-44.95-113.05L1321.62,149.7z M1239.48,159.96l44.84,120.79
				c-19.01,7.77-38.21,16.13-57.51,25.02c-6.4-16.05-23.68-41.35-68.63-72.3c-38.88-27.86-81.62-42.35-114.18-49.89L1239.48,159.96z
				 M925.26,205.78c-0.2-2.77-0.78-5.48-1.59-8.17l74.41-8.63c19.68,1.88,72.79,9.58,122.51,39.54l-218.25,33.22l-8.73-9.41
				C914.71,240.05,926.69,223.7,925.26,205.78z M811.42,274.17c24.86-1.59,47.51-6.59,66-14.01l75.22,77.52l-142.16-14.15
				L811.42,274.17z M810.26,334.67l155.1,15.31l67.28,61.67c-7.67,4.95-15.29,9.98-22.8,15.13c-30.59,20.44-65.26,38.65-103.02,54.9
				l-99.27-8.05L810.26,334.67z M807.23,490.05l65.48,5.25c-21.29,7.97-43.36,15.39-66.01,22.33L807.23,490.05z M804.7,620.07
				c126.38-27.53,239.75-62.1,337.94-103.44l133.59,10.36c3.69,7.84,4.57,21.3-14.33,40.02c-7.62,7.37-18.23,13.49-30.04,18.58
				l-288.24,26.18c-43.84,3.92-71.55,21.27-61.16,38.55l17.05,27.71c10.94,17.32,58.13,28.33,104.42,24.47l324.79-27.81
				c44.51-3.89,67.51-21.27,51.49-38.62l-25.23-27.81c-11.49-12.87-40.24-22.22-71.38-24.61c33-19.19,31.44-42.26,27.88-53.96
				l67.2,5.16l56.47,152.08l-632.69,48.31L804.7,620.07z M801.21,799.24l0.93-47.55l273.35-20.26l49.44,35.51L801.21,799.24z
				 M1105.08,729.22l336.21-25.81l10.94,29.46l-298.21,31.11L1105.08,729.22z M1246.89,826.76l-78.37-52.72l287.9-29.85l22.08,59.4
				L1246.89,826.76z M1476.85,683.62l-57.98-145.74l229.33,17.26c12.94,14.26,32.92,46.6-14.02,80.5
				c-36.17,24.83-78.71,37.67-109.91,44.24L1476.85,683.62z"/>
			<path class="st9" d="M780.26,330l-113.28-11.46l-10.35,144.35l117.42,9.66L780.26,330z M766.8,468.66l-102.62-8.46l9.13-137.67
				l100.12,10.12L766.8,468.66z"/>
			<polygon class="st9" points="17.12,525.67 17.12,528.91 163.53,530.09 206.17,438.26 75.4,429.4 75.4,432.82 197.67,440.93 
				157.36,526.74 			"/>
			<path class="st9" d="M782.73,272.88l-2.8-0.15c-52.78-2.88-93.97-21.49-104.64-47.38l-0.55-1.44l-132.6,14.36l-14.63,57.85
				l253.09,26.07L782.73,272.88z M774.15,318.22L534.64,293.5l13.03-52.63l122.21-13.18c11.75,25.95,53.15,44.62,106.33,48.08
				L774.15,318.22z"/>
			<polygon class="st9" points="96.5,415.79 96.5,419.2 212.25,425.17 237.09,371.66 140.88,361.83 140.88,365.29 228.97,374.28 
				206.88,421.31 			"/>
			<path class="st9" d="M263.44,374.33l-23.57,53.25l232.03,19.88l13.56-51.05L263.44,374.33z M465.66,443.57l-217.44-18.66
				l20.39-46.62l209.12,20.74L465.66,443.57z"/>
			<path class="st9" d="M651.62,747.93l110.81-8.1l4.95-113.84l-6.05,1.2c-30.48,5.97-61.56,11.61-92.32,16.7
				c-83.81,13.73-171.27,24.71-259.54,32.61l-17.63,1.6l16.8,1.56c35.79,3.28,68.24,8.55,96.51,15.67
				c92.28,22.77,130.36,42.11,144.95,51.62L651.62,747.93z M427.26,678.13c83.27-7.85,165.65-18.36,244.75-31.27
				c28.94-4.77,58.12-10.01,86.86-15.63L753.7,737.2l-97.29,7.14c-16.05-10.06-55.46-29.34-146.05-51.71
				C485.58,686.38,457.71,681.54,427.26,678.13z"/>
			<polygon class="st9" points="17.12,536.6 17.12,539.85 150.76,540.84 97.5,626.08 104.87,626.48 159.99,537.73 			"/>
			<path class="st9" d="M310.25,685.27l-5.84,0.03c-6.29,0.06-12.58,0.15-19.12,0.3c-49.16,2.79-177.43,6.57-224.16,7.39v3.19
				c46.81-0.83,175.11-4.63,223.95-7.39c4.11-0.08,8.3-0.15,12.5-0.21L193.3,777.35l-116.88,6.51v3.19l122.96-6.91L310.25,685.27z"
				/>
			<path class="st9" d="M771.58,529.69l1.91-44.02l-539.4-45L158.8,610.66l4.57-0.19c161.24-6.46,397.52-25.66,606.42-80.31
				L771.58,529.69z M763.91,527.97c-204.85,53.42-435.94,72.54-595.38,79.14l71.13-162.57l526.18,43.82L763.91,527.97z"/>
			<path class="st9" d="M525.54,303.93l-36.66,144.95l150.3,12.57l12.19-144.5L525.54,303.93z M632.13,457.55l-135.26-11.33
				l34.23-138.32l113.43,11.69L632.13,457.55z"/>
			<path class="st9" d="M504.42,171.12c-22.39-4.51-45.6-6.73-69.16-6.58c-34.51,0.23-63.31,5.38-81.5,9.68l-1.9,0.44l-32.98,74.49
				l298.83-31.87l-2.3-2.01C605.65,206.68,575.83,185.23,504.42,171.12z M326.83,245.19l29.97-68.52
				c17.72-4.06,44.86-8.72,77.26-8.92c22.96-0.15,45.63,2.01,67.48,6.39c64.93,12.83,94.59,31.69,106.16,41.01L326.83,245.19z"/>
			<polygon class="st9" points="76.42,799.79 76.42,802.98 167.56,798.29 69.87,868.52 69.87,876.16 182.33,794.1 			"/>
			<path class="st9" d="M619.94,747.96c-17.95-10.03-55.08-25.91-130.5-44.47c-42.34-10.68-94.29-16.68-154.77-17.97l-3.38-0.06
				l-107.33,92.97l399.59-28.44L619.94,747.96z M238.43,774.23l98.09-85.41c57.68,1.38,107.23,7.21,147.64,17.35
				c69.38,17.1,105.72,31.79,124.48,41.63L238.43,774.23z"/>
			<path class="st9" d="M1206.7,317.51l-0.11-0.66c-1.25-10.63-10.4-39.5-65.51-77.51c-0.84-0.61-1.69-1.19-2.58-1.78l-2.16-1.48
				l-229.05,34.64L1047.5,405l3.29-2.08c47.25-30.55,99.41-59.14,154.99-84.97L1206.7,317.51z M1048.24,398.84L916.27,272.79
				l218.25-32.94c0.55,0.39,1.08,0.77,1.66,1.17c52.68,36.45,62.19,64.1,63.65,74.92C1145.63,341.21,1094.61,369.09,1048.24,398.84z
				"/>
			<path class="st9" d="M1034.39,183.04l8.67,2.02c29.46,6.82,73.19,20.91,112.68,49.24c44.64,30.76,61.62,55.88,67.81,71.53
				l1.26,3.2l4.44-2.02c19.07-8.78,38.36-17.18,57.4-24.95l1.19-0.49l-46.23-123.61L1034.39,183.04z M1228.71,302.53
				c-7.42-16.14-25.44-40.54-68.11-69.91c-36.98-26.45-77.49-40.81-107.27-48.46l184-22.21l43.48,117.97
				C1263.54,287.02,1246.05,294.6,1228.71,302.53z"/>
			<path class="st9" d="M1691.28,389.69l-140.09,32.37l132.53,11.77L1691.28,389.69z M1676.79,430.08l-102.97-9.15l109.07-25.17
				L1676.79,430.08z"/>
			<path class="st9" d="M1698.84,313.49l-5.43,0.63c-76.99,8.78-195.29,31.38-322.96,89l-5.01,2.13l155.88,14.13l171.35-39.74
				L1698.84,313.49z M1685.6,377.24l-166.75,38.75l-137.92-12.5c122.1-54.31,235.06-76.53,310.6-85.57L1685.6,377.24z"/>
			<path class="st9" d="M875.43,258.89c-18.5,7.44-40.8,12.17-64.35,13.69l-2.8,0.18l-1.16,52.1l151.5,15.05l-80.05-82.28
				L875.43,258.89z M813.81,322.22l0.79-46.64c22.38-1.67,43.58-6.11,61.61-12.9l70.42,72.79L813.81,322.22z"/>
			<path class="st9" d="M1263.73,155.22l46.37,117.38l4.3-1.68c36.38-14.46,74.59-27.88,113.61-39.93l2.27-0.71l-107.82-82.43
				L1263.73,155.22z M1314.09,266.55l-43.51-108.71l50.19-6.28l100.7,77.26C1384.65,240.27,1348.62,252.94,1314.09,266.55z"/>
			<path class="st9" d="M796.57,801.35L1131.36,768l-53.54-38.4L797.7,750.38L796.57,801.35z M806.59,753.02l266.6-19.74
				l45.31,32.61l-312.66,31.2L806.59,753.02z"/>
			<path class="st9" d="M800.6,619.12l-2.61,118.08l641.97-48.96l-57.89-154.77l-75.05-5.71l0.58,1.93
				c3.55,11.73,4.8,34.22-27.4,52.96l-3.66,2.08l6.77,0.52c30.62,2.32,57.25,11.49,67.78,23.35l25.16,27.8
				c7.32,7.97,6.37,16.19-2.8,23.17c-9.28,6.94-25.68,11.78-46.14,13.56l-324.48,27.77c-5.76,0.5-11.69,0.73-17.57,0.73
				c-38.41,0.07-72.76-10.01-81.56-23.93l-17.15-27.74c-9.92-16.47,16.29-32.9,58.09-36.61l288.51-26.21l1.08-0.08l0.72-0.32
				c13.27-5.72,23.61-12.1,30.68-18.99c19.07-18.91,18.34-32.65,14.43-40.89l-0.58-1.24l-138.43-10.72l-1.33,0.57
				c-97.55,41.1-211.28,75.82-336.98,103.2L800.6,619.12z M808.8,621.02c125.03-27.31,238.2-61.83,335.41-102.64l128.73,9.96
				c3.16,7.89,2.79,20.58-14.77,37.91c-6.66,6.47-16.28,12.44-28.69,17.86l-286.85,26.08c-46.09,4.11-75.13,22.29-64.26,40.5
				l16.99,27.71c9.68,15.38,47.65,26.51,90.19,26.48c6.54-0.03,13.11-0.3,19.48-0.83l325.08-27.77c22.67-2,40.82-7.3,51.04-14.99
				c10.11-7.7,11.11-16.77,2.99-25.6l-25.3-27.8c-10.97-12.26-37.43-21.92-68.45-25.26c28.49-18.03,28.69-38.87,25.53-51.01
				l59.35,4.54l55.1,149.43l-623.45,47.67L808.8,621.02z"/>
			<path class="st9" d="M803.78,474.97l104.33,8.45l1.37-0.59c39.11-16.83,73.91-35.37,103.4-55.11
				c7.18-4.92,14.83-9.99,22.73-15.08l1.16-0.77l-69.17-63.32l-160.66-15.86L803.78,474.97z M813.57,336.66l149.52,14.73
				l65.37,60.07c-7.52,4.86-14.8,9.7-21.67,14.4c-28.96,19.36-62.99,37.55-101.24,54.09l-94.27-7.65L813.57,336.66z"/>
			<path class="st9" d="M802.79,520.81l6.13-1.88c23.2-7.1,45.53-14.64,66.3-22.41l5.81-2.18l-77.54-6.23L802.79,520.81z
				 M810.96,492l53.36,4.28c-17.07,6.27-35.09,12.37-53.73,18.18L810.96,492z"/>
			<path class="st9" d="M1651.96,554.91l-1.02-1.15l-236.75-17.84l59.17,149.68l52.43-4.17l1.02-0.12
				c30.38-6.37,74.18-19.28,111.19-44.69C1684.68,602.87,1666.59,570.93,1651.96,554.91z M1522.2,678.31l-41.87,3.34l-56.76-141.8
				l221.81,16.68c13.89,15.88,29.4,46.14-15.04,78.17C1594.24,659.47,1551.77,672.09,1522.2,678.31z"/>
			<path class="st9" d="M1480.31,805.16l3.25-0.34l-23.47-62.75l-298.05,30.94l82.67,55.73L1480.31,805.16z M1452.76,746.33
				l20.67,56.05l-224.36,22.5L1175,775.09L1452.76,746.33z"/>
			<path class="st9" d="M1338.59,417.17l-5.08,2.33c-37.6,17.03-75.46,36.08-112.7,56.63c-15.99,8.63-33.01,17.23-50.63,25.58
				l-4.63,2.16l211.59,16.44L1338.59,417.17z M1226.95,478.31c35.32-19.53,71.29-37.69,107.06-54.03l33.97,92.12l-187.34-14.57
				C1196.73,494.13,1212.28,486.24,1226.95,478.31z"/>
			<path class="st9" d="M1661,642.44c-16.19,11.31-35.19,21.24-56.4,29.49l-10.5,4.04l107.55-8.83v-3.39l-80.42,6.62
				c17.65-7.55,33.61-16.28,47.49-26c46.88-34.06,32.98-66.89,19.21-84.7l13.72,1.02v-3.2l-24.89-1.83l1.78,2.18
				C1692.26,574.58,1708.69,607.83,1661,642.44z"/>
			<polygon class="st9" points="1690.26,488.54 1701.65,488.73 1701.65,485.51 1699.01,485.47 1735.5,317.92 1727.02,317.92 
				1700.4,442.74 			"/>
			<polygon class="st9" points="1674.96,542.88 1701.65,544.88 1701.65,541.72 1684.07,540.39 1695.55,499.48 1701.65,499.57 
				1701.65,496.36 1688.34,496.13 			"/>
			<path class="st9" d="M1701.65,794.1v-3.56l-176.2,18.33l-3.25,0.33l22.21,56.25l-38.17,0.03l-19.71-52.69l-231.01,23.02
				l79.7,50.74l-20.12,3.12l-80.81-51.77l-479.69,45.62l-5.78-7.39l474.69-45.3l-82.06-55.73l-341.68,33.86l-3.38,0.35l-1.25,56.28
				h-38.18l2.29-52.69l-399.18,37.67l-4.01-7.35l403.53-38.26l2.27-51.95L207.1,792.37L69.87,894.65v7.85L213.3,795.13l539.42-38.2
				l-2.21,45.55l-405.42,38.47l7.32,13.56l397.39-37.37l-2.53,51.67h44.32l-54.46,5.06l10.58,13.57l482.16-45.73l81.45,52.2
				l37.13-5.75l-79.39-50.25l209.79-20.84l19.04,51.62h57.39l-22.83-57.04L1701.65,794.1z M805.6,811.75l331.46-32.8l73.05,49.74
				l-405.45,38.9L805.6,811.75z"/>
			<path class="st9" d="M1701.65,704.03v-3.41c-20.62-4.36-42.04-8-64.21-10.94l64.21-5.22v-3.49l-97.55,7.9l16.4,1.9
				C1648.85,694.06,1675.87,698.52,1701.65,704.03z"/>
			<path class="st9" d="M322.47,187.81l-135.69-16.21l7.35-7.47l131.96,15.88l41.97-90.4l21.54-0.17l-33.03,74.6l4.34-0.9
				c18.51-3.85,48.11-8.5,82.61-8.28l2.93,0.01l34.85-98.54l12.4-0.14l-33.79,99.13l2.48,0.14c17.07,0.99,34.07,3.19,50.57,6.52
				c86.95,17.26,116.03,44.29,123.09,52.18l0.91,1.01l35.8-3.95l0.09-1.38c0.08-0.85,0.12-1.72,0.26-2.57
				c4.83-33.72,53.51-62.43,112.87-66.76l2.53-0.19l2.33-53.93l21.55-0.17l-1.19,53.95l2.48,0.15c43.87,2.63,81.7,18.82,99.07,42.22
				l0.99,1.29l98.55-11.62l-16.8-98.75l12.64-0.14l17.79,97.26l210.73-25.81l-23.03-61.63l21.55-0.15l23.33,59.04l259.14-33.87
				l12.73,12.69l-194.96,25.37l106.19,80.57l2.47-0.74c15.72-4.77,31.57-9.29,47.11-13.46c89.59-25.08,225.26-42.02,267.39-47.2
				v-3.61c-41.32,4.97-179.15,21.94-271.49,47.84c-14.75,3.96-29.8,8.28-44.73,12.78l-97.68-73.86l193.98-25.19l-19.21-19.04
				l-256.84,33.72l-23.35-58.32l-32.21,0.25l22.94,62.21l-198.97,24.44l-18.18-96.57l-23.2,0.26l16.38,99.3l-88.83,10.5
				c-18.37-23.42-56.3-39.67-100.29-42.84l0.9-54.32l-32.21,0.25l-2.64,54.3c-60.91,5.18-110.72,34.93-115.9,69.8
				c-0.06,0.45-0.11,0.89-0.17,1.35l-26.26,2.9c-8.78-9.2-39.72-35.64-124.86-52.6c-16.06-3.25-32.57-5.44-49.19-6.53L500,52.91
				l-22.76,0.28l-35.35,98.44c-31.6,0.05-58.94,4.01-77.48,7.66l31.98-73.11l-32.21,0.25l-42.1,89.63l-130.11-15.7l-13.6,13.73
				l136.96,16.34l-27.64,58.82l-146.81,14.95v3.08l151.84-15.44L322.47,187.81z"/>
			<polygon class="st9" points="140.88,282.68 278.46,268.9 235.72,359.93 140.88,350.13 140.88,353.59 240.7,363.86 286.65,264.95 
				140.88,279.6 			"/>
			<path class="st9" d="M891.25,251.26l-1.37,0.78l10.79,11.65l225.3-34.27l-3.19-1.88c-50.27-30.28-103.78-38.17-124.4-40.14
				l-0.58-0.06l-77.55,9.01l0.46,1.48c0.82,2.79,1.33,5.39,1.52,7.99C923.54,222.64,912.68,238.78,891.25,251.26z M928.28,205.77
				c-0.17-2.22-0.61-4.54-1.22-6.88l71.27-8.26c19.94,1.96,69.5,9.42,116.81,37.01l-211.13,32.18l-6.69-7.19
				C918.86,239.65,929.69,223.06,928.28,205.77z"/>
			<path class="st9" d="M1098.62,728.04l53.24,37.88l305.25-31.85l-12.19-32.61L1098.62,728.04z M1156.19,762.03l-44.64-31.63
				l326.14-24.98l9.66,26.24L1156.19,762.03z"/>
			<path class="st9" d="M266.9,366.53l220.63,22.06l39.48-148.7l-213.93,22.36L266.9,366.53z M519.77,243.84l-38.14,140.79
				l-206.71-20.7l43.33-99.08L519.77,243.84z"/>
			<path class="st9" d="M1365.55,412.85l43.42,109.88l246.67,18.71l26.63-100.28L1365.55,412.85z M1648.55,537.76l-232.9-17.7
				l-41.37-103.23l299.73,26.73L1648.55,537.76z"/>
			<path class="st9" d="M1701.65,778.65l-175.11,18.32l-38.24-95.51l76.29-6.01c50.36,3.23,95.81,9.5,137.07,18.95v-3.31
				c-41.96-9.38-87.93-15.73-137.85-18.86l-0.82-0.06l-84.41,6.65l40.45,102.38l182.63-19.06V778.65z"/>
		</g>
		<g>
			<g>
				<g>
					<path class="st7" d="M1701.65,186.53c-121.39,15.51-448.58,72.22-661.16,249.6c-244.45,141.7-755.8,182.51-1010.3,191.85v51.13
						c314.83-5.57,841.83-63.49,1163.36-212.76c186.64-121.57,381.32-159.05,508.1-169.48V186.53z"/>
					<path class="st10" d="M1495,227.21c86.1-21.55,160.86-33.23,206.65-39.11v-3.07c-45.92,5.88-121.36,17.6-208.31,39.36
						c-131.69,32.95-317.5,96.27-454.51,210.64C795.19,576.26,285.4,617.14,30.18,626.48v3.01
						c255.91-9.35,767.2-50.37,1012.24-192.46C1179.02,323.05,1363.92,260.03,1495,227.21z"/>
					<path class="st10" d="M1701.65,295.44c-124.82,10.44-322.15,47.61-509.55,169.72C811.17,641.99,229.12,673.6,30.18,677.52
						l30.95,2.61c124.1-2.18,377.44-14.57,572.78-47.77c215.78-36.69,404.58-92.12,561.4-164.96
						c186.36-121.4,382.23-158.46,506.33-168.92V295.44z"/>
				</g>
			</g>
		</g>
		<g>
			<path class="st6" d="M886.07,206.02c1.2,26.13-39.06,47.53-89.94,47.79c-50.88,0.25-89.76-20.68-86.86-46.76
				c2.9-26.09,43.18-47.49,89.96-47.79C846,158.94,884.9,179.88,886.07,206.02z"/>
			<path class="st11" d="M796.08,255.41c-52.6,0.28-92.9-21.43-89.84-48.36c3.06-26.93,44.8-49.09,93.04-49.42
				c48.22-0.3,88.51,21.38,89.8,48.35C890.39,232.98,848.67,255.14,796.08,255.41z M799.18,160.86
				c-45.18,0.29-84.16,20.99-86.89,46.16c-2.73,25.15,34.9,45.42,83.89,45.17c49-0.26,87.96-20.97,86.89-46.16
				C881.99,180.84,844.36,160.57,799.18,160.86z"/>
		</g>
		<g>
			<g>
				<path class="st6" d="M1336.7,633.21c11.61,13.04-5.84,26.06-39.02,29.01l-284.35,24.55c-34.34,2.91-69.53-5.34-77.98-18.33
					l-9.78-15.3c-8.15-12.97,12.41-26,45.5-28.91l273.58-24.68c31.9-2.91,67.15,5.34,78.51,18.33L1336.7,633.21z"/>
			</g>
			<g>
				<path class="st11" d="M999.75,688.94c-32.11,0.07-60.94-8.43-68.53-20.14l-9.75-15.3c-4.19-6.71-1.37-13.6,7.9-19.42
					c9.17-5.86,23.61-9.9,40.68-11.41l273.3-24.68c4.47-0.4,9.11-0.61,13.79-0.65c30.24-0.03,59.61,8.43,69.93,20.21l13.55,15.33
					c6.04,6.72,5.09,13.64-2.74,19.49c-7.85,5.86-21.67,9.9-38.81,11.41l-284.66,24.55C1009.61,688.74,1004.65,688.94,999.75,688.94
					z M1258,600.61c-4.1,0-8.16,0.18-12.06,0.55l-273.88,24.65c-14.89,1.31-27.53,4.87-35.59,9.99
					c-8.09,5.09-10.53,11.16-6.81,17.01l9.78,15.3c6.68,10.24,31.92,17.66,59.96,17.63c4.3,0,8.63-0.18,12.8-0.55l284.11-24.55
					c14.97-1.32,27.02-4.84,33.93-9.99c6.84-5.13,7.73-11.16,2.51-17.05l-13.52-15.33C1310.27,607.99,1284.57,600.54,1258,600.61z"
					/>
			</g>
		</g>
		<g>
			<g>
				<polygon class="st12" points="338.23,359.51 302.09,359.65 317.48,322.74 352.59,322.59 				"/>
			</g>
			<g>
				<polygon class="st12" points="1077.51,793.9 1022.75,798.59 1022.75,798.59 975.83,802.61 975.83,802.61 988.63,819.2 
					990.88,822.04 944.3,825.97 942.13,823.09 929.74,806.51 929.74,806.51 882.38,810.53 882.38,810.53 826.55,815.17 
					838.01,831.77 894.33,827.08 908.66,846.54 916.34,845.89 916.34,845.89 1020.92,837.25 1020.92,837.25 1051.8,834.65 
					1035.99,815.17 1091.26,810.48 				"/>
			</g>
			<g>
				<polygon class="st12" points="678.78,143.98 648.25,135.78 648.25,135.78 622.63,128.81 622.63,128.81 606.83,144.32 
					604.07,147.02 579.03,140.18 581.83,137.52 597.94,121.99 597.94,121.99 573.02,115.02 573.02,115.02 544.29,106.85 
					527.52,122.36 556.62,130.53 536.91,148.72 540.95,149.83 540.95,149.84 597.12,165 597.12,165 614.16,169.52 632.77,151.31 
					663.66,159.51 				"/>
			</g>
			<g>
				<polygon class="st12" points="1601.36,347.48 1567.69,355.97 1567.69,355.96 1538.62,363.19 1538.62,363.19 1562.34,378.75 
					1566.47,381.43 1537.34,388.49 1533.27,385.8 1509.84,370.26 1509.84,370.26 1480.06,377.49 1480.06,377.49 1444.64,385.95 
					1467.37,401.48 1503.17,393.02 1530.7,411.25 1535.54,410.11 1535.57,410.11 1601.22,394.42 1601.22,394.42 1620.39,389.75 
					1591.74,371.51 1625.74,363.04 				"/>
			</g>
			<g>
				<polygon class="st12" points="1350.58,773.34 1365.52,786.37 1315.53,791.85 1300.92,778.85 1256.11,783.79 1270.36,796.79 
					1288.59,813.16 1334.12,808.25 1384.59,802.73 1399.66,801.08 1429.57,797.79 1394.84,768.4 				"/>
			</g>
			<g>
				<polygon class="st12" points="1501.4,437.92 1508.05,451.53 1464.73,451.66 1458.49,438.06 1420.01,438.17 1425.83,451.78 
					1433.15,468.9 1472.52,468.8 1516.37,468.67 1529.55,468.62 1555.74,468.55 1539.88,437.79 				"/>
			</g>
			<g>
				<polygon class="st12" points="1018.87,268.23 1029.79,280.98 994.84,287.46 984.23,274.71 952.86,280.52 963.17,293.27 
					976.38,309.31 1008.42,303.52 1043.81,297.04 1054.34,295.11 1075.21,291.24 1049.6,262.41 				"/>
			</g>
			<g>
				<polygon class="st12" points="916.71,415.94 917.55,429.51 874.95,429.65 874.56,416.08 836.73,416.22 836.76,429.77 
					836.8,446.83 875.45,446.7 918.57,446.57 931.52,446.52 957.24,446.45 954.52,415.83 				"/>
			</g>
			<g>
				<polygon class="st12" points="390.88,270.43 372.85,270.52 340.3,270.68 339.23,270.69 323.82,307.58 358.51,307.43 
					366.24,287.5 384.53,287.43 				"/>
			</g>
			<g>
				<polygon class="st12" points="619.9,702.71 574.01,702.78 579.95,665.77 624.8,665.71 				"/>
			</g>
			<g>
				<polygon class="st12" points="754.18,401.48 687.3,398.95 684.47,336.94 757.69,343.91 				"/>
			</g>
			<g>
				<polygon class="st12" points="917.64,319.43 896.3,324.25 864.14,290.57 885.01,285.76 				"/>
			</g>
			<g>
				<polygon class="st12" points="851.63,320.27 828,320.86 825.06,283.86 847.98,283.26 				"/>
			</g>
			<g>
				<polygon class="st12" points="1636.27,486.97 1596.42,487.08 1576.42,449.84 1615.24,449.72 				"/>
			</g>
			<g>
				<polygon class="st12" points="882.92,394.58 845.73,394.7 845.41,357.66 881.58,357.52 				"/>
			</g>
			<g>
				<polygon class="st12" points="953.08,397.2 915.79,397.32 913.51,360.25 949.75,360.11 				"/>
			</g>
			<g>
				<polygon class="st12" points="751.29,449.23 689.19,445.23 689.13,408.96 753.54,412.2 				"/>
			</g>
			<g>
				<polygon class="st12" points="726.9,288.35 717.8,305.01 645.6,297.22 655.65,280.58 				"/>
			</g>
			<g>
				<polygon class="st12" points="312.48,425.74 274.43,425.86 289.85,388.97 326.83,388.83 				"/>
			</g>
			<g>
				<polygon class="st12" points="421.3,438.23 382.91,438.35 395.22,401.42 432.56,401.29 				"/>
			</g>
			<g>
				<polygon class="st12" points="397.96,344.85 362.23,345 376.05,308.07 410.73,307.92 				"/>
			</g>
			<g>
				<polygon class="st12" points="891.53,687.11 867.16,687.14 823.15,687.16 821.72,687.16 821.42,724.23 867.9,724.2 
					867.49,704.19 892.14,704.16 				"/>
			</g>
			<g>
				<polygon class="st12" points="923.4,166.79 915.79,150.13 985.28,141.27 987.75,158.74 				"/>
			</g>
			<g>
				<polygon class="st12" points="762.03,133.4 732.24,133.6 735.82,96.58 764.59,96.37 				"/>
			</g>
			<g>
				<polygon class="st12" points="433.29,135.64 403.49,135.87 418.6,98.95 447.38,98.74 				"/>
			</g>
			<g>
				<polygon class="st12" points="304.5,154.92 274.17,155.12 293.48,118.25 322.77,118.04 				"/>
			</g>
			<g>
				<polygon class="st12" points="261.78,154.31 210.53,155.12 229.85,118.25 280.05,117.43 				"/>
			</g>
			<g>
				<polygon class="st12" points="269.34,239.6 236.6,239.76 255.71,202.91 287.39,202.72 				"/>
			</g>
			<g>
				<polygon class="st12" points="217.1,236.54 184.36,236.71 193.91,221.33 225.59,221.15 				"/>
			</g>
			<g>
				<polygon class="st12" points="230,214.09 197.26,214.25 206.81,198.88 238.49,198.69 				"/>
			</g>
			<g>
				<polygon class="st12" points="226.46,327.16 191.24,327.31 210.33,290.45 244.51,290.28 				"/>
			</g>
			<g>
				<polygon class="st12" points="983.96,131.88 954.16,132.08 949.95,94.99 978.74,94.77 				"/>
			</g>
			<g>
				<polygon class="st12" points="856.78,100.83 850.22,109.13 838.08,124.11 837.69,124.6 896.57,140.2 908.46,124.72 
					876.81,116.31 883.21,108 				"/>
			</g>
			<g>
				<polygon class="st12" points="1701.65,832.62 1669.67,827.75 1677.12,819.48 1629.37,812.08 1621.75,820.36 1607.73,835.36 
					1607.25,835.84 1701.65,850.21 				"/>
			</g>
			<g>
				<polygon class="st12" points="659.17,92.21 651.18,100.52 636.49,115.54 636,116.03 691.53,131.29 706.04,115.78 676.21,107.54 
					684.04,99.23 				"/>
			</g>
			<g>
				<polygon class="st12" points="1047.19,331.77 1030.87,335.97 1001.1,343.52 1000.11,343.77 1040.26,376.77 1071.66,368.97 
					1049.43,351.16 1065.93,346.97 				"/>
			</g>
			<g>
				<polygon class="st12" points="559.1,414.21 521.38,414.35 530.07,377.38 566.74,377.23 				"/>
			</g>
			<g>
				<polygon class="st12" points="553.54,441.17 515.06,441.3 518.87,425.05 556.89,424.93 				"/>
			</g>
			<g>
				<polygon class="st12" points="596.4,325 577.53,325.09 543.44,325.22 542.32,325.24 533.64,362.21 569.9,362.06 574.01,342.1 
					593.12,342.03 				"/>
			</g>
			<g>
				<polygon class="st12" points="227.93,706.37 203.29,706.39 158.79,706.45 157.31,706.45 141.9,743.36 188.93,743.29 
					196.68,723.37 221.58,723.35 				"/>
			</g>
			<g>
				<polygon class="st12" points="591.77,383.02 628.61,382.89 618.84,444.72 580.25,444.83 				"/>
			</g>
			<g>
				<polygon class="st12" points="596.8,356.06 632.88,355.92 630.3,372.17 593.76,372.31 				"/>
			</g>
			<g>
				<polygon class="st12" points="141.8,449.25 110.23,516.83 145.39,516.83 174.65,451.98 				"/>
			</g>
			<g>
				<polygon class="st12" points="173.81,381.58 210.57,381.44 198.06,407.44 160.56,407.56 				"/>
			</g>
			<g>
				<polygon class="st12" points="140.88,756.38 140.88,772.58 177.55,772.54 183.87,756.33 				"/>
			</g>
			<g>
				<polygon class="st12" points="570.05,260.93 563.63,269.81 551.85,285.81 551.47,286.34 621.67,295.09 632.91,278.55 
					595.38,273.83 601.58,264.96 				"/>
			</g>
			<polygon class="st12" points="1438.51,175.82 1520.38,175.32 1510.24,158.94 1429.6,159.47 1424.96,150.96 1395.7,151.16 
				1421.44,200.86 1452.05,200.68 			"/>
			<polygon class="st12" points="1133.54,298.18 1072.02,328.67 1097.19,340.66 1158.79,310.14 1172.15,316.37 1193.85,305.21 
				1117.52,268.81 1095.91,279.98 			"/>
			<polygon class="st12" points="334.88,754.12 366.17,754.12 371.26,735.97 340.3,735.97 342.06,730.12 349.07,730.09 
				353.81,713.99 388.53,713.97 391.53,702.96 350.15,703.01 332.22,703.06 326.7,703.06 310.69,754.15 316.39,754.15 			"/>
			<polygon class="st12" points="1454.9,499.87 1440.4,499.92 1446.39,514.07 1461.02,514.04 1501.34,513.93 1494.8,499.78 
				1488.6,486.39 1449.1,486.49 			"/>
			<polygon class="st12" points="1539.95,493.21 1511.09,493.29 1520.85,513.88 1584.32,513.73 1579,503.43 1579.71,503.42 
				1567.76,480.38 1533.65,480.47 			"/>
			<polygon class="st12" points="1662.32,342.93 1616.02,343.11 1626.83,360.79 1673.77,360.6 			"/>
			<polygon class="st12" points="1506.22,131.89 1534.8,177.28 1573.2,177.03 1543.07,131.64 			"/>
			<polygon class="st12" points="455.41,259.1 440.91,304.07 483.54,303.88 496.46,258.89 			"/>
			<polygon class="st12" points="434,325.54 419.51,370.5 464.45,370.33 477.37,325.34 			"/>
			<polygon class="st12" points="1276.84,458.54 1230.03,497.96 1340.92,503.66 1324.93,458.4 			"/>
			<polygon class="st12" points="1349.39,203.82 1361.92,201.83 1335.54,174.06 1323.28,176.05 1289,181.63 1318.5,214 
				1353.8,208.44 			"/>
			<polygon class="st12" points="1063.49,128.72 1141.69,128.18 1136.95,111.86 1059.97,112.42 1058.11,103.94 1030.2,104.15 
				1039.57,153.7 1068.84,153.5 			"/>
			<polygon class="st12" points="1184.92,119.33 1163.64,119.46 1170.12,140.03 1217.09,139.73 1213.44,129.42 1213.97,129.42 
				1205.71,106.42 1180.68,106.59 			"/>
			<polygon class="st12" points="1300.42,97.36 1279.59,97.52 1288.49,118.11 1334.56,117.77 1329.64,107.48 1330.19,107.48 
				1319.18,84.44 1294.66,84.63 			"/>
			<polygon class="st12" points="973.76,220.86 981.32,232.73 1018.37,227.21 1001.44,201.5 983.32,204.26 983.15,203.97 
				942.33,210.15 950.87,224.29 			"/>
			<polygon class="st12" points="1164.11,186.82 1123.54,187.07 1128.11,204.66 1169.34,204.42 			"/>
			<polygon class="st12" points="1195.62,172.14 1210.45,217.39 1250.18,217.17 1233.78,171.9 			"/>
			<polygon class="st12" points="1213.13,235.15 1198.83,235.23 1207.84,264.01 1222.47,263.93 1263.18,263.74 1251.13,230.16 
				1211.58,230.37 			"/>
			<polygon class="st12" points="710.78,775.09 669.73,775.12 667.34,799.67 708.98,799.67 			"/>
			<polygon class="st12" points="649.38,778.88 614.01,778.92 610.8,803.5 646.71,803.48 			"/>
			<polygon class="st12" points="583.61,783.72 548.15,783.76 544.02,808.35 580,808.32 			"/>
			<polygon class="st12" points="517.48,788.61 481.91,788.63 476.84,813.16 512.92,813.16 			"/>
			<polygon class="st12" points="450.99,793.42 415.31,793.45 409.31,818 445.48,818 			"/>
			<polygon class="st12" points="384.13,798.26 348.34,798.29 341.4,822.82 377.67,822.82 			"/>
			<polygon class="st12" points="316.87,803.1 281.01,803.1 273.12,827.63 309.51,827.63 			"/>
			<polygon class="st12" points="249.27,807.95 213.3,807.95 204.47,832.47 240.95,832.44 			"/>
			<polygon class="st12" points="1128.01,562.71 1068.75,562.84 1069.89,570.23 1028.07,570.31 1030.15,586.47 1174.28,586.19 
				1170.65,570.01 1129.47,570.11 			"/>
			<polygon class="st12" points="976.3,752.77 911.3,758.04 916.07,765.24 869.99,768.92 880.22,784.72 1037.85,772.08 
				1026.24,756.33 981.35,759.97 			"/>
			<polygon class="st12" points="1604.77,618.81 1565.19,618.87 1574.2,638 1614.3,637.95 			"/>
			<polygon class="st12" points="1587.09,579.36 1577.52,560.05 1499.4,560.2 1457.84,560.3 1465.9,579.61 1496.36,652.53 
				1540.53,652.47 1508.02,579.51 			"/>
			<polygon class="st12" points="428.4,746.12 482.2,746.09 486.2,727.14 403.62,727.24 401.6,734.89 398.65,746.15 396.59,754.09 
				426.46,754.05 			"/>
			<polygon class="st12" points="1535.1,609.13 1596.68,609.01 1586.14,587.74 1525.42,587.85 			"/>
			<polygon class="st12" points="664.78,668.13 696.85,668.1 693.43,707.35 649.52,707.4 648.12,719.69 692.36,719.66 
				725.45,719.61 726.29,707.3 728.9,668.05 729.16,664.31 729.71,655.75 666.1,655.84 			"/>
			<polygon class="st12" points="1298.65,733.76 1303.64,739.28 1330.46,736.99 1334.93,736.62 1409.68,730.2 1396,715.93 
				1317.45,722.72 1325.42,731.5 			"/>
			<polygon class="st12" points="1617.62,753.57 1594.48,753.57 1575.45,711.36 1515.8,711.44 1535.4,758.78 1539.11,767.69 
				1543.54,778.33 1570.23,778.3 1565.66,767.67 1594.34,767.67 1599.12,778.3 1624.16,778.28 1629.07,778.28 1691.53,778.25 
				1683.25,761.75 1621.44,761.78 			"/>
			<polygon class="st12" points="1627.27,752.19 1678.45,752.12 1657.31,709.91 1607.39,709.95 			"/>
			<polygon class="st12" points="1242.93,544.48 1240.67,536.23 1161.14,536.45 1140.5,536.48 1142.24,544.7 1145.15,558.73 
				1166.11,558.7 1163,544.66 			"/>
		</g>
	</g>
</g>
</svg>
