<?xml version="1.0" encoding="utf-8"?>
<!-- Generator: Adobe Illustrator 26.4.0, SVG Export Plug-In . SVG Version: 6.00 Build 0)  -->
<svg version="1.1" id="Layer_1" xmlns="http://www.w3.org/2000/svg" xmlns:xlink="http://www.w3.org/1999/xlink" x="0px" y="0px"
	 viewBox="0 0 1800 1070" style="enable-background:new 0 0 1800 1070;" xml:space="preserve">
<style type="text/css">
	.st0{fill:#F7F7F7;}
	.st1{opacity:5.000000e-02;fill:url(#SVGID_1_);enable-background:new    ;}
	.st2{opacity:5.000000e-02;fill:url(#SVGID_00000018915459615336174850000018283952533448810916_);enable-background:new    ;}
	.st3{opacity:5.000000e-02;fill:url(#SVGID_00000093146879382574793950000003896057477210374569_);enable-background:new    ;}
	.st4{opacity:5.000000e-02;fill:url(#SVGID_00000150788135576151112090000017975714775099413394_);enable-background:new    ;}
</style>
<rect class="st0" width="1800" height="1070"/>
<g>
	
		<linearGradient id="SVGID_1_" gradientUnits="userSpaceOnUse" x1="-1078.6801" y1="-393.8604" x2="1572.02" y2="-746.2186" gradientTransform="matrix(1 0 0 1 0 670)">
		<stop  offset="4.607370e-04" style="stop-color:#FFFFFF"/>
		<stop  offset="1" style="stop-color:#E4FFFF"/>
	</linearGradient>
	<path class="st1" d="M-15.5-83L-167,4.4c-41.5,24-36.3,65.8,11.6,93.5l339.6,191.3c47.9,27.7,120.5,30.7,162,6.7l656.5-379H-15.5z"
		/>
	
		<linearGradient id="SVGID_00000110447487522574072380000016930721497861752254_" gradientUnits="userSpaceOnUse" x1="737.4172" y1="-244.8612" x2="2344.6699" y2="-458.5143" gradientTransform="matrix(1 0 0 1 0 670)">
		<stop  offset="4.607370e-04" style="stop-color:#FFFFFF"/>
		<stop  offset="1" style="stop-color:#E4FFFF"/>
	</linearGradient>
	
		<path style="opacity:5.000000e-02;fill:url(#SVGID_00000110447487522574072380000016930721497861752254_);enable-background:new    ;" d="
		M1981.2-1h-201.7l-465.6,268.8c-41.5,24-36.3,65.9,11.6,93.5l339.6,191.4c47.9,27.7,120.5,30.7,162,6.7l154.1-89L1981.2-1L1981.2-1
		z"/>
	
		<linearGradient id="SVGID_00000094602520445486815820000014695503833438942346_" gradientUnits="userSpaceOnUse" x1="515.1054" y1="295.9201" x2="3539.5005" y2="-106.1139" gradientTransform="matrix(1 0 0 1 0 670)">
		<stop  offset="4.607370e-04" style="stop-color:#FFFFFF"/>
		<stop  offset="1" style="stop-color:#E4FFFF"/>
	</linearGradient>
	
		<path style="opacity:5.000000e-02;fill:url(#SVGID_00000094602520445486815820000014695503833438942346_);enable-background:new    ;" d="
		M715.5,1131.3l285.5,160.9c3.7-1.8,7.3-3.8,10.8-5.8l965.4-557.4V440.5l-33.1-18.6c-47.9-27.7-120.5-30.7-162-6.7L703.9,1037.7
		C662.3,1061.7,667.5,1103.6,715.5,1131.3z"/>
	
		<linearGradient id="SVGID_00000150802701491558559280000014662365410967945653_" gradientUnits="userSpaceOnUse" x1="-705.3592" y1="-234.2232" x2="2626.4795" y2="-677.1257" gradientTransform="matrix(1 0 0 1 0 670)">
		<stop  offset="4.607370e-04" style="stop-color:#FFFFFF"/>
		<stop  offset="1" style="stop-color:#E4FFFF"/>
	</linearGradient>
	
		<path style="opacity:5.000000e-02;fill:url(#SVGID_00000150802701491558559280000014662365410967945653_);enable-background:new    ;" d="
		M1260.8,65.3c41.5-24,36.3-65.8-11.7-93.5L1134.3-93H516.6l-695.8,401.8v160.4L191,683L1260.8,65.3z"/>
</g>
</svg>
