<?xml version="1.0" encoding="utf-8"?>
<!-- Generator: Adobe Illustrator 26.0.3, SVG Export Plug-In . SVG Version: 6.00 Build 0)  -->
<svg version="1.1" id="Layer_1" xmlns="http://www.w3.org/2000/svg" xmlns:xlink="http://www.w3.org/1999/xlink" x="0px" y="0px"
	 viewBox="0 0 126 95" style="enable-background:new 0 0 126 95;" xml:space="preserve">
<style type="text/css">
	.st0{fill:#316DC3;}
	.st1{opacity:0.7;fill:url(#SVGID_1_);}
	.st2{fill:#26231F;}
	.st3{fill:#3F3932;}
	.st4{enable-background:new    ;}
	.st5{fill:#D8D8D8;}
	.st6{fill:#A8A8A8;}
	.st7{fill:#BEBEBE;}
	.st8{fill:#2E66B7;}
	.st9{opacity:0.3;fill:url(#SVGID_00000169547528409433609930000010848517375083388544_);}
	.st10{opacity:0.7;fill:url(#SVGID_00000052796940096680403650000014929188104257159858_);}
	.st11{opacity:0.4;fill:url(#SVGID_00000172417497908794994060000003594741414033433475_);}
	.st12{opacity:0.6;fill:url(#SVGID_00000154384148313590339780000003478417646205347255_);}
	.st13{opacity:0.2;fill:#2E66B7;}
	.st14{fill:#282523;}
	.st15{fill:#35312D;}
	.st16{fill:#F0FDFF;}
	.st17{fill:#E9751C;}
	.st18{opacity:0.3;fill:#2E66B7;}
	.st19{opacity:0.6;}
	.st20{fill:url(#SVGID_00000119825948298574056010000002831932587504075413_);}
	.st21{fill:#3677D6;}
	.st22{opacity:0.7;fill:url(#SVGID_00000132774550549010543640000013287435953290898566_);}
	.st23{fill:#991111;}
</style>
<g id="_x39_">
	<g>
		<g>
			<path class="st0" d="M46.2,38.3c-0.2-0.3-0.4-0.6-0.8-0.6c-0.1,0-0.2,0.1-0.3,0.1c-0.2,0.1-0.6,1.5-0.6,1.7
				c-0.2,1.1-0.1,1.9,0,2.2c0.1,0.3,0.3,0.5,0.6,0.7c0.5,0.2,1.2-0.1,1.5-0.5c0.3-0.5,0.6-1.1,0.4-1.7
				C46.8,39.6,46.6,38.9,46.2,38.3z"/>
			
				<linearGradient id="SVGID_1_" gradientUnits="userSpaceOnUse" x1="393.3218" y1="39.8523" x2="395.1824" y2="39.8523" gradientTransform="matrix(-1 0 0 1 440.354 0)">
				<stop  offset="0" style="stop-color:#377ADC"/>
				<stop  offset="1" style="stop-color:#408EFF"/>
			</linearGradient>
			<path class="st1" d="M45.2,37.9c0.1-0.1,0.2-0.1,0.3-0.1c0.3,0,0.6,0.3,0.8,0.6c0.4,0.6,0.6,1.3,0.8,1.9c0.1,0.6-0.1,1.2-0.4,1.7
				C46.5,42,45.1,39.6,45.2,37.9z"/>
		</g>
		<g>
			<polygon class="st2" points="48.1,68.3 62.7,79.3 67.1,75.1 65.7,71.2 60.7,66.9 			"/>
			<path class="st2" d="M109.3,50.8l5.1,4.4l0.1,0.4c0.8,2.3,0.3,4.7-1.3,6.5l-1.6,1.8L96.7,52.7L109.3,50.8z"/>
			<g>
				<g id="Axonometric_Cylinder_00000003085441545545748160000010911889837906129312_">
					<path class="st2" d="M52.9,71.6c1.7-0.5,3.1-0.3,4,0.4l3.2,2.4l-9.6,10.4l-3.2-2.4c-0.9-0.7-1.4-1.9-1.1-3.4
						C46.5,75.9,49.6,72.6,52.9,71.6z"/>
					<path id="Cylinder_face_00000010273403608167114870000005494881180030171557_" class="st3" d="M49.3,81.4
						c-0.5,3.1,1.8,4.9,5.1,3.9c3.3-1,6.3-4.3,6.8-7.4c0.4-3.1-1.9-4.9-5.1-3.9C52.8,75,49.8,78.3,49.3,81.4z"/>
				</g>
				<g class="st4">
					<path class="st5" d="M54.7,83.7c2.3-0.6,4.4-2.9,4.7-5.1c0.3-2.2-1.2-3.4-3.5-2.8c-2.3,0.6-4.4,2.9-4.7,5
						C50.9,83,52.4,84.3,54.7,83.7z"/>
					<path class="st6" d="M54.8,83.1c1.9-0.5,3.8-2.5,4.1-4.4c0.3-1.9-1-2.9-3-2.4c-1.9,0.5-3.8,2.5-4.1,4.3
						C51.5,82.6,52.8,83.7,54.8,83.1z"/>
					<g>
						<path class="st5" d="M54.8,81.5c1.1-0.3,2.1-1.4,2.3-2.5c0.2-1.1-0.6-1.7-1.7-1.4c-1.1,0.3-2.1,1.4-2.3,2.5
							C53,81.2,53.7,81.8,54.8,81.5z"/>
						<path class="st7" d="M52.3,80.1c0,0.1,0,0.1,0,0.2c-0.1,1.3,0.8,2,2.2,1.6c1.4-0.4,2.8-1.8,3-3.2c0.2-1.4-0.8-2.2-2.2-1.8
							c-0.8,0.2-1.5,0.7-2,1.3C52.8,78.8,52.4,79.5,52.3,80.1z M53.2,80.2c0-0.2,0.1-0.5,0.3-0.7c0.1-0.2,0.3-0.5,0.5-0.7
							c0.4-0.5,1-0.9,1.6-1c1.1-0.3,1.8,0.3,1.7,1.4c-0.2,1.1-1.2,2.2-2.3,2.5c-1.1,0.3-1.8-0.3-1.7-1.2
							C53.2,80.3,53.2,80.2,53.2,80.2z"/>
					</g>
				</g>
			</g>
			<g>
				<g id="Axonometric_Cylinder_00000029762871743401362840000007586616598551170707_">
					<path class="st2" d="M101.1,56.1c1.7-0.6,3.1-0.4,4,0.3l3.2,2.4l-9.5,11.1l-3.2-2.4c-0.9-0.7-1.4-1.9-1.1-3.5
						C94.9,60.7,97.9,57.2,101.1,56.1z"/>
					<path id="Cylinder_face_00000160913574935984301440000002099865380165203632_" class="st3" d="M97.6,66.4
						c-0.4,3.2,1.9,5,5.1,3.9c3.3-1.1,6.3-4.6,6.7-7.9c0.4-3.3-1.9-5-5.1-3.9C101.1,59.6,98.1,63.1,97.6,66.4z"/>
				</g>
				<g class="st4">
					<path class="st5" d="M103,68.6c2.2-0.7,4.3-3.1,4.7-5.4c0.3-2.3-1.2-3.5-3.5-2.8c-2.2,0.7-4.3,3.1-4.7,5.4
						C99.2,68,100.8,69.3,103,68.6z"/>
					<path class="st6" d="M103.1,68c1.9-0.6,3.7-2.7,4-4.6c0.3-2-1-3-3-2.4c-1.9,0.6-3.7,2.7-4,4.6C99.8,67.6,101.2,68.6,103.1,68z"
						/>
					<g>
						<path class="st5" d="M103.1,66.4c1.1-0.3,2.1-1.5,2.3-2.6c0.2-1.1-0.6-1.7-1.7-1.4c-1.1,0.3-2.1,1.5-2.3,2.6
							C101.3,66.1,102.1,66.7,103.1,66.4z"/>
						<path class="st7" d="M100.6,65c0,0.1,0,0.1,0,0.2c-0.1,1.3,0.8,2,2.2,1.6c1.4-0.4,2.7-2,3-3.4c0.2-1.4-0.8-2.2-2.2-1.8
							c-0.8,0.2-1.5,0.8-2,1.5C101.1,63.6,100.7,64.3,100.6,65z M101.5,65c0-0.3,0.1-0.5,0.2-0.8c0.1-0.3,0.3-0.5,0.5-0.7
							c0.4-0.5,1-0.9,1.6-1.1c1.1-0.3,1.8,0.3,1.7,1.4c-0.2,1.1-1.2,2.3-2.3,2.6c-1,0.3-1.8-0.2-1.7-1.2
							C101.5,65.1,101.5,65,101.5,65z"/>
					</g>
				</g>
			</g>
			<path class="st8" d="M20.5,53.5c2.1-2,5.8-4,8.8-5.1c8.3-3.1,11.8-5.1,19.5-9.1c2.7-1.4,7.6-4.4,10.3-5.7
				c1-0.5,23.8-8.4,29.8-10.6c1-0.4,2.1-0.2,3,0.3c4.7,2.9,16.5,11.4,18.8,13.7l1,1.6c0.9,2.3,3.1,5.5,3.4,5.7
				c1.7,1.3,1.9,2.9,2,3.6c0.1,0.7,0,1.5-0.1,2.2l-1.2,8.9c-0.1,0.7-0.4,1.4-0.8,1.9c-0.7,0.9-2,2.3-3.6,3c0.7-5.2-0.7-8.7-6.5-6.7
				c-5.5,1.9-8.3,6.9-9,12L62.7,79.3c0.6-4.9-0.7-8.3-6.5-6.6c-5.4,1.6-8.2,6.1-9,11c-2.1,0.6-1,0.2-1.7,0.4
				c-1.3,0.3-2.9,0.5-4.3,0.4c-6.9-0.4-13.2-4.9-18.2-8.9c-3.3-2.7-5.8-5.3-7-7.5c-0.5-0.9-0.6-1.9-0.5-2.9
				C16,62.7,16.9,56.9,20.5,53.5z"/>
			
				<linearGradient id="SVGID_00000043416006578078629490000007422571951199001776_" gradientUnits="userSpaceOnUse" x1="371.4216" y1="59.4992" x2="358.9037" y2="81.1808" gradientTransform="matrix(-1 0 0 1 440.354 0)">
				<stop  offset="0" style="stop-color:#408EFF"/>
				<stop  offset="1" style="stop-color:#326FC7"/>
			</linearGradient>
			<path style="opacity:0.3;fill:url(#SVGID_00000043416006578078629490000007422571951199001776_);" d="M51.4,75.5
				c-2.4,2.2-3.7,5.1-4.3,8.3c-2.1,0.6-1,0.2-1.7,0.4c-1.3,0.3-2.9,0.5-4.3,0.4c-3.5-0.2-6.9-1.5-10-3.2C38,83,44.7,80.9,51.4,75.5z
				 M109.5,56.8c2,0.9,2.4,3.6,2,7c1.5-0.7,2.8-2.1,3.6-3c0.5-0.5,0.7-1.2,0.8-1.9l0.6-4.5L109.5,56.8z M60.8,72.7
				c1.9,0.9,2.4,3.4,2,6.6L96,69.1c0.5-3.4,1.8-6.7,4.3-9.1L60.8,72.7z"/>
			
				<linearGradient id="SVGID_00000176026742932694389910000002546880013045981857_" gradientUnits="userSpaceOnUse" x1="331.1107" y1="100.6217" x2="388.2079" y2="37.2921" gradientTransform="matrix(-1 0 0 1 440.354 0)">
				<stop  offset="6.403940e-02" style="stop-color:#2E66B7"/>
				<stop  offset="1" style="stop-color:#408EFF"/>
			</linearGradient>
			<path style="opacity:0.7;fill:url(#SVGID_00000176026742932694389910000002546880013045981857_);" d="M21.3,68.2
				c-3.1-3-4.9-5.9-4.4-8.6c0.7-2.2,1.8-4.4,3.6-6.1c2.1-2,5.8-4,8.8-5.1c8.3-3.1,11.8-5.1,19.5-9.1c2.7-1.4,7.6-4.4,10.3-5.7
				c1-0.5,23.7-8.4,29.8-10.6c1-0.4,2.1-0.2,3,0.3c4.7,2.9,16.8,11.6,18.8,13.7c-3.6,1.1-10.4,3.5-17.1,5.7
				c-7.2,2.4-14.2,4.7-15.6,5.8c-3.2,2.6-14.4,14.1-14.4,14.1C60,65,51.5,69.3,47.8,71.5c-2.5,2.2-3.4,3.7-4.1,5.3
				c-0.3,0.7-7.8,0.9-16.3-4C25.2,71.5,23.1,70,21.3,68.2z"/>
			
				<linearGradient id="SVGID_00000050626999364084224390000010920954362514906254_" gradientUnits="userSpaceOnUse" x1="316.6683" y1="77.7823" x2="363.7076" y2="25.6084" gradientTransform="matrix(-1 0 0 1 440.354 0)">
				<stop  offset="0" style="stop-color:#19417B"/>
				<stop  offset="0.1831" style="stop-color:#1F529E"/>
				<stop  offset="0.4364" style="stop-color:#2567C8"/>
				<stop  offset="0.6659" style="stop-color:#2A76E6"/>
				<stop  offset="0.8615" style="stop-color:#2D80F8"/>
				<stop  offset="1" style="stop-color:#2E83FF"/>
			</linearGradient>
			<path style="opacity:0.4;fill:url(#SVGID_00000050626999364084224390000010920954362514906254_);" d="M60.3,33.8
				c-0.2-0.3-0.1-0.7,0.3-0.8c5.1-1.9,23.1-8.2,28.4-10.1c1-0.4,2.1-0.2,3,0.3c4.7,2.9,16.8,11.6,18.8,13.7
				c-10.4,3.6-22.6,7.4-29.9,10.2c-0.7,0.3-1.6,0.2-2.3-0.2C74.9,44.9,63.9,38.7,60.3,33.8z"/>
			
				<linearGradient id="SVGID_00000119091466809787324880000006673116951682381979_" gradientUnits="userSpaceOnUse" x1="395.0159" y1="54.8451" x2="409.004" y2="68.4641" gradientTransform="matrix(-1 0 0 1 440.354 0)">
				<stop  offset="0" style="stop-color:#19417B"/>
				<stop  offset="0.1831" style="stop-color:#1F529E"/>
				<stop  offset="0.4364" style="stop-color:#2567C8"/>
				<stop  offset="0.6659" style="stop-color:#2A76E6"/>
				<stop  offset="0.8615" style="stop-color:#2D80F8"/>
				<stop  offset="1" style="stop-color:#2E83FF"/>
			</linearGradient>
			<path style="opacity:0.6;fill:url(#SVGID_00000119091466809787324880000006673116951682381979_);" d="M46.3,72.3
				c-15.6-0.1-28.8-14.2-26.5-18.2c0.2-0.2,0.4-0.5,0.7-0.7c2.1-2,5.8-4,8.8-5.1c3.8-1.4,6.7-2.6,9.4-3.9c8,12.9,25,18.2,25,18.2
				C60,65,51.5,69.3,47.8,71.5C47.5,71.8,46.5,72.3,46.3,72.3z"/>
		</g>
		<path class="st13" d="M60.4,67.4l7.5-7.5c0,0.1,0.1,0.1,0.1,0.2l-7.5,7.5l-0.7,4.9c-0.1,0-0.2,0-0.2,0L60.4,67.4
			C60.4,67.4,60.4,67.4,60.4,67.4z"/>
		<path class="st13" d="M104.6,46c0.1,0,0.1,0,0.1,0.1c0.4,2.2,0.2,8.3,0.1,11c-0.1,0-0.2,0.1-0.2,0.1c0.1-2.6,0.3-8.9-0.1-11.1
			C104.5,46.1,104.6,46,104.6,46z"/>
		<path class="st13" d="M85.8,47.7c0.1,0,0.2-0.1,0.2-0.1c0.1,3.2,0.1,12.3-1.4,23.7l11.7-3.8c0,0.1,0,0.2-0.1,0.3l-11.7,3.8
			l-21.7,6.7c0-0.1,0-0.2,0-0.2l21.5-6.7C85.9,60,85.9,51,85.8,47.7z"/>
		<path class="st14" d="M57.6,60.5c-6.8-2.9-13-7.9-18-13.6c-0.6-0.6-0.4-1.6,0.4-2l19.7-10.6c3.6,3.9,9.7,8.2,17.7,12.8
			c-5.1,5.8-10.9,11-15.2,13.3C60.5,61.4,59.3,61.2,57.6,60.5z"/>
		<path class="st15" d="M61.3,58.6c0.2,0,0.4,0.1,0.6,0.1c1.4,0.1,2.6-0.6,3.5-1.4c2.5-2,7.9-6.5,10.2-9.2c0.2-0.3,0.2-0.7-0.2-0.9
			c-7.4-4.4-12.7-8.2-16-11.5c-0.3-0.3-0.7-0.3-1-0.2l-15.3,8.4c-0.3,0.1-0.4,0.4-0.5,0.6c0,0.3,0,0.5,0.2,0.7
			c5.4,6.1,10.9,10.2,17.2,12.9C60.4,58.4,60.9,58.6,61.3,58.6L61.3,58.6z"/>
		<path class="st14" d="M77.6,50.2c1.1-1.1,2.5-2,4.1-2.5c2.6-0.9,23.3-8.3,25.6-8.5c0.9-0.1,2.7,3.8,3.9,7.7
			c0,0-39.2,13.4-44.3,14.9c-0.3,0.1-0.7-0.3-0.4-0.5C68.1,59.6,74.5,53.3,77.6,50.2z"/>
		<path class="st15" d="M114,45.7c0.1,0.1,0.2,0.2,0.3,0.2c0.6-0.2,1.6-0.6,1.5-1.1c0,0-4.1-6.8-4.5-7c-0.2,0.1-1.3,0.4-1.2,0.7
			C110,38.5,112.1,41.9,114,45.7z"/>
		<path class="st16" d="M33.8,70.7c0.9-0.4,5.6,0.4,13.3-0.3c1.2,0.1,0.2,2.6-0.7,3.6c-0.4,0.4-0.8,0.8-1.2,1.2
			c-0.3,0.2-0.6,0.3-0.9,0.3c-0.4,0.1-0.8,0.1-1.2,0.1c-3.7-0.1-7.4-0.8-10.3-2C31.8,73,33,71,33.8,70.7z"/>
		<path class="st17" d="M45.3,74.8c0.9-1.3,1.9-2.9,1.9-4.5c1.1,0,2.1,0.2,2.1,0.9c0,1.4-2.8,3.4-4.3,4C45,75.1,45.2,75,45.3,74.8z"
			/>
		<path class="st16" d="M19.9,55.9c0-0.3,0.1-0.7,0.2-1c0.2-0.8,0.5-1.4,1.2-2.1c-0.8,0.5-1.5,1.2-2.2,2c-0.7,0.8-1.4,1.8-1.5,2.7
			c-0.2,1.3,0,2.4,0.3,2.7c0.2,0.2,0.7-0.3,0.9-0.5C19.9,58.4,19.7,57.3,19.9,55.9z"/>
		<path class="st8" d="M31.4,69.5c-0.5,0.9-1.9,2.9-2.6,2.6c-3.2-1.2-9-6.5-9.7-8.2c-0.2-0.6,1.5-3.8,1.9-3.8
			c1.2,1.7,3.1,3.7,5.2,5.3C28.8,67.6,31.6,69.2,31.4,69.5z"/>
		<path class="st15" d="M26.1,65.5c1.5,1.2,3.1,2.2,4.2,2.9c0.8,0.5,1.3,0.9,1.1,1.2c-0.3,0.8-1.5,2.2-2.2,2.6
			c-3.2-1.2-9-6.5-9.7-8.2c-0.2-0.5,1-2.8,1.6-3.5C22.4,62,24.1,63.9,26.1,65.5z"/>
		<path class="st18" d="M46.3,65.1c4.6-1.8,8.4-4.2,8.4-4.2s-0.7,0.8-2,1.7c-1.3,1-3.3,2.2-5.7,3.1c-2.3,0.9-4.9,1.6-7,1.9
			c-2.1,0.3-3.6,0.3-3.6,0.3s1.4-0.2,3.3-0.6C41.6,66.8,44,66,46.3,65.1z"/>
		<g class="st19">
			
				<linearGradient id="SVGID_00000077302194673023472630000013148364214489989780_" gradientUnits="userSpaceOnUse" x1="402.0084" y1="53.384" x2="417.0765" y2="53.384" gradientTransform="matrix(-1 0 0 1 440.354 0)">
				<stop  offset="0" style="stop-color:#102441"/>
				<stop  offset="0.1402" style="stop-color:#1A3A68"/>
				<stop  offset="0.3554" style="stop-color:#27589D"/>
				<stop  offset="0.5564" style="stop-color:#326FC8"/>
				<stop  offset="0.7371" style="stop-color:#3A80E6"/>
				<stop  offset="0.891" style="stop-color:#3E8AF8"/>
				<stop  offset="1" style="stop-color:#408EFF"/>
			</linearGradient>
			<path style="fill:url(#SVGID_00000077302194673023472630000013148364214489989780_);" d="M35.1,49.6c1.8-0.6,3.2-0.9,3.2-0.9
				s-4.7,1.8-8.5,4.1c-1.9,1.1-3.7,2.4-4.8,3.4c-1.2,1-1.8,1.8-1.8,1.8s0.3-0.9,1.2-2c0.9-1.2,2.6-2.5,4.5-3.7
				C31,51.1,33.3,50.2,35.1,49.6z"/>
		</g>
		<path class="st14" d="M70,34l11.3,8.2c0.7,0.5,1.8,0.7,2.6,0.4l5.2-1.8c0.8-0.3,0.9-0.9,0.2-1.4L78,31.2c-0.7-0.5-1.8-0.7-2.6-0.4
			l-5.2,1.8C69.4,32.9,69.3,33.5,70,34z"/>
		<path class="st15" d="M70.6,34.3l10.8,7.8c0.6,0.5,1.7,0.6,2.5,0.4l4.6-1.6c0.7-0.3,0.8-0.8,0.2-1.3l-10.8-7.8
			c-0.6-0.5-1.7-0.6-2.5-0.4L70.7,33C70,33.3,69.9,33.9,70.6,34.3z"/>
		<path class="st21" d="M80.6,60.4l3.2-1.1c0.2-0.1,0.3-0.2,0.4-0.4l0.1-0.4c0-0.2-0.1-0.2-0.3-0.2l-3.2,1.1
			c-0.2,0.1-0.3,0.2-0.4,0.4l-0.1,0.4C80.3,60.4,80.4,60.5,80.6,60.4z"/>
		<path class="st21" d="M99.8,54l3.2-1.1c0.2-0.1,0.3-0.2,0.4-0.4l0.1-0.4c0-0.2-0.1-0.2-0.3-0.2l-3.2,1.1c-0.2,0.1-0.3,0.2-0.4,0.4
			l-0.1,0.4C99.5,54,99.6,54.1,99.8,54z"/>
		<g>
			<path class="st0" d="M76.3,60.2c0.4,0.6-0.3,2.1-1.1,2.3c-0.2,0-0.3,0-0.5,0c-1.7-0.1-3.9-0.5-4.6-1.4c-0.2-0.3-0.2-0.4,0-0.7
				c0.2-0.4,1-2.2,1.5-2.3C72,57.9,76,59.8,76.3,60.2z"/>
			
				<linearGradient id="SVGID_00000017511511928952881220000001203890756707793073_" gradientUnits="userSpaceOnUse" x1="363.9577" y1="59.2911" x2="369.6135" y2="59.2911" gradientTransform="matrix(-1 0 0 1 440.354 0)">
				<stop  offset="0" style="stop-color:#377ADC"/>
				<stop  offset="1" style="stop-color:#408EFF"/>
			</linearGradient>
			<path style="opacity:0.7;fill:url(#SVGID_00000017511511928952881220000001203890756707793073_);" d="M70.7,59.1
				c0.3-0.5,0.6-1,0.9-1.1c0.4-0.1,4.4,1.8,4.7,2.2c0.1,0.1,0.1,0.3,0.1,0.4C74.2,60.5,71.8,59.7,70.7,59.1z"/>
			<path class="st14" d="M68.4,60.1c0.1,0,1.6,0,1.8,0c0.8,0,1.8,1.6,1.4,1.9c-0.1,0.1-3.7-0.3-3.8-0.4C67.2,61.5,67.6,60,68.4,60.1
				z"/>
		</g>
		<path class="st17" d="M113.1,59.5l1.1-0.4c0.2-0.1,0.3-0.2,0.3-0.4l0-0.1c0-0.1-0.1-0.2-0.3-0.2l-1.1,0.4
			c-0.2,0.1-0.3,0.2-0.3,0.4l0,0.1C112.9,59.5,113,59.6,113.1,59.5z"/>
		<path class="st17" d="M63.9,75.5l1.1-0.3c0.2-0.1,0.3-0.2,0.3-0.3l0-0.1c0-0.1-0.1-0.2-0.3-0.2L64,74.9c-0.2,0.1-0.3,0.2-0.3,0.3
			l0,0.1C63.6,75.5,63.8,75.6,63.9,75.5z"/>
		<path class="st23" d="M117.1,48.9c0,0,0.4,2.5-0.7,5.6c-0.8,0-0.7-3.2-0.6-4.5c0-0.3,0.2-0.6,0.5-0.7L117.1,48.9z"/>
		<polygon class="st5" points="19.7,68.8 25.4,73.6 25.1,75.5 19.4,70.7 		"/>
		<path class="st15" d="M39.7,83c-3.4-0.3-6.2-1.5-7.4-2.1c-0.5-0.3-0.3-0.8-0.1-1.3c0.1-0.2,0.3-0.4,0.6-0.3
			c1.2,0.3,3.6,0.9,7.4,0.6c0.4,0,0.7,0.3,0.7,0.6l-0.3,2C40.4,82.8,40.1,83,39.7,83z"/>
		<path class="st15" d="M16.2,61.6c0,0.4-0.1,1.2,0.1,2.6c0,0.3,0,0.6,0,0.8c-0.1,0.4-0.2,1.2-0.2,1.6c0,0.2-0.1,0.1-0.1,0.1
			c-0.2-0.5-0.4-1.1-0.4-1.5c0,0,0-0.1,0-0.1C15.7,64.2,15.9,63,16.2,61.6z"/>
	</g>
</g>
</svg>
