<?xml version="1.0" encoding="utf-8"?>
<!-- Generator: Adobe Illustrator 26.0.3, SVG Export Plug-In . SVG Version: 6.00 Build 0)  -->
<svg version="1.1" id="Layer_2" xmlns="http://www.w3.org/2000/svg" xmlns:xlink="http://www.w3.org/1999/xlink" x="0px" y="0px"
	 viewBox="0 0 65.88 75" style="enable-background:new 0 0 65.88 75;" xml:space="preserve">
<style type="text/css">
	.st0{fill:url(#SVGID_1_);}
	.st1{fill:url(#SVGID_00000070094528222619269380000009282181275239231643_);}
	.st2{fill:url(#SVGID_00000085934248290856449140000000059461035284043672_);}
	.st3{fill:url(#SVGID_00000113338561269612241180000006003235578517585795_);}
	.st4{filter:url(#Adobe_OpacityMaskFilter);}
	.st5{filter:url(#Adobe_OpacityMaskFilter_00000008138633486439185780000010101389364640859304_);}
	
		.st6{mask:url(#SVGID_00000150094700245075629640000005522497539529019061_);fill:url(#SVGID_00000116918575131943323090000014904683886846690225_);}
	.st7{opacity:0.3;fill:url(#SVGID_00000156567534222222481650000008222525010781951677_);}
	.st8{opacity:0.5;}
	.st9{filter:url(#Adobe_OpacityMaskFilter_00000066510572100983880440000001956889506648462494_);}
	.st10{filter:url(#Adobe_OpacityMaskFilter_00000012445752031769513340000017898484382370445493_);}
	
		.st11{mask:url(#SVGID_00000067950052734032667190000002967611089641969042_);fill:url(#SVGID_00000088117483958721648860000009139107279347202450_);}
	.st12{fill:url(#SVGID_00000052815818005051432180000016445550320629183149_);}
	.st13{filter:url(#Adobe_OpacityMaskFilter_00000148628127934887959150000014757223114078884532_);}
	.st14{filter:url(#Adobe_OpacityMaskFilter_00000053513722608655172150000006760428608698147719_);}
	
		.st15{mask:url(#SVGID_00000096055417066308295070000003262801102713570236_);fill:url(#SVGID_00000001653535273527971630000003429391485874775691_);}
	.st16{fill:url(#SVGID_00000006682715957549273450000012922383704497223850_);}
	.st17{filter:url(#Adobe_OpacityMaskFilter_00000171711931846136267910000015307506808916130479_);}
	.st18{filter:url(#Adobe_OpacityMaskFilter_00000147193864103691218540000005578593865350124716_);}
	
		.st19{mask:url(#SVGID_00000098902456442024459440000006187281835890009989_);fill:url(#SVGID_00000068657798442079686070000001643073573736064406_);}
	.st20{fill:url(#SVGID_00000165228566523234408950000012656277572398774676_);}
	.st21{filter:url(#Adobe_OpacityMaskFilter_00000113313894116753400890000005046675823595348133_);}
	.st22{filter:url(#Adobe_OpacityMaskFilter_00000180356285958034195260000004397720038688290448_);}
	
		.st23{mask:url(#SVGID_00000099621974080217397840000017181952041164177289_);fill:url(#SVGID_00000026865275808956480150000011473999166492022457_);}
	.st24{fill:url(#SVGID_00000021080329684995578320000007568268595034055614_);}
	.st25{fill:#C87153;}
	.st26{fill:#E08C61;}
	.st27{fill:#F4B78E;}
	.st28{fill:#F5DCD5;}
	.st29{fill:#F2A57F;}
	.st30{fill:#2F1806;}
	.st31{fill:#FFFFFF;}
	.st32{fill:#F27D7F;}
	.st33{fill:#F4A485;}
	.st34{fill:#DF89B9;}
</style>
<g>
	<g>
		<linearGradient id="SVGID_1_" gradientUnits="userSpaceOnUse" x1="20.1435" y1="-2.9658" x2="49.7971" y2="66.0359">
			<stop  offset="0" style="stop-color:#FFFFFF"/>
			<stop  offset="1" style="stop-color:#8C3E02"/>
		</linearGradient>
		<path class="st0" d="M32.69,66.62c-0.78,0-1.52-0.35-2.01-0.96C25.59,59.33,8.98,37.82,8.98,26.89
			c0-13.08,10.64-23.72,23.71-23.72c13.08,0,23.71,10.64,23.71,23.72c0,10.93-16.61,32.44-21.71,38.77
			C34.21,66.27,33.48,66.62,32.69,66.62z M32.69,8.53c-10.12,0-18.36,8.24-18.36,18.36c0,10.12,8.24,18.36,18.36,18.36
			c10.12,0,18.36-8.24,18.36-18.36C51.06,16.77,42.82,8.53,32.69,8.53z"/>
		
			<linearGradient id="SVGID_00000088122836014362057630000006880324959763593368_" gradientUnits="userSpaceOnUse" x1="19.9059" y1="-2.8638" x2="49.5597" y2="66.1383">
			<stop  offset="0" style="stop-color:#FFFFFF"/>
			<stop  offset="1" style="stop-color:#8C3E02"/>
		</linearGradient>
		<path style="fill:url(#SVGID_00000088122836014362057630000006880324959763593368_);" d="M32.69,42.54
			c-8.63,0-15.65-7.02-15.65-15.65c0-8.63,7.02-15.65,15.65-15.65c8.63,0,15.65,7.02,15.65,15.65
			C48.34,35.52,41.32,42.54,32.69,42.54z"/>
	</g>
	
		<linearGradient id="SVGID_00000131341881570040973240000015144840017422920583_" gradientUnits="userSpaceOnUse" x1="20.2788" y1="5.6731" x2="53.5169" y2="62.0069">
		<stop  offset="0" style="stop-color:#FDCF9C"/>
		<stop  offset="1" style="stop-color:#F37920"/>
	</linearGradient>
	<path style="fill:url(#SVGID_00000131341881570040973240000015144840017422920583_);" d="M32.69,3.59
		c-12.87,0-23.3,10.43-23.3,23.3c0,10.75,16.26,31.86,21.62,38.51c0.87,1.08,2.5,1.08,3.37,0c5.35-6.65,21.62-27.76,21.62-38.51
		C55.99,14.02,45.56,3.59,32.69,3.59z M32.69,45.67c-10.37,0-18.78-8.41-18.78-18.78c0-10.37,8.41-18.78,18.78-18.78
		c10.37,0,18.78,8.41,18.78,18.78C51.47,37.26,43.06,45.67,32.69,45.67z"/>
	
		<linearGradient id="SVGID_00000074401837325694349170000006526779897738744711_" gradientUnits="userSpaceOnUse" x1="20.2012" y1="5.7191" x2="53.4392" y2="62.0527">
		<stop  offset="0" style="stop-color:#FDCF9C"/>
		<stop  offset="1" style="stop-color:#F37920"/>
	</linearGradient>
	<path style="fill:url(#SVGID_00000074401837325694349170000006526779897738744711_);" d="M47.93,26.89
		c0,8.41-6.82,15.23-15.23,15.23c-8.41,0-15.23-6.82-15.23-15.23c0-8.41,6.82-15.23,15.23-15.23
		C41.11,11.66,47.93,18.48,47.93,26.89z"/>
	<defs>
		<filter id="Adobe_OpacityMaskFilter" filterUnits="userSpaceOnUse" x="18.03" y="69.56" width="29.33" height="3.71">
			<feFlood  style="flood-color:white;flood-opacity:1" result="back"/>
			<feBlend  in="SourceGraphic" in2="back" mode="normal"/>
		</filter>
	</defs>
	
		<mask maskUnits="userSpaceOnUse" x="18.03" y="69.56" width="29.33" height="3.71" id="SVGID_00000183944712730051652590000010186545982490111395_">
		<g class="st4">
			<defs>
				
					<filter id="Adobe_OpacityMaskFilter_00000164512975549923670360000016144406859777513624_" filterUnits="userSpaceOnUse" x="18.03" y="69.56" width="29.33" height="3.71">
					<feFlood  style="flood-color:white;flood-opacity:1" result="back"/>
					<feBlend  in="SourceGraphic" in2="back" mode="normal"/>
				</filter>
			</defs>
			
				<mask maskUnits="userSpaceOnUse" x="18.03" y="69.56" width="29.33" height="3.71" id="SVGID_00000183944712730051652590000010186545982490111395_">
				<g style="filter:url(#Adobe_OpacityMaskFilter_00000164512975549923670360000016144406859777513624_);">
				</g>
			</mask>
			
				<radialGradient id="SVGID_00000120547501104484713100000003616474202334881211_" cx="32.6934" cy="1425.1909" r="14.6666" gradientTransform="matrix(1 0 0 0.1264 0 -108.7314)" gradientUnits="userSpaceOnUse">
				<stop  offset="0" style="stop-color:#FFFFFF"/>
				<stop  offset="1" style="stop-color:#000000"/>
			</radialGradient>
			
				<path style="mask:url(#SVGID_00000183944712730051652590000010186545982490111395_);fill:url(#SVGID_00000120547501104484713100000003616474202334881211_);" d="
				M47.36,71.41c0,1.02-6.57,1.85-14.66,1.85c-8.1,0-14.66-0.83-14.66-1.85c0-1.02,6.57-1.85,14.66-1.85
				C40.79,69.56,47.36,70.39,47.36,71.41z"/>
		</g>
	</mask>
	
		<radialGradient id="SVGID_00000130618031247010825930000013575214519311564959_" cx="32.6934" cy="1425.1909" r="14.6666" gradientTransform="matrix(1 0 0 0.1264 0 -108.7314)" gradientUnits="userSpaceOnUse">
		<stop  offset="0" style="stop-color:#231F20"/>
		<stop  offset="1" style="stop-color:#231F20"/>
	</radialGradient>
	<path style="opacity:0.3;fill:url(#SVGID_00000130618031247010825930000013575214519311564959_);" d="M47.36,71.41
		c0,1.02-6.57,1.85-14.66,1.85c-8.1,0-14.66-0.83-14.66-1.85c0-1.02,6.57-1.85,14.66-1.85C40.79,69.56,47.36,70.39,47.36,71.41z"/>
	<g class="st8">
		<defs>
			
				<filter id="Adobe_OpacityMaskFilter_00000042712269086296913850000016314744500186018990_" filterUnits="userSpaceOnUse" x="9.39" y="3.59" width="34.85" height="46.24">
				<feFlood  style="flood-color:white;flood-opacity:1" result="back"/>
				<feBlend  in="SourceGraphic" in2="back" mode="normal"/>
			</filter>
		</defs>
		
			<mask maskUnits="userSpaceOnUse" x="9.39" y="3.59" width="34.85" height="46.24" id="SVGID_00000113348688874921969360000011835615908991879583_">
			<g style="filter:url(#Adobe_OpacityMaskFilter_00000042712269086296913850000016314744500186018990_);">
				<defs>
					
						<filter id="Adobe_OpacityMaskFilter_00000026852710177089222520000007240655804425803186_" filterUnits="userSpaceOnUse" x="9.39" y="3.59" width="34.85" height="46.24">
						<feFlood  style="flood-color:white;flood-opacity:1" result="back"/>
						<feBlend  in="SourceGraphic" in2="back" mode="normal"/>
					</filter>
				</defs>
				
					<mask maskUnits="userSpaceOnUse" x="9.39" y="3.59" width="34.85" height="46.24" id="SVGID_00000113348688874921969360000011835615908991879583_">
					<g style="filter:url(#Adobe_OpacityMaskFilter_00000026852710177089222520000007240655804425803186_);">
					</g>
				</mask>
				
					<linearGradient id="SVGID_00000020389559349712340150000013533256411630513557_" gradientUnits="userSpaceOnUse" x1="53.0708" y1="44.3264" x2="19.1607" y2="18.6036">
					<stop  offset="0" style="stop-color:#FFFFFF"/>
					<stop  offset="1" style="stop-color:#000000"/>
				</linearGradient>
				
					<path style="mask:url(#SVGID_00000113348688874921969360000011835615908991879583_);fill:url(#SVGID_00000020389559349712340150000013533256411630513557_);" d="
					M13.92,26.89c0-10.37,8.41-18.78,18.78-18.78c4.35,0,8.35,1.5,11.54,3.98c0.04-1.94-0.07-3.82-0.34-5.64
					c-3.32-1.82-7.14-2.86-11.19-2.86c-12.87,0-23.3,10.43-23.3,23.3c0,5.9,4.9,14.91,10.2,22.95c2.76-1.2,5.46-2.84,8.02-4.88
					C19.72,42.74,13.92,35.5,13.92,26.89z"/>
			</g>
		</mask>
		
			<linearGradient id="SVGID_00000030463755146191960050000004969538853079127967_" gradientUnits="userSpaceOnUse" x1="53.0708" y1="44.3264" x2="19.1607" y2="18.6036">
			<stop  offset="0" style="stop-color:#FFFFFF"/>
			<stop  offset="1" style="stop-color:#FFFFFF"/>
		</linearGradient>
		<path style="fill:url(#SVGID_00000030463755146191960050000004969538853079127967_);" d="M13.92,26.89
			c0-10.37,8.41-18.78,18.78-18.78c4.35,0,8.35,1.5,11.54,3.98c0.04-1.94-0.07-3.82-0.34-5.64c-3.32-1.82-7.14-2.86-11.19-2.86
			c-12.87,0-23.3,10.43-23.3,23.3c0,5.9,4.9,14.91,10.2,22.95c2.76-1.2,5.46-2.84,8.02-4.88C19.72,42.74,13.92,35.5,13.92,26.89z"/>
		<defs>
			
				<filter id="Adobe_OpacityMaskFilter_00000019643403842786337080000000894628534888820649_" filterUnits="userSpaceOnUse" x="9.39" y="3.59" width="34.85" height="46.24">
				<feFlood  style="flood-color:white;flood-opacity:1" result="back"/>
				<feBlend  in="SourceGraphic" in2="back" mode="normal"/>
			</filter>
		</defs>
		
			<mask maskUnits="userSpaceOnUse" x="9.39" y="3.59" width="34.85" height="46.24" id="SVGID_00000141446105177220763000000013378692361123374223_">
			<g style="filter:url(#Adobe_OpacityMaskFilter_00000019643403842786337080000000894628534888820649_);">
				<defs>
					
						<filter id="Adobe_OpacityMaskFilter_00000085237892335055504830000011126290426075626888_" filterUnits="userSpaceOnUse" x="9.39" y="3.59" width="34.85" height="46.24">
						<feFlood  style="flood-color:white;flood-opacity:1" result="back"/>
						<feBlend  in="SourceGraphic" in2="back" mode="normal"/>
					</filter>
				</defs>
				
					<mask maskUnits="userSpaceOnUse" x="9.39" y="3.59" width="34.85" height="46.24" id="SVGID_00000141446105177220763000000013378692361123374223_">
					<g style="filter:url(#Adobe_OpacityMaskFilter_00000085237892335055504830000011126290426075626888_);">
					</g>
				</mask>
				
					<linearGradient id="SVGID_00000027597545520053955150000013679570617135562917_" gradientUnits="userSpaceOnUse" x1="166.1917" y1="38.9318" x2="132.2805" y2="13.2083" gradientTransform="matrix(0.8666 0.499 -0.499 0.8666 -71.0525 -34.5468)">
					<stop  offset="0" style="stop-color:#FFFFFF"/>
					<stop  offset="1" style="stop-color:#000000"/>
				</linearGradient>
				
					<path style="mask:url(#SVGID_00000141446105177220763000000013378692361123374223_);fill:url(#SVGID_00000027597545520053955150000013679570617135562917_);" d="
					M13.92,26.89c0-10.37,8.41-18.78,18.78-18.78c4.35,0,8.35,1.5,11.54,3.98c0.04-1.94-0.07-3.82-0.34-5.64
					c-3.32-1.82-7.14-2.86-11.19-2.86c-12.87,0-23.3,10.43-23.3,23.3c0,5.9,4.9,14.91,10.2,22.95c2.76-1.2,5.46-2.84,8.02-4.88
					C19.72,42.74,13.92,35.5,13.92,26.89z"/>
			</g>
		</mask>
		
			<linearGradient id="SVGID_00000074441888054124049060000004432854878277109913_" gradientUnits="userSpaceOnUse" x1="166.1917" y1="38.9318" x2="132.2805" y2="13.2083" gradientTransform="matrix(0.8666 0.499 -0.499 0.8666 -71.0525 -34.5468)">
			<stop  offset="0" style="stop-color:#FFFFFF"/>
			<stop  offset="1" style="stop-color:#FFFFFF"/>
		</linearGradient>
		<path style="fill:url(#SVGID_00000074441888054124049060000004432854878277109913_);" d="M13.92,26.89
			c0-10.37,8.41-18.78,18.78-18.78c4.35,0,8.35,1.5,11.54,3.98c0.04-1.94-0.07-3.82-0.34-5.64c-3.32-1.82-7.14-2.86-11.19-2.86
			c-12.87,0-23.3,10.43-23.3,23.3c0,5.9,4.9,14.91,10.2,22.95c2.76-1.2,5.46-2.84,8.02-4.88C19.72,42.74,13.92,35.5,13.92,26.89z"/>
		<defs>
			
				<filter id="Adobe_OpacityMaskFilter_00000111911969207837200940000015781631136493731726_" filterUnits="userSpaceOnUse" x="17.46" y="11.66" width="26.41" height="30.36">
				<feFlood  style="flood-color:white;flood-opacity:1" result="back"/>
				<feBlend  in="SourceGraphic" in2="back" mode="normal"/>
			</filter>
		</defs>
		
			<mask maskUnits="userSpaceOnUse" x="17.46" y="11.66" width="26.41" height="30.36" id="SVGID_00000034060067586814273350000011109907283846134703_">
			<g style="filter:url(#Adobe_OpacityMaskFilter_00000111911969207837200940000015781631136493731726_);">
				<defs>
					
						<filter id="Adobe_OpacityMaskFilter_00000032608913007728364270000008937348769822440599_" filterUnits="userSpaceOnUse" x="17.46" y="11.66" width="26.41" height="30.36">
						<feFlood  style="flood-color:white;flood-opacity:1" result="back"/>
						<feBlend  in="SourceGraphic" in2="back" mode="normal"/>
					</filter>
				</defs>
				
					<mask maskUnits="userSpaceOnUse" x="17.46" y="11.66" width="26.41" height="30.36" id="SVGID_00000034060067586814273350000011109907283846134703_">
					<g style="filter:url(#Adobe_OpacityMaskFilter_00000032608913007728364270000008937348769822440599_);">
					</g>
				</mask>
				
					<linearGradient id="SVGID_00000172414956122438279180000004774414949536842673_" gradientUnits="userSpaceOnUse" x1="54.0205" y1="43.0747" x2="20.1102" y2="17.3518">
					<stop  offset="0" style="stop-color:#FFFFFF"/>
					<stop  offset="1" style="stop-color:#000000"/>
				</linearGradient>
				
					<path style="mask:url(#SVGID_00000034060067586814273350000011109907283846134703_);fill:url(#SVGID_00000172414956122438279180000004774414949536842673_);" d="
					M38.32,32.37c2.98-5.17,4.81-10.59,5.55-15.81c-2.78-3.01-6.75-4.9-11.17-4.9c-8.41,0-15.23,6.82-15.23,15.23
					c0,7.82,5.89,14.25,13.47,15.12C33.69,39.28,36.21,36.05,38.32,32.37z"/>
			</g>
		</mask>
		
			<linearGradient id="SVGID_00000083056384754808485680000007272101454665625007_" gradientUnits="userSpaceOnUse" x1="54.0205" y1="43.0747" x2="20.1102" y2="17.3518">
			<stop  offset="0" style="stop-color:#FFFFFF"/>
			<stop  offset="1" style="stop-color:#FFFFFF"/>
		</linearGradient>
		<path style="fill:url(#SVGID_00000083056384754808485680000007272101454665625007_);" d="M38.32,32.37
			c2.98-5.17,4.81-10.59,5.55-15.81c-2.78-3.01-6.75-4.9-11.17-4.9c-8.41,0-15.23,6.82-15.23,15.23c0,7.82,5.89,14.25,13.47,15.12
			C33.69,39.28,36.21,36.05,38.32,32.37z"/>
		<defs>
			
				<filter id="Adobe_OpacityMaskFilter_00000158718793005975647260000016658707623668126391_" filterUnits="userSpaceOnUse" x="17.46" y="11.66" width="26.41" height="30.36">
				<feFlood  style="flood-color:white;flood-opacity:1" result="back"/>
				<feBlend  in="SourceGraphic" in2="back" mode="normal"/>
			</filter>
		</defs>
		
			<mask maskUnits="userSpaceOnUse" x="17.46" y="11.66" width="26.41" height="30.36" id="SVGID_00000016796750613724859080000003128925495107756707_">
			<g style="filter:url(#Adobe_OpacityMaskFilter_00000158718793005975647260000016658707623668126391_);">
				<defs>
					
						<filter id="Adobe_OpacityMaskFilter_00000091736825363885479810000013545104896867271601_" filterUnits="userSpaceOnUse" x="17.46" y="11.66" width="26.41" height="30.36">
						<feFlood  style="flood-color:white;flood-opacity:1" result="back"/>
						<feBlend  in="SourceGraphic" in2="back" mode="normal"/>
					</filter>
				</defs>
				
					<mask maskUnits="userSpaceOnUse" x="17.46" y="11.66" width="26.41" height="30.36" id="SVGID_00000016796750613724859080000003128925495107756707_">
					<g style="filter:url(#Adobe_OpacityMaskFilter_00000091736825363885479810000013545104896867271601_);">
					</g>
				</mask>
				
					<linearGradient id="SVGID_00000066504426324448468220000015481185665047780242_" gradientUnits="userSpaceOnUse" x1="167.2817" y1="37.4922" x2="133.3712" y2="11.7692" gradientTransform="matrix(0.8666 0.499 -0.499 0.8666 -71.0525 -34.5468)">
					<stop  offset="0" style="stop-color:#FFFFFF"/>
					<stop  offset="1" style="stop-color:#000000"/>
				</linearGradient>
				
					<path style="mask:url(#SVGID_00000016796750613724859080000003128925495107756707_);fill:url(#SVGID_00000066504426324448468220000015481185665047780242_);" d="
					M38.32,32.37c2.98-5.17,4.81-10.59,5.55-15.81c-2.78-3.01-6.75-4.9-11.17-4.9c-8.41,0-15.23,6.82-15.23,15.23
					c0,7.82,5.89,14.25,13.47,15.12C33.69,39.28,36.21,36.05,38.32,32.37z"/>
			</g>
		</mask>
		
			<linearGradient id="SVGID_00000160889091471985992580000013022870084544394665_" gradientUnits="userSpaceOnUse" x1="167.2817" y1="37.4922" x2="133.3712" y2="11.7692" gradientTransform="matrix(0.8666 0.499 -0.499 0.8666 -71.0525 -34.5468)">
			<stop  offset="0" style="stop-color:#FFFFFF"/>
			<stop  offset="1" style="stop-color:#FFFFFF"/>
		</linearGradient>
		<path style="fill:url(#SVGID_00000160889091471985992580000013022870084544394665_);" d="M38.32,32.37
			c2.98-5.17,4.81-10.59,5.55-15.81c-2.78-3.01-6.75-4.9-11.17-4.9c-8.41,0-15.23,6.82-15.23,15.23c0,7.82,5.89,14.25,13.47,15.12
			C33.69,39.28,36.21,36.05,38.32,32.37z"/>
	</g>
</g>
<g>
	<rect x="26.12" y="22.87" class="st25" width="11.74" height="13.31"/>
	<rect x="26.12" y="19.99" class="st26" width="2.53" height="16.2"/>
	<path class="st27" d="M34.4,30.05h-1.64h-2.06c0,0,0.09,2.83-0.36,3.65h2.23h2.23C34.36,32.88,34.4,30.05,34.4,30.05z"/>
	<path class="st28" d="M30.69,31.79c0.69,0.32,1.38,0.63,2.17,0.56c0.56-0.05,1.1-0.22,1.6-0.48c-0.07-0.93-0.05-1.82-0.05-1.82
		h-3.69C30.71,30.05,30.74,30.89,30.69,31.79z"/>
	<g>
		<path class="st27" d="M39.42,35.3l-5.14-2.01h-1.68h-0.06h-1.68l-5.14,2.01c0,0-1.8,0.65-1.59,3.78h8.41h0.06h8.41
			C41.26,35.76,39.42,35.3,39.42,35.3z"/>
	</g>
	<g>
		<g>
			<path class="st27" d="M37.22,24.68c-0.15,0.94,0.11,1.77,0.59,1.86c0.48,0.09,0.98-0.6,1.13-1.54c0.15-0.94-0.11-1.77-0.59-1.86
				C37.88,23.05,37.37,23.74,37.22,24.68z"/>
			<g>
				<g>
					<path class="st29" d="M37.79,24.43c0,0,0.01-0.05,0.03-0.14c0.02-0.09,0.06-0.21,0.11-0.34c0.06-0.13,0.16-0.27,0.28-0.28
						c0.03,0,0.06,0,0.09,0.01c0.01,0,0.04,0.02,0.05,0.02c0.01,0.01,0.02,0.01,0.03,0.03c0.05,0.05,0.09,0.12,0.11,0.2
						c0.03,0.08,0.05,0.18,0.06,0.27c0.01,0.09,0.01,0.19,0,0.27c-0.01,0.09-0.02,0.19-0.04,0.27c-0.02,0.08-0.03,0.16-0.05,0.24
						c-0.02,0.07-0.03,0.14-0.05,0.2c-0.01,0.06-0.03,0.11-0.04,0.15c-0.02,0.09-0.04,0.14-0.04,0.14s0.02-0.04,0.06-0.12
						c0.02-0.04,0.05-0.09,0.07-0.14c0.02-0.06,0.05-0.12,0.08-0.19c0.03-0.07,0.05-0.16,0.07-0.24c0.03-0.09,0.04-0.18,0.06-0.27
						c0.02-0.11,0.02-0.21,0.01-0.32c-0.01-0.11-0.03-0.21-0.06-0.32c-0.03-0.1-0.09-0.2-0.17-0.28c-0.02-0.02-0.04-0.03-0.07-0.05
						c-0.03-0.01-0.03-0.01-0.07-0.03c-0.05-0.01-0.09-0.02-0.14-0.01c-0.1,0.02-0.18,0.09-0.23,0.17
						c-0.05,0.08-0.09,0.16-0.11,0.24c-0.05,0.15-0.06,0.29-0.06,0.38C37.78,24.37,37.79,24.43,37.79,24.43z"/>
				</g>
				<path class="st29" d="M37.79,24.43c0,0-0.04-0.1,0.27-0.12c0,0,0.35,0.06,0.14,0.53c-0.04,0.1-0.08,0.2-0.1,0.31
					c-0.03,0.16,0.02,0.37-0.06,0.51c-0.11,0.18-0.38,0.08-0.4-0.13c-0.01-0.16,0.15-0.43,0.22-0.54
					C37.86,24.99,38.09,24.65,37.79,24.43z"/>
				<g>
					<path class="st29" d="M37.64,25.51c0,0-0.01,0.01-0.02,0.03c-0.02,0.02-0.03,0.05-0.05,0.09c-0.01,0.02-0.01,0.04-0.02,0.07
						c0,0.02-0.01,0.05-0.01,0.08c0,0.03,0,0.06,0.01,0.08c0.01,0.03,0.02,0.05,0.03,0.08c0.01,0.02,0.02,0.05,0.04,0.07
						c0.01,0.02,0.03,0.04,0.05,0.05c0.03,0.04,0.06,0.06,0.1,0.07c0.06,0.03,0.11,0.03,0.11,0.03s-0.02-0.06-0.05-0.11
						c-0.01-0.02-0.02-0.03-0.03-0.04c-0.01-0.02-0.01-0.04-0.02-0.05c-0.01-0.02-0.01-0.03-0.03-0.05
						c-0.01-0.02-0.01-0.04-0.02-0.05c-0.02-0.03-0.03-0.07-0.04-0.1c-0.01-0.02-0.01-0.03-0.01-0.05c0-0.02-0.01-0.04-0.01-0.05
						C37.65,25.57,37.64,25.51,37.64,25.51z"/>
				</g>
			</g>
		</g>
	</g>
	<g>
		<g>
			<path class="st27" d="M28.16,24.68c0.15,0.94-0.11,1.77-0.59,1.86c-0.48,0.09-0.98-0.6-1.13-1.54c-0.15-0.94,0.11-1.77,0.59-1.86
				C27.5,23.05,28.01,23.74,28.16,24.68z"/>
			<g>
				<g>
					<path class="st29" d="M27.59,24.43c0,0-0.01-0.05-0.03-0.14c-0.02-0.09-0.06-0.21-0.11-0.34c-0.06-0.13-0.16-0.27-0.28-0.28
						c-0.03,0-0.06,0-0.09,0.01c0,0-0.04,0.02-0.05,0.02c-0.01,0.01-0.02,0.01-0.03,0.03c-0.05,0.05-0.09,0.12-0.11,0.2
						c-0.03,0.08-0.05,0.18-0.06,0.27c-0.01,0.09-0.01,0.19,0,0.27c0.01,0.09,0.02,0.19,0.04,0.27c0.02,0.08,0.03,0.16,0.05,0.24
						c0.02,0.07,0.03,0.14,0.05,0.2c0.01,0.06,0.03,0.11,0.04,0.15c0.02,0.09,0.04,0.14,0.04,0.14s-0.02-0.04-0.06-0.12
						c-0.02-0.04-0.05-0.09-0.07-0.14c-0.02-0.06-0.05-0.12-0.08-0.19c-0.03-0.07-0.05-0.16-0.07-0.24
						c-0.03-0.09-0.04-0.18-0.06-0.27c-0.02-0.11-0.02-0.21-0.01-0.32c0.01-0.11,0.03-0.21,0.06-0.32c0.03-0.1,0.09-0.2,0.17-0.28
						c0.02-0.02,0.04-0.03,0.07-0.05c0.03-0.01,0.03-0.01,0.07-0.03c0.05-0.01,0.1-0.02,0.14-0.01c0.1,0.02,0.18,0.09,0.23,0.17
						c0.05,0.08,0.09,0.16,0.11,0.24c0.05,0.15,0.06,0.29,0.06,0.38C27.59,24.37,27.59,24.43,27.59,24.43z"/>
				</g>
				<path class="st29" d="M27.59,24.43c0,0,0.04-0.1-0.27-0.12c0,0-0.35,0.06-0.14,0.53c0.04,0.1,0.08,0.2,0.1,0.31
					c0.03,0.16-0.02,0.37,0.06,0.51c0.11,0.18,0.38,0.08,0.4-0.13c0.01-0.16-0.15-0.43-0.22-0.54
					C27.51,24.99,27.29,24.65,27.59,24.43z"/>
				<g>
					<path class="st29" d="M27.74,25.51c0,0,0.01,0.01,0.02,0.03c0.02,0.02,0.03,0.05,0.05,0.09c0.01,0.02,0.01,0.04,0.02,0.07
						c0,0.02,0.01,0.05,0.01,0.08c0,0.03,0,0.06-0.01,0.08c-0.01,0.03-0.02,0.05-0.03,0.08c-0.01,0.02-0.02,0.05-0.04,0.07
						c-0.01,0.02-0.03,0.04-0.05,0.05c-0.03,0.04-0.06,0.06-0.1,0.07c-0.06,0.03-0.11,0.03-0.11,0.03s0.02-0.06,0.05-0.11
						c0.01-0.02,0.02-0.03,0.03-0.04c0.01-0.02,0.01-0.04,0.02-0.05c0.01-0.02,0.02-0.03,0.03-0.05c0.01-0.02,0.01-0.04,0.02-0.05
						c0.02-0.03,0.03-0.07,0.04-0.1c0.01-0.02,0.01-0.03,0.01-0.05c0-0.02,0.01-0.04,0.01-0.05C27.73,25.57,27.74,25.51,27.74,25.51
						z"/>
				</g>
			</g>
		</g>
	</g>
	<g>
		<path class="st27" d="M37.37,17.05c0,0-1.62-1.77-4.81-1.87c-3.18,0.17-4.8,2-4.8,2c-0.87,2.79-0.31,6.07,0.06,8.9
			c0.27,2.09,1.68,3.56,3.45,4.57c0,0,0.63,0.41,1.46,0.45c0.83-0.06,1.45-0.48,1.45-0.48c1.72-1.17,3.04-2.61,3.37-4.74
			c0.28-1.84,0.35-3.86,0.28-5.72C37.8,19.15,37.69,18.03,37.37,17.05z"/>
	</g>
	<g>
		<g>
			<path class="st26" d="M31.18,22.77c0,0-1.14-0.38-2.32,0.16c0.23-1.26,2.41-0.74,2.41-0.74s0.14,0.03,0.13,0.26
				C31.4,22.44,31.34,22.83,31.18,22.77z"/>
		</g>
		<g>
			<path class="st26" d="M33.83,22.77c0,0,1.3-0.38,2.47,0.16c-0.23-1.26-2.56-0.74-2.56-0.74s-0.14,0.03-0.13,0.26
				C33.61,22.44,33.67,22.83,33.83,22.77z"/>
		</g>
	</g>
	<g>
		<g>
			<g>
				<path class="st30" d="M29.73,23.94c0,0.36,0.21,0.66,0.46,0.66c0.25,0,0.45-0.3,0.45-0.66c0-0.36-0.21-0.66-0.46-0.66
					C29.93,23.28,29.73,23.57,29.73,23.94z"/>
			</g>
			<g>
				<path class="st31" d="M30,23.73c0,0.11-0.09,0.2-0.2,0.2c-0.11,0-0.2-0.09-0.2-0.2c0-0.11,0.09-0.2,0.2-0.2
					C29.92,23.53,30,23.62,30,23.73z"/>
			</g>
		</g>
		<g>
			<g>
				<path class="st30" d="M35.43,23.94c0,0.36-0.21,0.66-0.46,0.66c-0.25,0-0.45-0.3-0.45-0.66c0-0.36,0.21-0.66,0.46-0.66
					C35.23,23.28,35.43,23.57,35.43,23.94z"/>
			</g>
			<g>
				<path class="st31" d="M35.16,23.73c0,0.11,0.09,0.2,0.2,0.2c0.11,0,0.2-0.09,0.2-0.2c0-0.11-0.09-0.2-0.2-0.2
					C35.25,23.53,35.16,23.62,35.16,23.73z"/>
			</g>
		</g>
	</g>
	<g>
		<g>
			<path class="st31" d="M31.45,28.05c0,0.35,0.5,0.64,1.12,0.64c0.62,0,1.12-0.29,1.12-0.64H31.45z"/>
			<g>
				<path class="st32" d="M33.62,28.15c0.26-0.06,0.36-0.13,0.36-0.13s-0.18-0.08-0.44-0.15c-0.66-0.28-0.61,0.08-0.96,0.08
					c-0.18,0.01-0.35-0.19-0.52-0.16c-0.16,0.02-0.32,0.05-0.45,0.08c-0.26,0.06-0.44,0.15-0.44,0.15s0.13,0.09,0.4,0.15
					c0,0,0.39-0.01,0.71,0.04c0,0,0.3,0.07,0.5,0.01C32.79,28.21,33.27,28.11,33.62,28.15"/>
			</g>
			<g>
				<path class="st32" d="M33.77,28.01c-0.26,0.26-0.66,0.51-1.28,0.51c0,0-0.6,0-1.09-0.51h-0.22c0.01,0.02,0.01,0.03,0.02,0.05
					c0.06,0.1,0.1,0.22,0.19,0.33c0.04,0.06,0.08,0.11,0.13,0.17c0.04,0.06,0.11,0.1,0.16,0.16l0.09,0.08l0.1,0.07
					c0.07,0.04,0.13,0.1,0.22,0.12c0.08,0.03,0.18,0.07,0.26,0.08l0.11,0.01l0.06,0.01l0.03,0l0.01,0l0.04,0l0.26-0.03
					c0.09-0.02,0.16-0.05,0.24-0.08c0.08-0.02,0.15-0.08,0.22-0.12l0.1-0.07l0.09-0.08c0.05-0.05,0.11-0.1,0.16-0.16
					c0.04-0.06,0.09-0.12,0.13-0.17c0.09-0.11,0.13-0.23,0.19-0.33c0.01-0.02,0.01-0.03,0.02-0.05H33.77z"/>
			</g>
		</g>
		<path class="st31" d="M32.57,28.85c0.92-0.06,1.08-0.59,1.08-0.59c-0.41,0.51-1.08,0.44-1.08,0.44s-0.06,0-0.06,0.08
			C32.5,28.78,32.52,28.86,32.57,28.85z"/>
	</g>
	<path class="st26" d="M39.59,20.52c0,0,0.28-6.14-5.29-7.16c0,0-3.95-0.63-5.43,1.82l1.48,3.75c0,0,2.53,2.5,7.35,3.99
		c0,0,0.1,3.36-0.63,4.55c0,0-0.76,1.42-1.53,2.07c0,0-0.22,3.28,2.09,5.06l1.51,0.59l0.63,0.27c0,0,0.13-2.35-0.8-4.36
		C38.98,31.11,41.34,27.99,39.59,20.52z"/>
	<path class="st33" d="M31.94,26.43c0,0,0.01,0,0.02-0.01c0.02,0,0.04-0.01,0.06-0.02c0.05-0.01,0.12-0.03,0.2-0.04
		c0.08-0.01,0.16-0.02,0.24-0.03c0.08-0.01,0.16-0.01,0.24-0.01c0.08,0,0.15,0.01,0.23,0.02c0.04,0.01,0.08,0.01,0.11,0.01
		c0.04,0.01,0.08,0.01,0.11,0.02c0.04,0,0.08,0.01,0.11,0.02c0.03,0,0.06,0.01,0.09,0.01c0.03,0,0.05,0.01,0.07,0.01
		c0.02,0,0.02,0.01,0.02,0.01s0,0.01-0.01,0.02c0,0.01-0.01,0.04-0.02,0.06c-0.02,0.05-0.06,0.13-0.12,0.2
		c-0.03,0.04-0.07,0.07-0.11,0.1c-0.04,0.03-0.09,0.06-0.15,0.08c-0.05,0.02-0.11,0.04-0.17,0.05c-0.06,0.01-0.12,0.02-0.18,0.01
		c-0.06,0-0.12-0.01-0.18-0.02c-0.06-0.01-0.11-0.03-0.16-0.06c-0.1-0.05-0.19-0.11-0.25-0.18c-0.06-0.07-0.1-0.14-0.13-0.19
		c-0.01-0.02-0.02-0.05-0.02-0.06C31.94,26.43,31.94,26.43,31.94,26.43z"/>
	<g>
		<g>
			<path class="st34" d="M34.81,33.5l4.62,1.8c0,0,1.84,0.45,1.59,3.78c0,0-3.01,2.94-8.32,2.77c-5.77-0.18-8.55-2.77-8.55-2.77
				c-0.21-3.13,1.59-3.78,1.59-3.78l4.72-1.84l2.06,2.16L34.81,33.5z"/>
		</g>
	</g>
	<path class="st26" d="M31.18,18.7c0,0-3.45,0.73-3.44,5.6c0,0-0.25-1.34-1.07-0.92c0,0-2.58-6.9,3.46-8.73L31.18,18.7z"/>
	<polygon class="st27" points="29.77,17.61 30.16,19.36 30.57,19.14 	"/>
</g>
</svg>
