<?xml version="1.0" encoding="utf-8"?>
<!-- Generator: Adobe Illustrator 26.0.3, SVG Export Plug-In . SVG Version: 6.00 Build 0)  -->
<svg version="1.1" id="Layer_1" xmlns="http://www.w3.org/2000/svg" xmlns:xlink="http://www.w3.org/1999/xlink" x="0px" y="0px"
	 viewBox="0 0 37.2 52" style="enable-background:new 0 0 37.2 52;" xml:space="preserve">
<style type="text/css">
	.st0{fill:url(#SVGID_1_);}
	.st1{fill:url(#SVGID_00000142886306655096185180000006502247040534841767_);}
	.st2{fill:url(#SVGID_00000098930199874872454310000010897018271637486989_);}
	.st3{fill:url(#SVGID_00000041282372114124756200000007694731976996455576_);}
	.st4{filter:url(#Adobe_OpacityMaskFilter);}
	.st5{filter:url(#Adobe_OpacityMaskFilter_00000141417175218173752850000007467422104864634525_);}
	
		.st6{mask:url(#SVGID_00000107581242920115418630000016064744960188173976_);fill:url(#SVGID_00000121276590041390045810000016508564377433288123_);}
	.st7{opacity:0.3;fill:url(#SVGID_00000023267634577233374960000001293831543868022444_);}
	.st8{opacity:0.5;}
	.st9{filter:url(#Adobe_OpacityMaskFilter_00000169553666872241952790000014386766760324191616_);}
	.st10{filter:url(#Adobe_OpacityMaskFilter_00000183927777207038912630000011554423214647348139_);}
	
		.st11{mask:url(#SVGID_00000070092536390673755060000014846696799182418827_);fill:url(#SVGID_00000025406615868759110030000013001165118388550024_);}
	.st12{fill:url(#SVGID_00000048474557101258113060000014075682965882940349_);}
	.st13{filter:url(#Adobe_OpacityMaskFilter_00000173137473501086173090000013112096356328410031_);}
	.st14{filter:url(#Adobe_OpacityMaskFilter_00000101793332068363888520000003496665310156829373_);}
	
		.st15{mask:url(#SVGID_00000168105690375157546120000014473771045045717934_);fill:url(#SVGID_00000055696197170170324100000009382581806935787423_);}
	.st16{fill:url(#SVGID_00000119809256824462370400000005249948499435799463_);}
	.st17{filter:url(#Adobe_OpacityMaskFilter_00000112617013433966882570000012732227740504269217_);}
	.st18{filter:url(#Adobe_OpacityMaskFilter_00000088125820032409554670000016863203135608929171_);}
	
		.st19{mask:url(#SVGID_00000080891211633309856000000018400566297925213362_);fill:url(#SVGID_00000031185789152469792250000000956936511653059513_);}
	.st20{fill:url(#SVGID_00000027577729118520120860000005319210096750122661_);}
	.st21{filter:url(#Adobe_OpacityMaskFilter_00000010281413507558524330000006436940465016607156_);}
	.st22{filter:url(#Adobe_OpacityMaskFilter_00000165199108002683172760000014264571918868536502_);}
	
		.st23{mask:url(#SVGID_00000121976874091438013180000006027134586714338452_);fill:url(#SVGID_00000079471370462052801060000008883718575929020059_);}
	.st24{fill:url(#SVGID_00000183971368907386281790000003465174831454376599_);}
	.st25{opacity:0.57;}
	.st26{fill:#3F232A;}
	.st27{fill:#270C14;}
	.st28{fill:#F4B78E;}
	.st29{fill:#F5DCD5;}
	.st30{fill:#F2A57F;}
	.st31{fill:#2F1806;}
	.st32{fill:#FFFFFF;}
	.st33{fill:#F27D7F;}
	.st34{fill:#F4A485;}
	.st35{fill:#6954A0;}
</style>
<g>
	<g>
		<g>
			<linearGradient id="SVGID_1_" gradientUnits="userSpaceOnUse" x1="9.3403" y1="-3.3423" x2="30.588" y2="46.0996">
				<stop  offset="0" style="stop-color:#FFFFFF"/>
				<stop  offset="1" style="stop-color:#517536"/>
			</linearGradient>
			<path class="st0" d="M18.3,46.5c-0.6,0-1.1-0.3-1.4-0.7C13.2,41.3,1.3,25.9,1.3,18.1c0-9.4,7.6-17,17-17c9.4,0,17,7.6,17,17
				c0,7.8-11.9,23.2-15.6,27.8C19.4,46.3,18.9,46.5,18.3,46.5z M18.3,4.9c-7.3,0-13.2,5.9-13.2,13.2c0,7.3,5.9,13.2,13.2,13.2
				s13.2-5.9,13.2-13.2C31.5,10.8,25.6,4.9,18.3,4.9z"/>
			
				<linearGradient id="SVGID_00000076566253997305996360000015613718825488256921_" gradientUnits="userSpaceOnUse" x1="9.17" y1="-3.2692" x2="30.4177" y2="46.1728">
				<stop  offset="0" style="stop-color:#FFFFFF"/>
				<stop  offset="1" style="stop-color:#517536"/>
			</linearGradient>
			<path style="fill:url(#SVGID_00000076566253997305996360000015613718825488256921_);" d="M18.3,29.3c-6.2,0-11.2-5-11.2-11.2
				s5-11.2,11.2-11.2c6.2,0,11.2,5,11.2,11.2S24.5,29.3,18.3,29.3z"/>
		</g>
		
			<linearGradient id="SVGID_00000028293478631381971370000009012985284038718091_" gradientUnits="userSpaceOnUse" x1="9.4371" y1="2.8477" x2="33.2533" y2="43.2128">
			<stop  offset="0" style="stop-color:#98DAF8"/>
			<stop  offset="1" style="stop-color:#4998D2"/>
		</linearGradient>
		<path style="fill:url(#SVGID_00000028293478631381971370000009012985284038718091_);" d="M18.3,1.4C9.1,1.4,1.6,8.8,1.6,18.1
			c0,7.7,11.7,22.8,15.5,27.6c0.6,0.8,1.8,0.8,2.4,0C23.4,40.9,35,25.8,35,18.1C35,8.8,27.6,1.4,18.3,1.4z M18.3,31.5
			c-7.4,0-13.5-6-13.5-13.5c0-7.4,6-13.5,13.5-13.5c7.4,0,13.5,6,13.5,13.5C31.8,25.5,25.8,31.5,18.3,31.5z"/>
		
			<linearGradient id="SVGID_00000124867631571603745960000015321172856219207057_" gradientUnits="userSpaceOnUse" x1="9.3815" y1="2.8806" x2="33.1976" y2="43.2455">
			<stop  offset="0" style="stop-color:#98DAF8"/>
			<stop  offset="1" style="stop-color:#4998D2"/>
		</linearGradient>
		<circle style="fill:url(#SVGID_00000124867631571603745960000015321172856219207057_);" cx="18.3" cy="18.1" r="10.9"/>
		<defs>
			<filter id="Adobe_OpacityMaskFilter" filterUnits="userSpaceOnUse" x="7.8" y="48.6" width="21" height="2.7">
				<feFlood  style="flood-color:white;flood-opacity:1" result="back"/>
				<feBlend  in="SourceGraphic" in2="back" mode="normal"/>
			</filter>
		</defs>
		
			<mask maskUnits="userSpaceOnUse" x="7.8" y="48.6" width="21" height="2.7" id="SVGID_00000117634461242755393300000018382791741490698129_">
			<g class="st4">
				<defs>
					
						<filter id="Adobe_OpacityMaskFilter_00000021100188981663468430000002992204785979426949_" filterUnits="userSpaceOnUse" x="7.8" y="48.6" width="21" height="2.7">
						<feFlood  style="flood-color:white;flood-opacity:1" result="back"/>
						<feBlend  in="SourceGraphic" in2="back" mode="normal"/>
					</filter>
				</defs>
				
					<mask maskUnits="userSpaceOnUse" x="7.8" y="48.6" width="21" height="2.7" id="SVGID_00000117634461242755393300000018382791741490698129_">
					<g style="filter:url(#Adobe_OpacityMaskFilter_00000021100188981663468430000002992204785979426949_);">
					</g>
				</mask>
				
					<radialGradient id="SVGID_00000108989370451772049780000017196552446914170271_" cx="18.3325" cy="1338.3457" r="10.5086" gradientTransform="matrix(1 0 0 0.1264 0 -119.2146)" gradientUnits="userSpaceOnUse">
					<stop  offset="0" style="stop-color:#FFFFFF"/>
					<stop  offset="1" style="stop-color:#000000"/>
				</radialGradient>
				
					<ellipse style="mask:url(#SVGID_00000117634461242755393300000018382791741490698129_);fill:url(#SVGID_00000108989370451772049780000017196552446914170271_);" cx="18.3" cy="50" rx="10.5" ry="1.3"/>
			</g>
		</mask>
		
			<radialGradient id="SVGID_00000167373801483150090280000013631957321130059419_" cx="18.3325" cy="1338.3457" r="10.5086" gradientTransform="matrix(1 0 0 0.1264 0 -119.2146)" gradientUnits="userSpaceOnUse">
			<stop  offset="0" style="stop-color:#231F20"/>
			<stop  offset="1" style="stop-color:#231F20"/>
		</radialGradient>
		
			<ellipse style="opacity:0.3;fill:url(#SVGID_00000167373801483150090280000013631957321130059419_);" cx="18.3" cy="50" rx="10.5" ry="1.3"/>
		<g class="st8">
			<defs>
				
					<filter id="Adobe_OpacityMaskFilter_00000067920063641088396100000017853656621918412933_" filterUnits="userSpaceOnUse" x="1.6" y="1.4" width="25" height="33.1">
					<feFlood  style="flood-color:white;flood-opacity:1" result="back"/>
					<feBlend  in="SourceGraphic" in2="back" mode="normal"/>
				</filter>
			</defs>
			
				<mask maskUnits="userSpaceOnUse" x="1.6" y="1.4" width="25" height="33.1" id="SVGID_00000003091003473042106130000012075373507448157839_">
				<g style="filter:url(#Adobe_OpacityMaskFilter_00000067920063641088396100000017853656621918412933_);">
					<defs>
						
							<filter id="Adobe_OpacityMaskFilter_00000007421967127625896240000003646209115318925725_" filterUnits="userSpaceOnUse" x="1.6" y="1.4" width="25" height="33.1">
							<feFlood  style="flood-color:white;flood-opacity:1" result="back"/>
							<feBlend  in="SourceGraphic" in2="back" mode="normal"/>
						</filter>
					</defs>
					
						<mask maskUnits="userSpaceOnUse" x="1.6" y="1.4" width="25" height="33.1" id="SVGID_00000003091003473042106130000012075373507448157839_">
						<g style="filter:url(#Adobe_OpacityMaskFilter_00000007421967127625896240000003646209115318925725_);">
						</g>
					</mask>
					
						<linearGradient id="SVGID_00000166670076971334629650000008472401386020679325_" gradientUnits="userSpaceOnUse" x1="32.9338" y1="30.5441" x2="8.636" y2="12.1128">
						<stop  offset="0" style="stop-color:#FFFFFF"/>
						<stop  offset="1" style="stop-color:#000000"/>
					</linearGradient>
					
						<path style="mask:url(#SVGID_00000003091003473042106130000012075373507448157839_);fill:url(#SVGID_00000166670076971334629650000008472401386020679325_);" d="
						M4.9,18.1c0-7.4,6-13.5,13.5-13.5c3.1,0,6,1.1,8.3,2.9c0-1.4-0.1-2.7-0.2-4c-2.4-1.3-5.1-2.1-8-2.1C9.1,1.4,1.6,8.8,1.6,18.1
						c0,4.2,3.5,10.7,7.3,16.4c2-0.9,3.9-2,5.7-3.5C9,29.4,4.9,24.2,4.9,18.1z"/>
				</g>
			</mask>
			
				<linearGradient id="SVGID_00000158710607901840316910000005998452349635318400_" gradientUnits="userSpaceOnUse" x1="32.9338" y1="30.5441" x2="8.636" y2="12.1128">
				<stop  offset="0" style="stop-color:#FFFFFF"/>
				<stop  offset="1" style="stop-color:#FFFFFF"/>
			</linearGradient>
			<path style="fill:url(#SVGID_00000158710607901840316910000005998452349635318400_);" d="M4.9,18.1c0-7.4,6-13.5,13.5-13.5
				c3.1,0,6,1.1,8.3,2.9c0-1.4-0.1-2.7-0.2-4c-2.4-1.3-5.1-2.1-8-2.1C9.1,1.4,1.6,8.8,1.6,18.1c0,4.2,3.5,10.7,7.3,16.4
				c2-0.9,3.9-2,5.7-3.5C9,29.4,4.9,24.2,4.9,18.1z"/>
			<defs>
				
					<filter id="Adobe_OpacityMaskFilter_00000069398213111369523290000007512819398878872992_" filterUnits="userSpaceOnUse" x="1.6" y="1.4" width="25" height="33.1">
					<feFlood  style="flood-color:white;flood-opacity:1" result="back"/>
					<feBlend  in="SourceGraphic" in2="back" mode="normal"/>
				</filter>
			</defs>
			
				<mask maskUnits="userSpaceOnUse" x="1.6" y="1.4" width="25" height="33.1" id="SVGID_00000105425896604462206230000015408612188224102325_">
				<g style="filter:url(#Adobe_OpacityMaskFilter_00000069398213111369523290000007512819398878872992_);">
					<defs>
						
							<filter id="Adobe_OpacityMaskFilter_00000032609432910209471960000013181236499520196006_" filterUnits="userSpaceOnUse" x="1.6" y="1.4" width="25" height="33.1">
							<feFlood  style="flood-color:white;flood-opacity:1" result="back"/>
							<feBlend  in="SourceGraphic" in2="back" mode="normal"/>
						</filter>
					</defs>
					
						<mask maskUnits="userSpaceOnUse" x="1.6" y="1.4" width="25" height="33.1" id="SVGID_00000105425896604462206230000015408612188224102325_">
						<g style="filter:url(#Adobe_OpacityMaskFilter_00000032609432910209471960000013181236499520196006_);">
						</g>
					</mask>
					
						<linearGradient id="SVGID_00000052795144731421836770000011831493220767798698_" gradientUnits="userSpaceOnUse" x1="140.6552" y1="19.7309" x2="116.3568" y2="1.2992" gradientTransform="matrix(0.8666 0.499 -0.499 0.8666 -78.7747 -29.6606)">
						<stop  offset="0" style="stop-color:#FFFFFF"/>
						<stop  offset="1" style="stop-color:#000000"/>
					</linearGradient>
					
						<path style="mask:url(#SVGID_00000105425896604462206230000015408612188224102325_);fill:url(#SVGID_00000052795144731421836770000011831493220767798698_);" d="
						M4.9,18.1c0-7.4,6-13.5,13.5-13.5c3.1,0,6,1.1,8.3,2.9c0-1.4-0.1-2.7-0.2-4c-2.4-1.3-5.1-2.1-8-2.1C9.1,1.4,1.6,8.8,1.6,18.1
						c0,4.2,3.5,10.7,7.3,16.4c2-0.9,3.9-2,5.7-3.5C9,29.4,4.9,24.2,4.9,18.1z"/>
				</g>
			</mask>
			
				<linearGradient id="SVGID_00000038400699606920853940000001851455481238928563_" gradientUnits="userSpaceOnUse" x1="140.6552" y1="19.7309" x2="116.3568" y2="1.2992" gradientTransform="matrix(0.8666 0.499 -0.499 0.8666 -78.7747 -29.6606)">
				<stop  offset="0" style="stop-color:#FFFFFF"/>
				<stop  offset="1" style="stop-color:#FFFFFF"/>
			</linearGradient>
			<path style="fill:url(#SVGID_00000038400699606920853940000001851455481238928563_);" d="M4.9,18.1c0-7.4,6-13.5,13.5-13.5
				c3.1,0,6,1.1,8.3,2.9c0-1.4-0.1-2.7-0.2-4c-2.4-1.3-5.1-2.1-8-2.1C9.1,1.4,1.6,8.8,1.6,18.1c0,4.2,3.5,10.7,7.3,16.4
				c2-0.9,3.9-2,5.7-3.5C9,29.4,4.9,24.2,4.9,18.1z"/>
			<defs>
				
					<filter id="Adobe_OpacityMaskFilter_00000011006587475113132720000012883053994487500971_" filterUnits="userSpaceOnUse" x="7.4" y="7.1" width="18.9" height="21.8">
					<feFlood  style="flood-color:white;flood-opacity:1" result="back"/>
					<feBlend  in="SourceGraphic" in2="back" mode="normal"/>
				</filter>
			</defs>
			
				<mask maskUnits="userSpaceOnUse" x="7.4" y="7.1" width="18.9" height="21.8" id="SVGID_00000068655885369856842830000012924713560183710398_">
				<g style="filter:url(#Adobe_OpacityMaskFilter_00000011006587475113132720000012883053994487500971_);">
					<defs>
						
							<filter id="Adobe_OpacityMaskFilter_00000183965128141431651980000007229827677783823272_" filterUnits="userSpaceOnUse" x="7.4" y="7.1" width="18.9" height="21.8">
							<feFlood  style="flood-color:white;flood-opacity:1" result="back"/>
							<feBlend  in="SourceGraphic" in2="back" mode="normal"/>
						</filter>
					</defs>
					
						<mask maskUnits="userSpaceOnUse" x="7.4" y="7.1" width="18.9" height="21.8" id="SVGID_00000068655885369856842830000012924713560183710398_">
						<g style="filter:url(#Adobe_OpacityMaskFilter_00000183965128141431651980000007229827677783823272_);">
						</g>
					</mask>
					
						<linearGradient id="SVGID_00000118394767833565992170000012296093099763886762_" gradientUnits="userSpaceOnUse" x1="33.6141" y1="29.6471" x2="9.3164" y2="11.2159">
						<stop  offset="0" style="stop-color:#FFFFFF"/>
						<stop  offset="1" style="stop-color:#000000"/>
					</linearGradient>
					
						<path style="mask:url(#SVGID_00000068655885369856842830000012924713560183710398_);fill:url(#SVGID_00000118394767833565992170000012296093099763886762_);" d="
						M22.4,22c2.1-3.7,3.4-7.6,4-11.3c-2-2.2-4.8-3.5-8-3.5c-6,0-10.9,4.9-10.9,10.9c0,5.6,4.2,10.2,9.6,10.8
						C19,26.9,20.9,24.6,22.4,22z"/>
				</g>
			</mask>
			
				<linearGradient id="SVGID_00000019649274442490097830000006392733724391861678_" gradientUnits="userSpaceOnUse" x1="33.6141" y1="29.6471" x2="9.3164" y2="11.2159">
				<stop  offset="0" style="stop-color:#FFFFFF"/>
				<stop  offset="1" style="stop-color:#FFFFFF"/>
			</linearGradient>
			<path style="fill:url(#SVGID_00000019649274442490097830000006392733724391861678_);" d="M22.4,22c2.1-3.7,3.4-7.6,4-11.3
				c-2-2.2-4.8-3.5-8-3.5c-6,0-10.9,4.9-10.9,10.9c0,5.6,4.2,10.2,9.6,10.8C19,26.9,20.9,24.6,22.4,22z"/>
			<defs>
				
					<filter id="Adobe_OpacityMaskFilter_00000081635695226738490730000008699394541138135454_" filterUnits="userSpaceOnUse" x="7.4" y="7.1" width="18.9" height="21.8">
					<feFlood  style="flood-color:white;flood-opacity:1" result="back"/>
					<feBlend  in="SourceGraphic" in2="back" mode="normal"/>
				</filter>
			</defs>
			
				<mask maskUnits="userSpaceOnUse" x="7.4" y="7.1" width="18.9" height="21.8" id="SVGID_00000108273040861768763440000001984943178789017492_">
				<g style="filter:url(#Adobe_OpacityMaskFilter_00000081635695226738490730000008699394541138135454_);">
					<defs>
						
							<filter id="Adobe_OpacityMaskFilter_00000026122701757134297910000009195897777662794137_" filterUnits="userSpaceOnUse" x="7.4" y="7.1" width="18.9" height="21.8">
							<feFlood  style="flood-color:white;flood-opacity:1" result="back"/>
							<feBlend  in="SourceGraphic" in2="back" mode="normal"/>
						</filter>
					</defs>
					
						<mask maskUnits="userSpaceOnUse" x="7.4" y="7.1" width="18.9" height="21.8" id="SVGID_00000108273040861768763440000001984943178789017492_">
						<g style="filter:url(#Adobe_OpacityMaskFilter_00000026122701757134297910000009195897777662794137_);">
						</g>
					</mask>
					
						<linearGradient id="SVGID_00000137092253371994480100000014487389528728309140_" gradientUnits="userSpaceOnUse" x1="141.4364" y1="18.6995" x2="117.1384" y2="0.268" gradientTransform="matrix(0.8666 0.499 -0.499 0.8666 -78.7747 -29.6606)">
						<stop  offset="0" style="stop-color:#FFFFFF"/>
						<stop  offset="1" style="stop-color:#000000"/>
					</linearGradient>
					
						<path style="mask:url(#SVGID_00000108273040861768763440000001984943178789017492_);fill:url(#SVGID_00000137092253371994480100000014487389528728309140_);" d="
						M22.4,22c2.1-3.7,3.4-7.6,4-11.3c-2-2.2-4.8-3.5-8-3.5c-6,0-10.9,4.9-10.9,10.9c0,5.6,4.2,10.2,9.6,10.8
						C19,26.9,20.9,24.6,22.4,22z"/>
				</g>
			</mask>
			
				<linearGradient id="SVGID_00000000929059902043798300000002029066921404638654_" gradientUnits="userSpaceOnUse" x1="141.4364" y1="18.6995" x2="117.1384" y2="0.268" gradientTransform="matrix(0.8666 0.499 -0.499 0.8666 -78.7747 -29.6606)">
				<stop  offset="0" style="stop-color:#FFFFFF"/>
				<stop  offset="1" style="stop-color:#FFFFFF"/>
			</linearGradient>
			<path style="fill:url(#SVGID_00000000929059902043798300000002029066921404638654_);" d="M22.4,22c2.1-3.7,3.4-7.6,4-11.3
				c-2-2.2-4.8-3.5-8-3.5c-6,0-10.9,4.9-10.9,10.9c0,5.6,4.2,10.2,9.6,10.8C19,26.9,20.9,24.6,22.4,22z"/>
		</g>
	</g>
	<g class="st25">
		<rect x="12.7" y="13.7" class="st26" width="11.2" height="11.5"/>
		<rect x="15.5" y="13.7" class="st27" width="5.7" height="11.5"/>
		<rect x="12.7" y="13.1" class="st26" width="2.1" height="12.5"/>
		<path class="st28" d="M19.6,20.5h-1.4h-1.7c0,0,0.1,2.2-0.3,2.8h1.8h1.8C19.6,22.7,19.6,20.5,19.6,20.5z"/>
		<path class="st29" d="M16.5,21.9c0.6,0.3,1.1,0.5,1.8,0.4c0.5,0,0.9-0.2,1.3-0.4c-0.1-0.7,0-1.4,0-1.4h-3.1
			C16.5,20.5,16.6,21.2,16.5,21.9z"/>
		<g>
			<path class="st28" d="M23.8,24.6L19.5,23h-1.4h0h-1.4l-4.3,1.6c0,0-0.9-0.4-0.7,2l2.2,1.2l8.2,0.1l2.5-1.3
				C24.9,24.1,23.8,24.6,23.8,24.6z"/>
		</g>
		<g>
			<g>
				<path class="st28" d="M22,16.4c-0.1,0.7,0.1,1.4,0.5,1.4c0.4,0.1,0.8-0.5,0.9-1.2c0.1-0.7-0.1-1.4-0.5-1.4
					C22.5,15.1,22.1,15.7,22,16.4z"/>
				<g>
					<g>
						<path class="st30" d="M22.4,16.2c0,0,0,0,0-0.1c0-0.1,0-0.2,0.1-0.3c0-0.1,0.1-0.2,0.2-0.2c0,0,0.1,0,0.1,0c0,0,0,0,0,0
							c0,0,0,0,0,0c0,0,0.1,0.1,0.1,0.2c0,0.1,0,0.1,0,0.2c0,0.1,0,0.1,0,0.2c0,0.1,0,0.1,0,0.2c0,0.1,0,0.1,0,0.2
							c0,0.1,0,0.1,0,0.2c0,0,0,0.1,0,0.1c0,0.1,0,0.1,0,0.1s0,0,0.1-0.1c0,0,0-0.1,0.1-0.1c0,0,0-0.1,0.1-0.1c0-0.1,0-0.1,0.1-0.2
							c0-0.1,0-0.1,0-0.2c0-0.1,0-0.2,0-0.2c0-0.1,0-0.2-0.1-0.2c0-0.1-0.1-0.2-0.1-0.2c0,0,0,0-0.1,0c0,0,0,0-0.1,0
							c0,0-0.1,0-0.1,0c-0.1,0-0.1,0.1-0.2,0.1c0,0.1-0.1,0.1-0.1,0.2c0,0.1,0,0.2-0.1,0.3C22.4,16.1,22.4,16.2,22.4,16.2z"/>
					</g>
					<path class="st30" d="M22.4,16.2c0,0,0-0.1,0.2-0.1c0,0,0.3,0,0.1,0.4c0,0.1-0.1,0.2-0.1,0.2c0,0.1,0,0.3,0,0.4
						c-0.1,0.1-0.3,0.1-0.3-0.1c0-0.1,0.1-0.3,0.2-0.4C22.5,16.6,22.7,16.4,22.4,16.2z"/>
					<g>
						<path class="st30" d="M22.3,17C22.3,17,22.3,17,22.3,17C22.3,17.1,22.3,17.1,22.3,17c-0.1,0.1-0.1,0.1-0.1,0.1c0,0,0,0,0,0.1
							c0,0,0,0,0,0.1c0,0,0,0,0,0.1c0,0,0,0,0,0.1c0,0,0,0,0,0c0,0,0.1,0,0.1,0.1c0.1,0,0.1,0,0.1,0s0,0,0-0.1c0,0,0,0,0,0
							c0,0,0,0,0,0c0,0,0,0,0,0c0,0,0,0,0,0c0,0,0-0.1,0-0.1c0,0,0,0,0,0C22.3,17.1,22.3,17.1,22.3,17C22.3,17.1,22.3,17,22.3,17z"
							/>
					</g>
				</g>
			</g>
		</g>
		<g>
			<g>
				<path class="st28" d="M14.4,16.4c0.1,0.7-0.1,1.4-0.5,1.4c-0.4,0.1-0.8-0.5-0.9-1.2c-0.1-0.7,0.1-1.4,0.5-1.4
					C13.9,15.1,14.3,15.7,14.4,16.4z"/>
				<g>
					<g>
						<path class="st30" d="M14,16.2c0,0,0,0,0-0.1c0-0.1,0-0.2-0.1-0.3c0-0.1-0.1-0.2-0.2-0.2c0,0-0.1,0-0.1,0c0,0,0,0,0,0
							c0,0,0,0,0,0c0,0-0.1,0.1-0.1,0.2c0,0.1,0,0.1,0,0.2c0,0.1,0,0.1,0,0.2c0,0.1,0,0.1,0,0.2c0,0.1,0,0.1,0,0.2
							c0,0.1,0,0.1,0,0.2c0,0,0,0.1,0,0.1c0,0.1,0,0.1,0,0.1s0,0-0.1-0.1c0,0,0-0.1-0.1-0.1c0,0,0-0.1-0.1-0.1c0-0.1,0-0.1-0.1-0.2
							c0-0.1,0-0.1,0-0.2c0-0.1,0-0.2,0-0.2c0-0.1,0-0.2,0.1-0.2c0-0.1,0.1-0.2,0.1-0.2c0,0,0,0,0.1,0c0,0,0,0,0.1,0
							c0,0,0.1,0,0.1,0c0.1,0,0.1,0.1,0.2,0.1c0,0.1,0.1,0.1,0.1,0.2c0,0.1,0,0.2,0.1,0.3C14,16.1,14,16.2,14,16.2z"/>
					</g>
					<path class="st30" d="M14,16.2c0,0,0-0.1-0.2-0.1c0,0-0.3,0-0.1,0.4c0,0.1,0.1,0.2,0.1,0.2c0,0.1,0,0.3,0,0.4
						c0.1,0.1,0.3,0.1,0.3-0.1c0-0.1-0.1-0.3-0.2-0.4C13.9,16.6,13.7,16.4,14,16.2z"/>
					<g>
						<path class="st30" d="M14.1,17C14.1,17,14.1,17,14.1,17C14.1,17.1,14.1,17.1,14.1,17c0.1,0.1,0.1,0.1,0.1,0.1c0,0,0,0,0,0.1
							c0,0,0,0,0,0.1c0,0,0,0,0,0.1c0,0,0,0,0,0.1c0,0,0,0,0,0c0,0-0.1,0-0.1,0.1c-0.1,0-0.1,0-0.1,0s0,0,0-0.1c0,0,0,0,0,0
							c0,0,0,0,0,0c0,0,0,0,0,0c0,0,0,0,0,0c0,0,0-0.1,0-0.1c0,0,0,0,0,0C14.1,17.1,14.1,17.1,14.1,17C14.1,17.1,14.1,17,14.1,17z"
							/>
					</g>
				</g>
			</g>
		</g>
		<g>
			<path class="st28" d="M22.1,10.5c0,0-1.3-1.4-4-1.4c-2.6,0.1-4,1.5-4,1.5c-0.7,2.2-0.3,4.7,0,6.9c0.2,1.6,1.4,2.7,2.9,3.5
				c0,0,0.5,0.3,1.2,0.3c0.7,0,1.2-0.4,1.2-0.4c1.4-0.9,2.5-2,2.8-3.7c0.2-1.4,0.3-3,0.2-4.4C22.4,12.1,22.3,11.2,22.1,10.5z"/>
		</g>
		<g>
			<g>
				<g>
					<g>
						<path class="st26" d="M16.9,14.9c0,0-0.9-0.3-1.9,0.1c0.2-1,2-0.6,2-0.6s0.1,0,0.1,0.2C17.1,14.7,17.1,14.9,16.9,14.9z"/>
					</g>
				</g>
				<g>
					<g>
						<path class="st26" d="M19.1,14.9c0,0,1.1-0.3,2.1,0.1c-0.2-1-2.1-0.6-2.1-0.6s-0.1,0-0.1,0.2C19,14.7,19,14.9,19.1,14.9z"/>
					</g>
				</g>
			</g>
		</g>
		<g>
			<g>
				<g>
					<path class="st31" d="M15.7,15.8c0,0.3,0.2,0.5,0.4,0.5c0.2,0,0.4-0.2,0.4-0.5c0-0.3-0.2-0.5-0.4-0.5
						C15.9,15.3,15.7,15.5,15.7,15.8z"/>
				</g>
				<g>
					<path class="st32" d="M16,15.6c0,0.1-0.1,0.2-0.2,0.2c-0.1,0-0.2-0.1-0.2-0.2c0-0.1,0.1-0.2,0.2-0.2C15.9,15.5,16,15.6,16,15.6
						z"/>
				</g>
			</g>
			<g>
				<g>
					<path class="st31" d="M20.5,15.8c0,0.3-0.2,0.5-0.4,0.5c-0.2,0-0.4-0.2-0.4-0.5c0-0.3,0.2-0.5,0.4-0.5
						C20.3,15.3,20.5,15.5,20.5,15.8z"/>
				</g>
				<g>
					<path class="st32" d="M20.2,15.6c0,0.1,0.1,0.2,0.2,0.2c0.1,0,0.2-0.1,0.2-0.2c0-0.1-0.1-0.2-0.2-0.2
						C20.3,15.5,20.2,15.6,20.2,15.6z"/>
				</g>
			</g>
		</g>
		<g>
			<g>
				<path class="st32" d="M17.2,19c0,0.3,0.4,0.5,0.9,0.5c0.5,0,0.9-0.2,0.9-0.5H17.2z"/>
				<g>
					<path class="st33" d="M19,19.1c0.2,0,0.3-0.1,0.3-0.1s-0.2-0.1-0.4-0.1c-0.5-0.2-0.5,0.1-0.8,0.1c-0.1,0-0.3-0.1-0.4-0.1
						c-0.1,0-0.3,0-0.4,0.1c-0.2,0-0.4,0.1-0.4,0.1s0.1,0.1,0.3,0.1c0,0,0.3,0,0.6,0c0,0,0.2,0.1,0.4,0C18.3,19.1,18.7,19,19,19.1"
						/>
				</g>
				<g>
					<path class="st33" d="M19.1,19c-0.2,0.2-0.5,0.4-1.1,0.4c0,0-0.5,0-0.9-0.4h-0.2c0,0,0,0,0,0c0,0.1,0.1,0.2,0.2,0.3
						c0,0,0.1,0.1,0.1,0.1c0,0,0.1,0.1,0.1,0.1l0.1,0.1l0.1,0.1c0.1,0,0.1,0.1,0.2,0.1c0.1,0,0.1,0.1,0.2,0.1l0.1,0l0,0l0,0l0,0l0,0
						l0.2,0c0.1,0,0.1,0,0.2-0.1c0.1,0,0.1-0.1,0.2-0.1l0.1-0.1l0.1-0.1c0,0,0.1-0.1,0.1-0.1c0,0,0.1-0.1,0.1-0.1
						c0.1-0.1,0.1-0.2,0.2-0.3c0,0,0,0,0,0H19.1z"/>
				</g>
			</g>
			<path class="st32" d="M18.1,19.6c0.8,0,0.9-0.5,0.9-0.5c-0.3,0.4-0.9,0.3-0.9,0.3S18,19.5,18.1,19.6C18,19.5,18,19.6,18.1,19.6z"
				/>
		</g>
		<path class="st26" d="M23.9,14.3c0,0,0.2-5.5-4.4-6.3c0,0-3.3-0.5-4.5,1.4l1.2,2.9c0,0,0,1,5.1,2.1c0,0,1.1,0.3,1.1,2.1
			C22.5,16.4,22.7,15.1,23.9,14.3z"/>
		<path class="st34" d="M17.6,17.7C17.6,17.7,17.6,17.7,17.6,17.7C17.6,17.7,17.6,17.7,17.6,17.7c0.1,0,0.2,0,0.2,0
			c0.1,0,0.1,0,0.2,0c0.1,0,0.1,0,0.2,0c0.1,0,0.1,0,0.2,0c0,0,0.1,0,0.1,0c0,0,0.1,0,0.1,0c0,0,0.1,0,0.1,0c0,0,0.1,0,0.1,0
			c0,0,0,0,0.1,0c0,0,0,0,0,0s0,0,0,0c0,0,0,0,0,0.1c0,0,0,0.1-0.1,0.2c0,0-0.1,0.1-0.1,0.1c0,0-0.1,0-0.1,0.1c0,0-0.1,0-0.1,0
			c0,0-0.1,0-0.2,0c-0.1,0-0.1,0-0.1,0c0,0-0.1,0-0.1,0c-0.1,0-0.2-0.1-0.2-0.1C17.6,17.9,17.6,17.8,17.6,17.7
			C17.6,17.8,17.6,17.8,17.6,17.7C17.6,17.7,17.6,17.7,17.6,17.7z"/>
		<g>
			<g>
				<path class="st35" d="M22.6,27.5c0-1.1,0.1-2.3,1.1-3l-3.7-1.3L18,24.8l-1.7-1.7l-3.8,1.4c0.7,0.4,0.9,1.4,1,2.1
					c0,0.3,0,0.6,0,0.9c0,0,1.8,1.2,4.6,1.2C22,28.7,22.6,27.5,22.6,27.5z"/>
			</g>
		</g>
		<path class="st26" d="M16.9,12.1c0,0-2.9,0.6-2.9,4.3c0,0-0.1-1.2-0.9-1c0,0-2.1-5,2.9-6.4L16.9,12.1z"/>
		<polygon class="st28" points="15.7,11.3 16,12.6 16.3,12.4 		"/>
	</g>
</g>
</svg>
