<?xml version="1.0" encoding="utf-8"?>
<!-- Generator: Adobe Illustrator 26.0.3, SVG Export Plug-In . SVG Version: 6.00 Build 0)  -->
<svg version="1.1" id="Layer_1" xmlns="http://www.w3.org/2000/svg" xmlns:xlink="http://www.w3.org/1999/xlink" x="0px" y="0px"
	 viewBox="0 0 46.5 63" style="enable-background:new 0 0 46.5 63;" xml:space="preserve">
<style type="text/css">
	.st0{fill:url(#SVGID_1_);}
	.st1{fill:url(#SVGID_00000023996919315903200110000001030280626280556988_);}
	.st2{fill:url(#SVGID_00000166649654937912912550000012988624950913421968_);}
	.st3{fill:url(#SVGID_00000083077113299278531960000017649733471219960235_);}
	.st4{filter:url(#Adobe_OpacityMaskFilter);}
	.st5{filter:url(#Adobe_OpacityMaskFilter_00000000219984628769162680000000274179298654504877_);}
	
		.st6{mask:url(#SVGID_00000152259094056406002680000003906863994795601053_);fill:url(#SVGID_00000158717659645040021690000003220488953001066115_);}
	.st7{opacity:0.3;fill:url(#SVGID_00000015354369763129034510000015936223451483599532_);}
	.st8{opacity:0.5;}
	.st9{filter:url(#Adobe_OpacityMaskFilter_00000157309310349051171900000007523788474990153657_);}
	.st10{filter:url(#Adobe_OpacityMaskFilter_00000044898374084216072860000016583154575775213714_);}
	
		.st11{mask:url(#SVGID_00000062909455961412077540000017015000847214219157_);fill:url(#SVGID_00000130631114894510799670000017875092963844714666_);}
	.st12{fill:url(#SVGID_00000025440202331696987020000001760222491367357095_);}
	.st13{filter:url(#Adobe_OpacityMaskFilter_00000074438689745297556810000015521361519507399842_);}
	.st14{filter:url(#Adobe_OpacityMaskFilter_00000007421347882214798950000012802029102316777397_);}
	
		.st15{mask:url(#SVGID_00000036249226455034448750000011255818902359336858_);fill:url(#SVGID_00000058567086521750864930000002052984478474100098_);}
	.st16{fill:url(#SVGID_00000119113423337833898790000018063669115365772980_);}
	.st17{filter:url(#Adobe_OpacityMaskFilter_00000063610804133061713420000003964560968950409663_);}
	.st18{filter:url(#Adobe_OpacityMaskFilter_00000106110982519535311060000014068465873485536683_);}
	
		.st19{mask:url(#SVGID_00000052076819047053055910000005985820075077591993_);fill:url(#SVGID_00000057130171370151409890000006043640231232598673_);}
	.st20{fill:url(#SVGID_00000011738109617467169770000009363412525448151714_);}
	.st21{filter:url(#Adobe_OpacityMaskFilter_00000088099130674827247700000012724583754157617540_);}
	.st22{filter:url(#Adobe_OpacityMaskFilter_00000166673085081559388700000015832186586134310558_);}
	
		.st23{mask:url(#SVGID_00000008871793722943877630000003049288682559932843_);fill:url(#SVGID_00000076587698707957641330000005508844257264287913_);}
	.st24{fill:url(#SVGID_00000008868137266412105550000014784479659773691829_);}
	.st25{clip-path:url(#SVGID_00000134221839236693428240000009778042005895183011_);fill:#634E42;}
	.st26{clip-path:url(#SVGID_00000134221839236693428240000009778042005895183011_);fill:#93C03D;}
	.st27{clip-path:url(#SVGID_00000134221839236693428240000009778042005895183011_);}
	.st28{fill:#DAD9D8;}
	.st29{fill:#EEBC89;}
	.st30{fill:#E2AE80;}
	.st31{fill:#CC9C73;}
	.st32{fill:#FCC894;}
	.st33{fill:#DAA87B;}
	.st34{fill:#C2966D;}
	.st35{fill:#F5F5F5;}
	.st36{fill:#936137;}
	.st37{fill:#3C3C3B;}
	.st38{fill:#FFFFFF;}
	.st39{opacity:0.1;fill:#1D1C1A;}
	.st40{fill:#E5E5E4;}
	.st41{fill:#ECECEC;}
	.st42{fill:#F0BA86;}
</style>
<g>
	<g>
		<linearGradient id="SVGID_1_" gradientUnits="userSpaceOnUse" x1="11.8639" y1="-2.244" x2="37.2431" y2="56.8113">
			<stop  offset="0" style="stop-color:#FFFFFF"/>
			<stop  offset="1" style="stop-color:#6D6E70"/>
		</linearGradient>
		<path class="st0" d="M22.6,57.3c-0.7,0-1.3-0.3-1.7-0.8C16.5,51.1,2.3,32.7,2.3,23.3C2.3,12.1,11.4,3,22.6,3
			c11.2,0,20.3,9.1,20.3,20.3c0,9.4-14.2,27.8-18.6,33.2C23.9,57,23.3,57.3,22.6,57.3z M22.6,7.6c-8.7,0-15.7,7.1-15.7,15.7
			C6.9,32,13.9,39,22.6,39s15.7-7,15.7-15.7C38.3,14.6,31.3,7.6,22.6,7.6z"/>
		
			<linearGradient id="SVGID_00000058591592607877253160000006095054109070129551_" gradientUnits="userSpaceOnUse" x1="11.6605" y1="-2.1567" x2="37.0398" y2="56.899">
			<stop  offset="0" style="stop-color:#FFFFFF"/>
			<stop  offset="1" style="stop-color:#6D6E70"/>
		</linearGradient>
		<path style="fill:url(#SVGID_00000058591592607877253160000006095054109070129551_);" d="M22.6,36.7c-7.4,0-13.4-6-13.4-13.4
			c0-7.4,6-13.4,13.4-13.4c7.4,0,13.4,6,13.4,13.4C36,30.7,30,36.7,22.6,36.7z"/>
	</g>
	
		<linearGradient id="SVGID_00000083052775253066528070000001823936869620873382_" gradientUnits="userSpaceOnUse" x1="11.9796" y1="5.1496" x2="40.4266" y2="53.3631">
		<stop  offset="0" style="stop-color:#E6E7E8"/>
		<stop  offset="1" style="stop-color:#A6A8AB"/>
	</linearGradient>
	<path style="fill:url(#SVGID_00000083052775253066528070000001823936869620873382_);" d="M22.6,3.4c-11,0-19.9,8.9-19.9,19.9
		c0,9.2,13.9,27.3,18.5,33c0.7,0.9,2.1,0.9,2.9,0c4.6-5.7,18.5-23.8,18.5-33C42.5,12.3,33.6,3.4,22.6,3.4z M22.6,39.4
		c-8.9,0-16.1-7.2-16.1-16.1c0-8.9,7.2-16.1,16.1-16.1c8.9,0,16.1,7.2,16.1,16.1C38.7,32.2,31.5,39.4,22.6,39.4z"/>
	
		<linearGradient id="SVGID_00000121984667712710562010000000325736562269469630_" gradientUnits="userSpaceOnUse" x1="11.9132" y1="5.189" x2="40.3601" y2="53.4023">
		<stop  offset="0" style="stop-color:#E6E7E8"/>
		<stop  offset="1" style="stop-color:#A6A8AB"/>
	</linearGradient>
	<path style="fill:url(#SVGID_00000121984667712710562010000000325736562269469630_);" d="M35.6,23.3c0,7.2-5.8,13-13,13
		c-7.2,0-13-5.8-13-13c0-7.2,5.8-13,13-13C29.8,10.3,35.6,16.1,35.6,23.3z"/>
	<defs>
		<filter id="Adobe_OpacityMaskFilter" filterUnits="userSpaceOnUse" x="10.1" y="59.8" width="25.1" height="3.2">
			<feFlood  style="flood-color:white;flood-opacity:1" result="back"/>
			<feBlend  in="SourceGraphic" in2="back" mode="normal"/>
		</filter>
	</defs>
	
		<mask maskUnits="userSpaceOnUse" x="10.1" y="59.8" width="25.1" height="3.2" id="SVGID_00000016074198556343416540000009556524088374885542_">
		<g class="st4">
			<defs>
				
					<filter id="Adobe_OpacityMaskFilter_00000062908503898233423030000015950921355555311234_" filterUnits="userSpaceOnUse" x="10.1" y="59.8" width="25.1" height="3.2">
					<feFlood  style="flood-color:white;flood-opacity:1" result="back"/>
					<feBlend  in="SourceGraphic" in2="back" mode="normal"/>
				</filter>
			</defs>
			
				<mask maskUnits="userSpaceOnUse" x="10.1" y="59.8" width="25.1" height="3.2" id="SVGID_00000016074198556343416540000009556524088374885542_">
				<g style="filter:url(#Adobe_OpacityMaskFilter_00000062908503898233423030000015950921355555311234_);">
				</g>
			</mask>
			
				<radialGradient id="SVGID_00000068635005376259002980000010714693103439974529_" cx="22.6047" cy="1387.5481" r="12.5524" gradientTransform="matrix(1 0 0 0.1264 0 -113.973)" gradientUnits="userSpaceOnUse">
				<stop  offset="0" style="stop-color:#FFFFFF"/>
				<stop  offset="1" style="stop-color:#000000"/>
			</radialGradient>
			
				<path style="mask:url(#SVGID_00000016074198556343416540000009556524088374885542_);fill:url(#SVGID_00000068635005376259002980000010714693103439974529_);" d="
				M35.2,61.4c0,0.9-5.6,1.6-12.6,1.6c-6.9,0-12.6-0.7-12.6-1.6c0-0.9,5.6-1.6,12.6-1.6C29.5,59.8,35.2,60.5,35.2,61.4z"/>
		</g>
	</mask>
	
		<radialGradient id="SVGID_00000163052826668384421540000003458799412461213827_" cx="22.6047" cy="1387.5481" r="12.5524" gradientTransform="matrix(1 0 0 0.1264 0 -113.973)" gradientUnits="userSpaceOnUse">
		<stop  offset="0" style="stop-color:#231F20"/>
		<stop  offset="1" style="stop-color:#231F20"/>
	</radialGradient>
	<path style="opacity:0.3;fill:url(#SVGID_00000163052826668384421540000003458799412461213827_);" d="M35.2,61.4
		c0,0.9-5.6,1.6-12.6,1.6c-6.9,0-12.6-0.7-12.6-1.6c0-0.9,5.6-1.6,12.6-1.6C29.5,59.8,35.2,60.5,35.2,61.4z"/>
	<g class="st8">
		<defs>
			
				<filter id="Adobe_OpacityMaskFilter_00000106122135822729710210000001309538665716289961_" filterUnits="userSpaceOnUse" x="2.7" y="3.4" width="29.8" height="39.6">
				<feFlood  style="flood-color:white;flood-opacity:1" result="back"/>
				<feBlend  in="SourceGraphic" in2="back" mode="normal"/>
			</filter>
		</defs>
		
			<mask maskUnits="userSpaceOnUse" x="2.7" y="3.4" width="29.8" height="39.6" id="SVGID_00000130604662675628029850000009712033938445620152_">
			<g style="filter:url(#Adobe_OpacityMaskFilter_00000106122135822729710210000001309538665716289961_);">
				<defs>
					
						<filter id="Adobe_OpacityMaskFilter_00000103957826393028448690000004244216296130172329_" filterUnits="userSpaceOnUse" x="2.7" y="3.4" width="29.8" height="39.6">
						<feFlood  style="flood-color:white;flood-opacity:1" result="back"/>
						<feBlend  in="SourceGraphic" in2="back" mode="normal"/>
					</filter>
				</defs>
				
					<mask maskUnits="userSpaceOnUse" x="2.7" y="3.4" width="29.8" height="39.6" id="SVGID_00000130604662675628029850000009712033938445620152_">
					<g style="filter:url(#Adobe_OpacityMaskFilter_00000103957826393028448690000004244216296130172329_);">
					</g>
				</mask>
				
					<linearGradient id="SVGID_00000153675783403600845810000016105893362974654895_" gradientUnits="userSpaceOnUse" x1="40.0449" y1="38.2312" x2="11.0227" y2="16.2162">
					<stop  offset="0" style="stop-color:#FFFFFF"/>
					<stop  offset="1" style="stop-color:#000000"/>
				</linearGradient>
				
					<path style="mask:url(#SVGID_00000130604662675628029850000009712033938445620152_);fill:url(#SVGID_00000153675783403600845810000016105893362974654895_);" d="
					M6.5,23.3c0-8.9,7.2-16.1,16.1-16.1c3.7,0,7.1,1.3,9.9,3.4c0-1.7-0.1-3.3-0.3-4.8c-2.8-1.6-6.1-2.5-9.6-2.5
					c-11,0-19.9,8.9-19.9,19.9c0,5,4.2,12.8,8.7,19.6c2.4-1,4.7-2.4,6.9-4.2C11.5,36.9,6.5,30.7,6.5,23.3z"/>
			</g>
		</mask>
		
			<linearGradient id="SVGID_00000041988063301364450830000008387323216642493340_" gradientUnits="userSpaceOnUse" x1="40.0449" y1="38.2312" x2="11.0227" y2="16.2162">
			<stop  offset="0" style="stop-color:#FFFFFF"/>
			<stop  offset="1" style="stop-color:#FFFFFF"/>
		</linearGradient>
		<path style="fill:url(#SVGID_00000041988063301364450830000008387323216642493340_);" d="M6.5,23.3c0-8.9,7.2-16.1,16.1-16.1
			c3.7,0,7.1,1.3,9.9,3.4c0-1.7-0.1-3.3-0.3-4.8c-2.8-1.6-6.1-2.5-9.6-2.5c-11,0-19.9,8.9-19.9,19.9c0,5,4.2,12.8,8.7,19.6
			c2.4-1,4.7-2.4,6.9-4.2C11.5,36.9,6.5,30.7,6.5,23.3z"/>
		<defs>
			
				<filter id="Adobe_OpacityMaskFilter_00000156579771654839768580000013685908809509046153_" filterUnits="userSpaceOnUse" x="2.7" y="3.4" width="29.8" height="39.6">
				<feFlood  style="flood-color:white;flood-opacity:1" result="back"/>
				<feBlend  in="SourceGraphic" in2="back" mode="normal"/>
			</filter>
		</defs>
		
			<mask maskUnits="userSpaceOnUse" x="2.7" y="3.4" width="29.8" height="39.6" id="SVGID_00000056393145498892957580000004278003942343213747_">
			<g style="filter:url(#Adobe_OpacityMaskFilter_00000156579771654839768580000013685908809509046153_);">
				<defs>
					
						<filter id="Adobe_OpacityMaskFilter_00000037659731279209931440000001586551240780027316_" filterUnits="userSpaceOnUse" x="2.7" y="3.4" width="29.8" height="39.6">
						<feFlood  style="flood-color:white;flood-opacity:1" result="back"/>
						<feBlend  in="SourceGraphic" in2="back" mode="normal"/>
					</filter>
				</defs>
				
					<mask maskUnits="userSpaceOnUse" x="2.7" y="3.4" width="29.8" height="39.6" id="SVGID_00000056393145498892957580000004278003942343213747_">
					<g style="filter:url(#Adobe_OpacityMaskFilter_00000037659731279209931440000001586551240780027316_);">
					</g>
				</mask>
				
					<linearGradient id="SVGID_00000054951027518093202960000002587959730849253809_" gradientUnits="userSpaceOnUse" x1="150.8778" y1="30.171" x2="121.8548" y2="8.1554" gradientTransform="matrix(0.8666 0.499 -0.499 0.8666 -75.2471 -30.8562)">
					<stop  offset="0" style="stop-color:#FFFFFF"/>
					<stop  offset="1" style="stop-color:#000000"/>
				</linearGradient>
				
					<path style="mask:url(#SVGID_00000056393145498892957580000004278003942343213747_);fill:url(#SVGID_00000054951027518093202960000002587959730849253809_);" d="
					M6.5,23.3c0-8.9,7.2-16.1,16.1-16.1c3.7,0,7.1,1.3,9.9,3.4c0-1.7-0.1-3.3-0.3-4.8c-2.8-1.6-6.1-2.5-9.6-2.5
					c-11,0-19.9,8.9-19.9,19.9c0,5,4.2,12.8,8.7,19.6c2.4-1,4.7-2.4,6.9-4.2C11.5,36.9,6.5,30.7,6.5,23.3z"/>
			</g>
		</mask>
		
			<linearGradient id="SVGID_00000023996144815561520610000007961240926140636316_" gradientUnits="userSpaceOnUse" x1="150.8778" y1="30.171" x2="121.8548" y2="8.1554" gradientTransform="matrix(0.8666 0.499 -0.499 0.8666 -75.2471 -30.8562)">
			<stop  offset="0" style="stop-color:#FFFFFF"/>
			<stop  offset="1" style="stop-color:#FFFFFF"/>
		</linearGradient>
		<path style="fill:url(#SVGID_00000023996144815561520610000007961240926140636316_);" d="M6.5,23.3c0-8.9,7.2-16.1,16.1-16.1
			c3.7,0,7.1,1.3,9.9,3.4c0-1.7-0.1-3.3-0.3-4.8c-2.8-1.6-6.1-2.5-9.6-2.5c-11,0-19.9,8.9-19.9,19.9c0,5,4.2,12.8,8.7,19.6
			c2.4-1,4.7-2.4,6.9-4.2C11.5,36.9,6.5,30.7,6.5,23.3z"/>
		<defs>
			
				<filter id="Adobe_OpacityMaskFilter_00000050663192645850092790000014847857882230018443_" filterUnits="userSpaceOnUse" x="9.6" y="10.3" width="22.6" height="26">
				<feFlood  style="flood-color:white;flood-opacity:1" result="back"/>
				<feBlend  in="SourceGraphic" in2="back" mode="normal"/>
			</filter>
		</defs>
		
			<mask maskUnits="userSpaceOnUse" x="9.6" y="10.3" width="22.6" height="26" id="SVGID_00000134230002414878816930000004717439148963549092_">
			<g style="filter:url(#Adobe_OpacityMaskFilter_00000050663192645850092790000014847857882230018443_);">
				<defs>
					
						<filter id="Adobe_OpacityMaskFilter_00000042729027800479900190000011453813115968644240_" filterUnits="userSpaceOnUse" x="9.6" y="10.3" width="22.6" height="26">
						<feFlood  style="flood-color:white;flood-opacity:1" result="back"/>
						<feBlend  in="SourceGraphic" in2="back" mode="normal"/>
					</filter>
				</defs>
				
					<mask maskUnits="userSpaceOnUse" x="9.6" y="10.3" width="22.6" height="26" id="SVGID_00000134230002414878816930000004717439148963549092_">
					<g style="filter:url(#Adobe_OpacityMaskFilter_00000042729027800479900190000011453813115968644240_);">
					</g>
				</mask>
				
					<linearGradient id="SVGID_00000000197706774785177000000001853208743495070653_" gradientUnits="userSpaceOnUse" x1="40.8576" y1="37.1599" x2="11.8354" y2="15.1449">
					<stop  offset="0" style="stop-color:#FFFFFF"/>
					<stop  offset="1" style="stop-color:#000000"/>
				</linearGradient>
				
					<path style="mask:url(#SVGID_00000134230002414878816930000004717439148963549092_);fill:url(#SVGID_00000000197706774785177000000001853208743495070653_);" d="
					M27.4,28c2.5-4.4,4.1-9.1,4.7-13.5c-2.4-2.6-5.8-4.2-9.6-4.2c-7.2,0-13,5.8-13,13c0,6.7,5,12.2,11.5,12.9
					C23.5,33.9,25.6,31.1,27.4,28z"/>
			</g>
		</mask>
		
			<linearGradient id="SVGID_00000028325982553749232020000009862648985855159203_" gradientUnits="userSpaceOnUse" x1="40.8576" y1="37.1599" x2="11.8354" y2="15.1449">
			<stop  offset="0" style="stop-color:#FFFFFF"/>
			<stop  offset="1" style="stop-color:#FFFFFF"/>
		</linearGradient>
		<path style="fill:url(#SVGID_00000028325982553749232020000009862648985855159203_);" d="M27.4,28c2.5-4.4,4.1-9.1,4.7-13.5
			c-2.4-2.6-5.8-4.2-9.6-4.2c-7.2,0-13,5.8-13,13c0,6.7,5,12.2,11.5,12.9C23.5,33.9,25.6,31.1,27.4,28z"/>
		<defs>
			
				<filter id="Adobe_OpacityMaskFilter_00000076566355423186523570000016610797006474598788_" filterUnits="userSpaceOnUse" x="9.6" y="10.3" width="22.6" height="26">
				<feFlood  style="flood-color:white;flood-opacity:1" result="back"/>
				<feBlend  in="SourceGraphic" in2="back" mode="normal"/>
			</filter>
		</defs>
		
			<mask maskUnits="userSpaceOnUse" x="9.6" y="10.3" width="22.6" height="26" id="SVGID_00000172408602226960194390000008399008393458181563_">
			<g style="filter:url(#Adobe_OpacityMaskFilter_00000076566355423186523570000016610797006474598788_);">
				<defs>
					
						<filter id="Adobe_OpacityMaskFilter_00000181066183895898842790000009155822307771187632_" filterUnits="userSpaceOnUse" x="9.6" y="10.3" width="22.6" height="26">
						<feFlood  style="flood-color:white;flood-opacity:1" result="back"/>
						<feBlend  in="SourceGraphic" in2="back" mode="normal"/>
					</filter>
				</defs>
				
					<mask maskUnits="userSpaceOnUse" x="9.6" y="10.3" width="22.6" height="26" id="SVGID_00000172408602226960194390000008399008393458181563_">
					<g style="filter:url(#Adobe_OpacityMaskFilter_00000181066183895898842790000009155822307771187632_);">
					</g>
				</mask>
				
					<linearGradient id="SVGID_00000138554683300565600780000016017860099987183774_" gradientUnits="userSpaceOnUse" x1="151.8106" y1="28.9388" x2="122.7883" y2="6.9237" gradientTransform="matrix(0.8666 0.499 -0.499 0.8666 -75.2471 -30.8562)">
					<stop  offset="0" style="stop-color:#FFFFFF"/>
					<stop  offset="1" style="stop-color:#000000"/>
				</linearGradient>
				
					<path style="mask:url(#SVGID_00000172408602226960194390000008399008393458181563_);fill:url(#SVGID_00000138554683300565600780000016017860099987183774_);" d="
					M27.4,28c2.5-4.4,4.1-9.1,4.7-13.5c-2.4-2.6-5.8-4.2-9.6-4.2c-7.2,0-13,5.8-13,13c0,6.7,5,12.2,11.5,12.9
					C23.5,33.9,25.6,31.1,27.4,28z"/>
			</g>
		</mask>
		
			<linearGradient id="SVGID_00000128481300202458955630000000520209588690470813_" gradientUnits="userSpaceOnUse" x1="151.8106" y1="28.9388" x2="122.7883" y2="6.9237" gradientTransform="matrix(0.8666 0.499 -0.499 0.8666 -75.2471 -30.8562)">
			<stop  offset="0" style="stop-color:#FFFFFF"/>
			<stop  offset="1" style="stop-color:#FFFFFF"/>
		</linearGradient>
		<path style="fill:url(#SVGID_00000128481300202458955630000000520209588690470813_);" d="M27.4,28c2.5-4.4,4.1-9.1,4.7-13.5
			c-2.4-2.6-5.8-4.2-9.6-4.2c-7.2,0-13,5.8-13,13c0,6.7,5,12.2,11.5,12.9C23.5,33.9,25.6,31.1,27.4,28z"/>
	</g>
</g>
<g>
	<defs>
		<circle id="SVGID_00000137848308196878442580000006435630294681840013_" cx="22.6" cy="22.5" r="12.5"/>
	</defs>
	<clipPath id="SVGID_00000036223308366176989240000006656789805873006501_">
		<use xlink:href="#SVGID_00000137848308196878442580000006435630294681840013_"  style="overflow:visible;"/>
	</clipPath>
	<path style="clip-path:url(#SVGID_00000036223308366176989240000006656789805873006501_);fill:#634E42;" d="M13.8,50.5
		c6.9,2.7,13.9,1.6,19.4-1l-2.8-14.6c-0.6-5.1-4.4-8.6-8.1-8.6h-0.1c-2.8,0-3.9,1.2-5.4,3.7C15.1,32.8,16.8,42.1,13.8,50.5z"/>
	<path style="clip-path:url(#SVGID_00000036223308366176989240000006656789805873006501_);fill:#93C03D;" d="M22.9,50.6
		c-2.2-0.1-4.7-0.5-6.7-1.3c-0.5-0.2-1-0.5-1.5-0.7c2.1-7.9,0.8-16,2.3-18.6c1.5-2.5,2.5-3.7,5.3-3.7h0.1c3.6,0,7.3,3.6,7.9,8.6
		l2.4,12.9C29.9,49.6,26.1,50.8,22.9,50.6z"/>
	<path style="clip-path:url(#SVGID_00000036223308366176989240000006656789805873006501_);fill:#634E42;" d="M18.6,29
		c-0.5,2.5-0.6,5-0.6,7.5c0.1,5.1-0.3,10-2,14.7c-0.7-0.2-1.5-0.4-2.2-0.7c3-8.4,1.3-17.7,3-20.5c0.9-1.4,1.6-2.4,2.6-3
		C19,27.6,18.8,28.3,18.6,29z"/>
	<path style="clip-path:url(#SVGID_00000036223308366176989240000006656789805873006501_);fill:#634E42;" d="M24,38.6
		c-0.2-2.6-0.9-9.4,1.9-11.3c2.3,1.4,4.2,4.2,4.6,7.6l2.8,14.6c-2.7,1.2-5.8,2.2-9,2.4C24.9,47.6,24.2,42.9,24,38.6z"/>
	<g style="clip-path:url(#SVGID_00000036223308366176989240000006656789805873006501_);">
		<ellipse transform="matrix(0.1912 -0.9816 0.9816 0.1912 5.3535 34.1741)" class="st28" cx="23.4" cy="13.8" rx="3.7" ry="4.3"/>
		<g>
			<path class="st29" d="M15,20.6C15,20.6,15,20.6,15,20.6c0.4-0.2,0.7-0.1,1,0.2l0.2,4.2c0,0-0.1,0.1-0.1,0.1
				c-0.6,0.4-1.4-0.3-1.7-1.6C14.1,22.3,14.4,21,15,20.6z"/>
			<path class="st30" d="M14.3,22.5c0,0.1,0.1,0.3,0.1,0.4c0.3,1.1,1.1,1.7,1.8,1.6l0.2,0.4c0,0-0.2,0.2-0.3,0.2
				c-0.6,0.4-1.4-0.3-1.7-1.6C14.3,23.2,14.3,22.9,14.3,22.5z"/>
			<path class="st31" d="M14.7,21.6c0.1-0.2,0.4-0.4,0.6-0.3c0.1,0,0.2,0.2,0.3,0.3c0.1,0.2,0.1,0.3,0.1,0.5c0,0.2,0,0.4,0,0.5
				c0,0.2,0,0.3,0,0.5c0,0.1,0,0.3,0,0.4c0,0.1,0,0.2,0,0.3c0.1,0.4,0.3,0.5,0.2,0.5c0,0,0,0,0,0c0,0-0.1,0-0.1,0
				c-0.1-0.1-0.2-0.2-0.3-0.4c0-0.1-0.1-0.2-0.1-0.4c0-0.1,0-0.2,0-0.4c0,0,0,0,0,0c-0.1,0-0.1,0.1-0.2,0.2c0,0.1-0.1,0.2-0.1,0.3
				c0,0.1,0,0.2,0,0.2c0,0-0.1,0-0.1-0.1c0-0.1-0.1-0.3,0-0.5c0.1-0.2,0.3-0.2,0.4-0.2c0,0,0,0,0,0c0-0.3,0-0.5,0-0.8
				c0-0.3-0.1-0.5-0.3-0.6c-0.1-0.1-0.3,0-0.4,0.1c-0.1,0.1-0.1,0.3-0.2,0.4c0,0.1,0,0.2,0,0.2c0,0,0-0.1-0.1-0.2
				C14.6,22.1,14.6,21.8,14.7,21.6z"/>
		</g>
		<path class="st32" d="M15.1,20.6c0,0.9,0.1,1.7,0.4,2.4c0,0,0,0,0,0.1c0.3,1.1,0.4,3.8,1.1,4.9c0.6,1,2,1.5,2.9,2.1
			c1.3,0.9,2.7,0.6,4.1-0.1c1.5-0.7,2.3-0.9,3.2-2.2c0.5-0.7,0.8-1.6,1-2.6c0.1-0.2,0.1-0.4,0.2-0.6c0.1-0.4,0.2-0.8,0.3-1.2
			c0.4-0.9,0.6-1.8,0.6-2.8c0-4-3.1-7.3-7-7.3C18,13.3,15.1,16.6,15.1,20.6z"/>
		<g>
			<path class="st33" d="M22.3,28.5c0.1,0.1-0.4,0.6-1.2,0.6c-0.8,0-1.3-0.6-1.2-0.7c0-0.1,0.5,0.3,1.2,0.3
				C21.8,28.7,22.3,28.3,22.3,28.5z"/>
			<g>
				<path class="st34" d="M23.3,27.4c0.1,0.1-0.9,0.7-2.1,0.6c-0.3,0-0.6,0-0.9-0.1c-0.1,0-0.3-0.1-0.4-0.1c-0.1,0-0.2-0.1-0.3-0.1
					c0,0,0,0,0,0c0,0,0,0,0,0c0,0,0,0,0,0c0,0,0,0-0.1,0c0,0-0.1,0.1-0.1,0.1c-0.1,0.1-0.2,0.1-0.2,0c0,0,0-0.1,0-0.2
					c0,0,0-0.1,0.1-0.2c0,0,0-0.1,0.1-0.1c0,0,0.1,0,0.1-0.1c0,0,0.1,0,0.1,0c0.1,0,0.1,0,0.2,0c0.1,0,0.1,0,0.2,0
					c0.1,0,0.2,0,0.4,0.1c0.2,0,0.5,0.1,0.8,0.1C22.3,27.6,23.2,27.3,23.3,27.4z"/>
			</g>
		</g>
		<path class="st35" d="M25.9,22.5c-0.5-2.4-4.3-2.4-4-1.1C22.6,21.2,24.8,20.6,25.9,22.5z"/>
		<path class="st35" d="M16,22.3c0.5-2.3,3.8-2,3.5-0.7C18.9,21.2,17.1,20.5,16,22.3z"/>
		<g>
			<path class="st36" d="M24.5,22.8c0.1,0.5-0.3,0.9-0.8,0.9c-0.5,0.1-0.9-0.3-1-0.7c-0.1-0.5,0.3-0.9,0.8-0.9
				C24,22,24.5,22.4,24.5,22.8z"/>
			<path class="st37" d="M24.1,22.9c0,0.3-0.2,0.5-0.4,0.5c-0.3,0-0.5-0.2-0.5-0.4c0-0.3,0.2-0.5,0.4-0.5
				C23.8,22.4,24.1,22.6,24.1,22.9z"/>
			<path class="st38" d="M23.4,23.3c0,0.1-0.1,0.2-0.1,0.2l0,0c-0.1,0-0.2-0.1-0.2-0.2l0,0c0-0.1,0.1-0.2,0.1-0.2l0,0
				C23.3,23.1,23.4,23.2,23.4,23.3L23.4,23.3z"/>
			<path class="st38" d="M24.2,22.4c0,0.1-0.1,0.2-0.2,0.2l0,0c-0.1,0-0.2-0.1-0.2-0.2l0,0c0-0.1,0.1-0.2,0.2-0.2l0,0
				C24.1,22.2,24.2,22.3,24.2,22.4L24.2,22.4z"/>
		</g>
		<g>
			<path class="st36" d="M19,22.8c0.1,0.5-0.3,0.9-0.8,0.9c-0.5,0.1-0.9-0.3-1-0.7c-0.1-0.5,0.3-0.9,0.8-0.9
				C18.5,22,18.9,22.3,19,22.8z"/>
			<path class="st37" d="M18.6,22.8c0,0.3-0.2,0.5-0.4,0.5c-0.3,0-0.5-0.2-0.5-0.4c0-0.3,0.2-0.5,0.4-0.5
				C18.3,22.3,18.6,22.5,18.6,22.8z"/>
			<path class="st38" d="M17.9,23.2c0,0.1-0.1,0.2-0.1,0.2l0,0c-0.1,0-0.2-0.1-0.2-0.2l0,0c0-0.1,0.1-0.2,0.1-0.2l0,0
				C17.8,23,17.9,23.1,17.9,23.2L17.9,23.2z"/>
			<path class="st38" d="M18.6,22.4c0,0.1-0.1,0.2-0.2,0.2l0,0c-0.1,0-0.2-0.1-0.2-0.2l0,0c0-0.1,0.1-0.2,0.2-0.2l0,0
				C18.5,22.2,18.6,22.2,18.6,22.4L18.6,22.4z"/>
		</g>
		<path class="st34" d="M24.9,22.9c-0.6-1.1-1.5-1.4-2.3-0.7C23.4,22,24.2,22.3,24.9,22.9z"/>
		<path class="st34" d="M19.2,22.3c-0.7-0.7-1.6-0.6-2.2,0.3C17.7,22.2,18.4,22.1,19.2,22.3z"/>
		<path class="st33" d="M20.1,23.5c-0.1,0.4-0.1,1,0.1,1.3c0.2,0.3,0.7,0.3,1.1,0.1c0.3-0.2,0.6-0.5,0.8-0.9
			c-0.1,0.3-0.3,0.7-0.5,0.9c-1.2,1.2-2.1,0.2-2-0.8c0.1-1.1,0.4-2.2,1-3.1C20.4,21.9,20.2,22.7,20.1,23.5z"/>
		<path class="st39" d="M16.8,20.3c2.6-0.4,5.1-0.4,7.7,0.1C21.9,19.4,19.4,19.4,16.8,20.3z"/>
		<path class="st39" d="M17.3,19.7c1.1-0.4,2.3-0.6,3.5-0.6c1.2,0,2.3,0.2,3.5,0.6C21.9,18.4,19.5,18.5,17.3,19.7z"/>
		<path class="st39" d="M18.6,18.4c1.7-0.2,3.3-0.2,4.9,0C22,17.7,20.2,17.7,18.6,18.4z"/>
		<path class="st39" d="M23.8,28.2c0.4-1.5-0.1-2.9-1.5-3.7C23.3,25.6,23.7,26.7,23.8,28.2z"/>
		<path class="st39" d="M18.5,27.9c0.2-1.1,0.5-2.1,1-3.2C18.5,25.5,18.1,26.7,18.5,27.9z"/>
		<path class="st39" d="M23.4,24.4c1.3,0.6,3.5,0.8,4-0.9C26.5,24.8,24.8,24.6,23.4,24.4z"/>
		<path class="st39" d="M23.7,24.9c1,1.5,3.2,1.3,3.9-0.4C26.6,25.8,24.9,25.9,23.7,24.9z"/>
		<path class="st39" d="M15.9,23.9c0.8,1,2.1,1.1,3,0.2C17.9,24.5,17,24.5,15.9,23.9z"/>
		<path class="st39" d="M16.2,25c0.2,0.6,0.8,0.9,1.4,0.7c0.5-0.1,1-0.6,1.3-1c0,0.1-0.9,0.5-1,0.6C17.2,25.6,16.6,25.5,16.2,25z"/>
		<path class="st40" d="M15.1,21c-1.1-5.5,3.2-9.4,6.8-7.9C22.4,17.5,17.2,20.8,15.1,21z"/>
		<path class="st41" d="M28.1,20.9l1.2,0.1c1.3-5.5-3.2-9.4-8.7-8.2C20.2,17.1,24.7,22,28.1,20.9z"/>
		<g>
			<path class="st32" d="M29.4,20.6C29.4,20.6,29.4,20.6,29.4,20.6c-0.5-0.2-0.9,0-1.3,0.3l-0.5,4.2c0,0,0.1,0,0.1,0.1
				c0.8,0.3,1.8-0.4,2.3-1.7C30.5,22.3,30.2,21,29.4,20.6z"/>
			<path class="st42" d="M27.8,25.2c0.8,0.2,1.7-0.5,2.2-1.7c0.1-0.3,0.2-0.7,0.2-1c0,0.1-0.1,0.3-0.1,0.4c-0.4,1-1.3,1.6-2.1,1.7
				C27.9,24.8,27.9,25,27.8,25.2z"/>
			<path class="st33" d="M29.7,21.6c-0.1-0.2-0.4-0.3-0.8-0.2c-0.2,0.1-0.3,0.2-0.4,0.3c-0.1,0.2-0.2,0.3-0.2,0.5c0,0.2,0,0.4,0,0.5
				c0,0.2,0,0.3,0,0.5c0,0.1,0,0.3,0,0.4c0,0.1,0,0.2-0.1,0.3c-0.1,0.4-0.4,0.5-0.3,0.6c0,0,0,0,0.1,0c0,0,0.1,0,0.1,0
				c0.1-0.1,0.3-0.2,0.4-0.4c0.1-0.1,0.1-0.2,0.1-0.4c0-0.1,0-0.2,0-0.4c0,0,0,0,0,0c0.1,0,0.1,0.1,0.2,0.2c0,0.1,0.1,0.2,0.1,0.3
				c0,0.1,0,0.2,0,0.2c0,0,0.1,0,0.2-0.1c0.1-0.1,0.1-0.4,0-0.6c-0.1-0.2-0.3-0.2-0.4-0.2c0,0,0,0,0,0c0-0.3,0-0.5,0-0.8
				c0.1-0.3,0.2-0.5,0.4-0.6c0.2-0.1,0.4,0,0.5,0.1c0.1,0.1,0.2,0.3,0.2,0.4c0,0.1,0,0.2,0,0.2c0,0,0.1-0.1,0.1-0.2
				C29.9,22.1,29.8,21.8,29.7,21.6z"/>
		</g>
	</g>
</g>
</svg>
