<?xml version="1.0" encoding="utf-8"?>
<!-- Generator: Adobe Illustrator 26.0.3, SVG Export Plug-In . SVG Version: 6.00 Build 0)  -->
<svg version="1.1" id="Layer_1" xmlns="http://www.w3.org/2000/svg" xmlns:xlink="http://www.w3.org/1999/xlink" x="0px" y="0px"
	 viewBox="0 0 69.1 96" style="enable-background:new 0 0 69.1 96;" xml:space="preserve">
<style type="text/css">
	.st0{fill:url(#SVGID_1_);}
	.st1{fill:url(#SVGID_00000132090279815226712430000011341513067937707191_);}
	.st2{fill:url(#SVGID_00000119825992594366568460000003818180332488114307_);}
	.st3{fill:url(#SVGID_00000011713885470580096560000004355477061865128639_);}
	.st4{filter:url(#Adobe_OpacityMaskFilter);}
	.st5{filter:url(#Adobe_OpacityMaskFilter_00000006673227718683650750000005039522904681813176_);}
	
		.st6{mask:url(#SVGID_00000168102336074608027380000006415665266369367727_);fill:url(#SVGID_00000028288721604732786400000007008792318426960818_);}
	.st7{opacity:0.3;fill:url(#SVGID_00000088115610145457793700000000801726426202162089_);}
	.st8{opacity:0.5;}
	.st9{filter:url(#Adobe_OpacityMaskFilter_00000054945456955729098240000015931980660336435860_);}
	.st10{filter:url(#Adobe_OpacityMaskFilter_00000005227782212942361960000017389674015024142772_);}
	
		.st11{mask:url(#SVGID_00000120528934916836382030000006301128854514140593_);fill:url(#SVGID_00000177485523254562400880000010369174769745004705_);}
	.st12{fill:url(#SVGID_00000000184901323968990420000014870285843763723453_);}
	.st13{filter:url(#Adobe_OpacityMaskFilter_00000151517897622508487190000011161248153177742500_);}
	.st14{filter:url(#Adobe_OpacityMaskFilter_00000148620486736469880230000010529602693767712162_);}
	
		.st15{mask:url(#SVGID_00000028307220856803979800000007530838545695443628_);fill:url(#SVGID_00000088851279775741383470000009359217055395917711_);}
	.st16{fill:url(#SVGID_00000065063258180284827110000008899705704548811440_);}
	.st17{filter:url(#Adobe_OpacityMaskFilter_00000033331091313539066250000007575829962261451451_);}
	.st18{filter:url(#Adobe_OpacityMaskFilter_00000143593223598663590480000014994898160999303846_);}
	
		.st19{mask:url(#SVGID_00000044881621090416117280000001408859890569817248_);fill:url(#SVGID_00000133513702493862765530000001283248724454487486_);}
	.st20{fill:url(#SVGID_00000067930565138367818050000006484925002179803266_);}
	.st21{filter:url(#Adobe_OpacityMaskFilter_00000145054689147175629700000011183347455769768125_);}
	.st22{filter:url(#Adobe_OpacityMaskFilter_00000001652541239630295590000005172263609801749428_);}
	
		.st23{mask:url(#SVGID_00000078007591553799570210000003640460110740895874_);fill:url(#SVGID_00000168820013779186697500000017361255513626870444_);}
	.st24{fill:url(#SVGID_00000139270564246352385230000013431012520266674875_);}
	.st25{clip-path:url(#SVGID_00000169555260604450947580000005431410285523399090_);fill:#00A099;}
	.st26{clip-path:url(#SVGID_00000169555260604450947580000005431410285523399090_);fill:#F7B131;}
	.st27{clip-path:url(#SVGID_00000169555260604450947580000005431410285523399090_);fill:#D2952B;}
	.st28{clip-path:url(#SVGID_00000169555260604450947580000005431410285523399090_);}
	.st29{fill:#F1BE8B;}
	.st30{fill:#E5B080;}
	.st31{fill:#CE9E74;}
	.st32{fill:#ECECEC;}
	.st33{fill:#FCC894;}
	.st34{fill:#936137;}
	.st35{fill:#3C3C3B;}
	.st36{fill:#FFFFFF;}
	.st37{fill:#F5F5F5;}
	.st38{fill:#DAA87B;}
	.st39{fill:#C2966D;}
	.st40{fill:#F0BA86;}
	.st41{opacity:0.1;fill:#1D1C1A;}
</style>
<g>
	<g>
		<linearGradient id="SVGID_1_" gradientUnits="userSpaceOnUse" x1="17.9481" y1="-5.2708" x2="56.9353" y2="85.4495">
			<stop  offset="0" style="stop-color:#FFFFFF"/>
			<stop  offset="1" style="stop-color:#007DC4"/>
		</linearGradient>
		<path class="st0" d="M34.4,86.2c-1,0-2-0.5-2.6-1.3C25.1,76.6,3.3,48.4,3.3,34c0-17.2,14-31.2,31.2-31.2c17.2,0,31.2,14,31.2,31.2
			c0,14.4-21.8,42.7-28.5,51C36.4,85.8,35.5,86.2,34.4,86.2z M34.4,9.8C21.1,9.8,10.3,20.7,10.3,34c0,13.3,10.8,24.1,24.1,24.1
			c13.3,0,24.1-10.8,24.1-24.1C58.6,20.7,47.8,9.8,34.4,9.8z"/>
		
			<linearGradient id="SVGID_00000005971033694280161860000000822986627252579766_" gradientUnits="userSpaceOnUse" x1="17.6357" y1="-5.1366" x2="56.623" y2="85.5838">
			<stop  offset="0" style="stop-color:#FFFFFF"/>
			<stop  offset="1" style="stop-color:#007DC4"/>
		</linearGradient>
		<path style="fill:url(#SVGID_00000005971033694280161860000000822986627252579766_);" d="M34.4,54.6c-11.3,0-20.6-9.2-20.6-20.6
			s9.2-20.6,20.6-20.6C45.8,13.4,55,22.6,55,34S45.8,54.6,34.4,54.6z"/>
	</g>
	
		<linearGradient id="SVGID_00000171721614937750267760000012254855802644884111_" gradientUnits="userSpaceOnUse" x1="18.1259" y1="6.0872" x2="61.8259" y2="80.1523">
		<stop  offset="0" style="stop-color:#C6E9FA"/>
		<stop  offset="1" style="stop-color:#03BBC1"/>
	</linearGradient>
	<path style="fill:url(#SVGID_00000171721614937750267760000012254855802644884111_);" d="M34.4,3.4C17.5,3.4,3.8,17.1,3.8,34
		c0,14.1,21.4,41.9,28.4,50.6c1.1,1.4,3.3,1.4,4.4,0c7-8.7,28.4-36.5,28.4-50.6C65.1,17.1,51.4,3.4,34.4,3.4z M34.4,58.7
		C20.8,58.7,9.8,47.6,9.8,34c0-13.6,11.1-24.7,24.7-24.7c13.6,0,24.7,11.1,24.7,24.7C59.1,47.6,48.1,58.7,34.4,58.7z"/>
	
		<linearGradient id="SVGID_00000018206286117281574690000012498654423959068083_" gradientUnits="userSpaceOnUse" x1="18.0237" y1="6.1475" x2="61.7237" y2="80.2125">
		<stop  offset="0" style="stop-color:#C6E9FA"/>
		<stop  offset="1" style="stop-color:#03BBC1"/>
	</linearGradient>
	<circle style="fill:url(#SVGID_00000018206286117281574690000012498654423959068083_);" cx="34.4" cy="34" r="20"/>
	<defs>
		<filter id="Adobe_OpacityMaskFilter" filterUnits="userSpaceOnUse" x="15.2" y="90.1" width="38.6" height="4.9">
			<feFlood  style="flood-color:white;flood-opacity:1" result="back"/>
			<feBlend  in="SourceGraphic" in2="back" mode="normal"/>
		</filter>
	</defs>
	
		<mask maskUnits="userSpaceOnUse" x="15.2" y="90.1" width="38.6" height="4.9" id="SVGID_00000099626180836563290170000018258498404616637608_">
		<g class="st4">
			<defs>
				
					<filter id="Adobe_OpacityMaskFilter_00000072962573199438116200000004783516059075867050_" filterUnits="userSpaceOnUse" x="15.2" y="90.1" width="38.6" height="4.9">
					<feFlood  style="flood-color:white;flood-opacity:1" result="back"/>
					<feBlend  in="SourceGraphic" in2="back" mode="normal"/>
				</filter>
			</defs>
			
				<mask maskUnits="userSpaceOnUse" x="15.2" y="90.1" width="38.6" height="4.9" id="SVGID_00000099626180836563290170000018258498404616637608_">
				<g style="filter:url(#Adobe_OpacityMaskFilter_00000072962573199438116200000004783516059075867050_);">
				</g>
			</mask>
			
				<radialGradient id="SVGID_00000046326772727991271240000010029516690934941601_" cx="34.448" cy="1523.0549" r="19.2822" gradientTransform="matrix(1 0 0 0.1264 0 -99.9954)" gradientUnits="userSpaceOnUse">
				<stop  offset="0" style="stop-color:#FFFFFF"/>
				<stop  offset="1" style="stop-color:#000000"/>
			</radialGradient>
			
				<ellipse style="mask:url(#SVGID_00000099626180836563290170000018258498404616637608_);fill:url(#SVGID_00000046326772727991271240000010029516690934941601_);" cx="34.4" cy="92.5" rx="19.3" ry="2.4"/>
		</g>
	</mask>
	
		<radialGradient id="SVGID_00000121245237417364339000000002680968575965551520_" cx="34.448" cy="1523.0549" r="19.2822" gradientTransform="matrix(1 0 0 0.1264 0 -99.9954)" gradientUnits="userSpaceOnUse">
		<stop  offset="0" style="stop-color:#231F20"/>
		<stop  offset="1" style="stop-color:#231F20"/>
	</radialGradient>
	
		<ellipse style="opacity:0.3;fill:url(#SVGID_00000121245237417364339000000002680968575965551520_);" cx="34.4" cy="92.5" rx="19.3" ry="2.4"/>
	<g class="st8">
		<defs>
			
				<filter id="Adobe_OpacityMaskFilter_00000065067317322613445980000002205929096422792089_" filterUnits="userSpaceOnUse" x="3.8" y="3.4" width="45.8" height="60.8">
				<feFlood  style="flood-color:white;flood-opacity:1" result="back"/>
				<feBlend  in="SourceGraphic" in2="back" mode="normal"/>
			</filter>
		</defs>
		
			<mask maskUnits="userSpaceOnUse" x="3.8" y="3.4" width="45.8" height="60.8" id="SVGID_00000070120257219385212790000007757787526693726337_">
			<g style="filter:url(#Adobe_OpacityMaskFilter_00000065067317322613445980000002205929096422792089_);">
				<defs>
					
						<filter id="Adobe_OpacityMaskFilter_00000170265104980804418630000001189585442246714511_" filterUnits="userSpaceOnUse" x="3.8" y="3.4" width="45.8" height="60.8">
						<feFlood  style="flood-color:white;flood-opacity:1" result="back"/>
						<feBlend  in="SourceGraphic" in2="back" mode="normal"/>
					</filter>
				</defs>
				
					<mask maskUnits="userSpaceOnUse" x="3.8" y="3.4" width="45.8" height="60.8" id="SVGID_00000070120257219385212790000007757787526693726337_">
					<g style="filter:url(#Adobe_OpacityMaskFilter_00000170265104980804418630000001189585442246714511_);">
					</g>
				</mask>
				
					<linearGradient id="SVGID_00000130616369235321279230000006203143499598194827_" gradientUnits="userSpaceOnUse" x1="61.2394" y1="56.9069" x2="16.6559" y2="23.0877">
					<stop  offset="0" style="stop-color:#FFFFFF"/>
					<stop  offset="1" style="stop-color:#000000"/>
				</linearGradient>
				
					<path style="mask:url(#SVGID_00000070120257219385212790000007757787526693726337_);fill:url(#SVGID_00000130616369235321279230000006203143499598194827_);" d="
					M9.8,34c0-13.6,11.1-24.7,24.7-24.7c5.7,0,11,2,15.2,5.2c0.1-2.5-0.1-5-0.5-7.4c-4.4-2.4-9.4-3.8-14.7-3.8
					C17.5,3.4,3.8,17.1,3.8,34c0,7.8,6.4,19.6,13.4,30.2c3.6-1.6,7.2-3.7,10.5-6.4C17.4,54.8,9.8,45.3,9.8,34z"/>
			</g>
		</mask>
		
			<linearGradient id="SVGID_00000018217763435947285050000016246228115646246816_" gradientUnits="userSpaceOnUse" x1="61.2394" y1="56.9069" x2="16.6559" y2="23.0877">
			<stop  offset="0" style="stop-color:#FFFFFF"/>
			<stop  offset="1" style="stop-color:#FFFFFF"/>
		</linearGradient>
		<path style="fill:url(#SVGID_00000018217763435947285050000016246228115646246816_);" d="M9.8,34c0-13.6,11.1-24.7,24.7-24.7
			c5.7,0,11,2,15.2,5.2c0.1-2.5-0.1-5-0.5-7.4c-4.4-2.4-9.4-3.8-14.7-3.8C17.5,3.4,3.8,17.1,3.8,34c0,7.8,6.4,19.6,13.4,30.2
			c3.6-1.6,7.2-3.7,10.5-6.4C17.4,54.8,9.8,45.3,9.8,34z"/>
		<defs>
			
				<filter id="Adobe_OpacityMaskFilter_00000070812285200352400940000002899449838790750117_" filterUnits="userSpaceOnUse" x="3.8" y="3.4" width="45.8" height="60.8">
				<feFlood  style="flood-color:white;flood-opacity:1" result="back"/>
				<feBlend  in="SourceGraphic" in2="back" mode="normal"/>
			</filter>
		</defs>
		
			<mask maskUnits="userSpaceOnUse" x="3.8" y="3.4" width="45.8" height="60.8" id="SVGID_00000132771846292799784410000017666385617254497725_">
			<g style="filter:url(#Adobe_OpacityMaskFilter_00000070812285200352400940000002899449838790750117_);">
				<defs>
					
						<filter id="Adobe_OpacityMaskFilter_00000083783448967510541950000010580908156304711081_" filterUnits="userSpaceOnUse" x="3.8" y="3.4" width="45.8" height="60.8">
						<feFlood  style="flood-color:white;flood-opacity:1" result="back"/>
						<feBlend  in="SourceGraphic" in2="back" mode="normal"/>
					</filter>
				</defs>
				
					<mask maskUnits="userSpaceOnUse" x="3.8" y="3.4" width="45.8" height="60.8" id="SVGID_00000132771846292799784410000017666385617254497725_">
					<g style="filter:url(#Adobe_OpacityMaskFilter_00000083783448967510541950000010580908156304711081_);">
					</g>
				</mask>
				
					<linearGradient id="SVGID_00000099641957271208161790000008724112491024125852_" gradientUnits="userSpaceOnUse" x1="182.757" y1="65.3109" x2="138.1723" y2="31.4909" gradientTransform="matrix(0.8666 0.499 -0.499 0.8666 -63.9281 -41.1968)">
					<stop  offset="0" style="stop-color:#FFFFFF"/>
					<stop  offset="1" style="stop-color:#000000"/>
				</linearGradient>
				
					<path style="mask:url(#SVGID_00000132771846292799784410000017666385617254497725_);fill:url(#SVGID_00000099641957271208161790000008724112491024125852_);" d="
					M9.8,34c0-13.6,11.1-24.7,24.7-24.7c5.7,0,11,2,15.2,5.2c0.1-2.5-0.1-5-0.5-7.4c-4.4-2.4-9.4-3.8-14.7-3.8
					C17.5,3.4,3.8,17.1,3.8,34c0,7.8,6.4,19.6,13.4,30.2c3.6-1.6,7.2-3.7,10.5-6.4C17.4,54.8,9.8,45.3,9.8,34z"/>
			</g>
		</mask>
		
			<linearGradient id="SVGID_00000026162018783654356300000017590033099225346483_" gradientUnits="userSpaceOnUse" x1="182.757" y1="65.3109" x2="138.1723" y2="31.4909" gradientTransform="matrix(0.8666 0.499 -0.499 0.8666 -63.9281 -41.1968)">
			<stop  offset="0" style="stop-color:#FFFFFF"/>
			<stop  offset="1" style="stop-color:#FFFFFF"/>
		</linearGradient>
		<path style="fill:url(#SVGID_00000026162018783654356300000017590033099225346483_);" d="M9.8,34c0-13.6,11.1-24.7,24.7-24.7
			c5.7,0,11,2,15.2,5.2c0.1-2.5-0.1-5-0.5-7.4c-4.4-2.4-9.4-3.8-14.7-3.8C17.5,3.4,3.8,17.1,3.8,34c0,7.8,6.4,19.6,13.4,30.2
			c3.6-1.6,7.2-3.7,10.5-6.4C17.4,54.8,9.8,45.3,9.8,34z"/>
		<defs>
			
				<filter id="Adobe_OpacityMaskFilter_00000041981192080996127390000001141809623518923183_" filterUnits="userSpaceOnUse" x="14.4" y="14" width="34.7" height="39.9">
				<feFlood  style="flood-color:white;flood-opacity:1" result="back"/>
				<feBlend  in="SourceGraphic" in2="back" mode="normal"/>
			</filter>
		</defs>
		
			<mask maskUnits="userSpaceOnUse" x="14.4" y="14" width="34.7" height="39.9" id="SVGID_00000060747008755328605890000015629277733602032567_">
			<g style="filter:url(#Adobe_OpacityMaskFilter_00000041981192080996127390000001141809623518923183_);">
				<defs>
					
						<filter id="Adobe_OpacityMaskFilter_00000140711660679568352240000010057773058789379732_" filterUnits="userSpaceOnUse" x="14.4" y="14" width="34.7" height="39.9">
						<feFlood  style="flood-color:white;flood-opacity:1" result="back"/>
						<feBlend  in="SourceGraphic" in2="back" mode="normal"/>
					</filter>
				</defs>
				
					<mask maskUnits="userSpaceOnUse" x="14.4" y="14" width="34.7" height="39.9" id="SVGID_00000060747008755328605890000015629277733602032567_">
					<g style="filter:url(#Adobe_OpacityMaskFilter_00000140711660679568352240000010057773058789379732_);">
					</g>
				</mask>
				
					<linearGradient id="SVGID_00000104687287379090670510000002537912158915568311_" gradientUnits="userSpaceOnUse" x1="62.4879" y1="55.2611" x2="17.9043" y2="21.4418">
					<stop  offset="0" style="stop-color:#FFFFFF"/>
					<stop  offset="1" style="stop-color:#000000"/>
				</linearGradient>
				
					<path style="mask:url(#SVGID_00000060747008755328605890000015629277733602032567_);fill:url(#SVGID_00000104687287379090670510000002537912158915568311_);" d="
					M41.8,41.2c3.9-6.8,6.3-13.9,7.3-20.8c-3.7-4-8.9-6.4-14.7-6.4c-11.1,0-20,9-20,20c0,10.3,7.7,18.7,17.7,19.9
					C35.8,50.3,39.1,46,41.8,41.2z"/>
			</g>
		</mask>
		
			<linearGradient id="SVGID_00000019645719362574372150000013439375623926921634_" gradientUnits="userSpaceOnUse" x1="62.4879" y1="55.2611" x2="17.9043" y2="21.4418">
			<stop  offset="0" style="stop-color:#FFFFFF"/>
			<stop  offset="1" style="stop-color:#FFFFFF"/>
		</linearGradient>
		<path style="fill:url(#SVGID_00000019645719362574372150000013439375623926921634_);" d="M41.8,41.2c3.9-6.8,6.3-13.9,7.3-20.8
			c-3.7-4-8.9-6.4-14.7-6.4c-11.1,0-20,9-20,20c0,10.3,7.7,18.7,17.7,19.9C35.8,50.3,39.1,46,41.8,41.2z"/>
		<defs>
			
				<filter id="Adobe_OpacityMaskFilter_00000180346966070283316940000015698580730178990732_" filterUnits="userSpaceOnUse" x="14.4" y="14" width="34.7" height="39.9">
				<feFlood  style="flood-color:white;flood-opacity:1" result="back"/>
				<feBlend  in="SourceGraphic" in2="back" mode="normal"/>
			</filter>
		</defs>
		
			<mask maskUnits="userSpaceOnUse" x="14.4" y="14" width="34.7" height="39.9" id="SVGID_00000050623341042696322390000012654278864588805285_">
			<g style="filter:url(#Adobe_OpacityMaskFilter_00000180346966070283316940000015698580730178990732_);">
				<defs>
					
						<filter id="Adobe_OpacityMaskFilter_00000019658665674202979780000010138908042754883216_" filterUnits="userSpaceOnUse" x="14.4" y="14" width="34.7" height="39.9">
						<feFlood  style="flood-color:white;flood-opacity:1" result="back"/>
						<feBlend  in="SourceGraphic" in2="back" mode="normal"/>
					</filter>
				</defs>
				
					<mask maskUnits="userSpaceOnUse" x="14.4" y="14" width="34.7" height="39.9" id="SVGID_00000050623341042696322390000012654278864588805285_">
					<g style="filter:url(#Adobe_OpacityMaskFilter_00000019658665674202979780000010138908042754883216_);">
					</g>
				</mask>
				
					<linearGradient id="SVGID_00000041981114278466784470000001649570594348212383_" gradientUnits="userSpaceOnUse" x1="184.1906" y1="63.4184" x2="139.6065" y2="29.5989" gradientTransform="matrix(0.8666 0.499 -0.499 0.8666 -63.9281 -41.1968)">
					<stop  offset="0" style="stop-color:#FFFFFF"/>
					<stop  offset="1" style="stop-color:#000000"/>
				</linearGradient>
				
					<path style="mask:url(#SVGID_00000050623341042696322390000012654278864588805285_);fill:url(#SVGID_00000041981114278466784470000001649570594348212383_);" d="
					M41.8,41.2c3.9-6.8,6.3-13.9,7.3-20.8c-3.7-4-8.9-6.4-14.7-6.4c-11.1,0-20,9-20,20c0,10.3,7.7,18.7,17.7,19.9
					C35.8,50.3,39.1,46,41.8,41.2z"/>
			</g>
		</mask>
		
			<linearGradient id="SVGID_00000164515874446893165490000013945216869745355396_" gradientUnits="userSpaceOnUse" x1="184.1906" y1="63.4184" x2="139.6065" y2="29.5989" gradientTransform="matrix(0.8666 0.499 -0.499 0.8666 -63.9281 -41.1968)">
			<stop  offset="0" style="stop-color:#FFFFFF"/>
			<stop  offset="1" style="stop-color:#FFFFFF"/>
		</linearGradient>
		<path style="fill:url(#SVGID_00000164515874446893165490000013945216869745355396_);" d="M41.8,41.2c3.9-6.8,6.3-13.9,7.3-20.8
			c-3.7-4-8.9-6.4-14.7-6.4c-11.1,0-20,9-20,20c0,10.3,7.7,18.7,17.7,19.9C35.8,50.3,39.1,46,41.8,41.2z"/>
	</g>
	<g>
		<defs>
			<circle id="SVGID_00000095320755902424989250000005719192302249755326_" cx="34.4" cy="33.2" r="20.5"/>
		</defs>
		<clipPath id="SVGID_00000130623642662986680950000003930884240855675031_">
			<use xlink:href="#SVGID_00000095320755902424989250000005719192302249755326_"  style="overflow:visible;"/>
		</clipPath>
		<path style="clip-path:url(#SVGID_00000130623642662986680950000003930884240855675031_);fill:#00A099;" d="M51.8,64.9l-33.6-4
			l-0.1-14c0.8-5.7,6.4-12.5,13-12.5h0.2c5.1,0,10.1,3.2,13.7,7.6C54.5,53.4,52.4,53.5,51.8,64.9z"/>
		<polygon style="clip-path:url(#SVGID_00000130623642662986680950000003930884240855675031_);fill:#F7B131;" points="38.1,51.9 
			32.4,42.9 38.6,42 		"/>
		<path style="clip-path:url(#SVGID_00000130623642662986680950000003930884240855675031_);fill:#D2952B;" d="M41.9,45.6l-6.3-1.9
			L32,48.6c-6.2-3.8-9-9.4-6.7-12.9l9.5-1.2C38.7,37.5,40.8,41.3,41.9,45.6z"/>
		<g style="clip-path:url(#SVGID_00000130623642662986680950000003930884240855675031_);">
			<g>
				<path class="st29" d="M45.2,26.7C45.2,26.7,45.2,26.6,45.2,26.7c-0.7-0.3-1.4-0.1-2,0.5l-0.6,7.2c0.1,0,0.1,0.1,0.2,0.1
					c1.2,0.6,2.7-0.6,3.4-2.8C46.9,29.5,46.4,27.3,45.2,26.7z"/>
				<path class="st30" d="M46.5,30c-0.1,0.2-0.1,0.4-0.2,0.7c-0.7,1.9-2.2,3-3.7,2.8l-0.4,0.7c0.1,0,0.5,0.3,0.5,0.3
					c1.2,0.6,2.7-0.6,3.4-2.8C46.4,31.1,46.5,30.5,46.5,30z"/>
				<path class="st31" d="M45.7,28.4C45.5,28,45,27.8,44.5,28c-0.2,0.1-0.5,0.3-0.6,0.6c-0.2,0.3-0.3,0.6-0.3,0.9
					c-0.1,0.3,0,0.6,0,0.9c0,0.3,0,0.6,0,0.8c0,0.3,0,0.5,0,0.7c0,0.2,0,0.4-0.1,0.6c-0.2,0.7-0.5,0.8-0.5,0.9c0,0,0,0,0.1,0
					c0,0,0.1,0,0.2-0.1c0.2-0.1,0.4-0.3,0.5-0.7c0.1-0.2,0.1-0.4,0.2-0.7c0-0.2,0-0.4,0-0.6c0,0,0,0,0,0c0.1,0.1,0.2,0.1,0.3,0.3
					c0.1,0.1,0.1,0.3,0.1,0.4c0,0.1,0,0.3,0.1,0.3c0,0.1,0.2,0,0.3-0.2c0.1-0.2,0.1-0.6-0.1-0.9c-0.2-0.3-0.5-0.4-0.7-0.3
					c0,0,0,0,0,0c0-0.4,0-0.9,0-1.3c0.1-0.5,0.3-0.9,0.6-1c0.3-0.1,0.6,0,0.8,0.2c0.2,0.2,0.3,0.5,0.3,0.7c0,0.2,0,0.3,0.1,0.3
					c0,0,0.1-0.1,0.1-0.3C45.9,29.1,45.9,28.8,45.7,28.4z"/>
			</g>
			<path class="st32" d="M45.1,29.2c0.2-0.4,1-1.8,1.1-2.4c0.1-0.8,0.2-2,0-2.9c-0.6-3.6-2.4-4.1-3.1-4c0.2,0.7,1.6,1.9,1.2,2.5
				c-0.2,0.4-0.5,0.6-0.9,0.8c-0.3,0.1-0.5,0.6-0.4,1.1c0.6,3,0.7,6.2,0.2,9.3c0.4,0.4,1.1,0.2,1.4-0.4c0.3-0.6,0.3-1.3,0.3-2
				C44.9,30.5,44.9,29.8,45.1,29.2z"/>
			<path class="st33" d="M43.9,32.3c0-1,0.2-2.1,0.5-3c0.4-1.2,0.6-2.5,0.6-3.7c0-6-4.8-9.3-10.7-9.3s-10.7,3.3-10.7,9.3
				c0,1.7,0.4,3.5,1.1,5.1c0,0.1,0,0.3,0,0.4c-0.2,2.8,1.2,7.6,2.9,9.9c1.7,2.3,2.7,1.2,5.2,2.6c1.7,1,5,1,6.2-0.3
				c1.3-1.3,2.3-1.1,3.1-2.5C43.4,38.7,43.9,35.9,43.9,32.3z"/>
			<g>
				<path class="st34" d="M39.6,30.3c0,0.7,0.6,1.2,1.4,1.2c0.7,0,1.4-0.5,1.4-1.2c0-0.7-0.6-1.2-1.4-1.2
					C40.2,29.1,39.6,29.7,39.6,30.3z"/>
				<path class="st35" d="M40.2,30.3c0,0.4,0.3,0.7,0.7,0.7c0.4,0,0.7-0.3,0.7-0.7c0-0.4-0.3-0.7-0.7-0.7
					C40.6,29.6,40.2,29.9,40.2,30.3z"/>
				<path class="st36" d="M41.4,30.8c0,0.1,0.1,0.3,0.3,0.3l0,0c0.1,0,0.3-0.1,0.3-0.3l0,0c0-0.1-0.1-0.3-0.3-0.3l0,0
					C41.5,30.5,41.4,30.6,41.4,30.8L41.4,30.8z"/>
				<path class="st36" d="M40,29.7c0,0.2,0.2,0.4,0.4,0.4l0,0c0.2,0,0.4-0.2,0.4-0.4l0,0c0-0.2-0.2-0.4-0.4-0.4l0,0
					C40.2,29.3,40,29.5,40,29.7L40,29.7z"/>
			</g>
			<g>
				<path class="st34" d="M31.7,30.3c0,0.7,0.6,1.2,1.4,1.2c0.7,0,1.4-0.5,1.4-1.2c0-0.7-0.6-1.2-1.4-1.2
					C32.3,29.1,31.7,29.7,31.7,30.3z"/>
				<path class="st35" d="M32.3,30.3c0,0.4,0.3,0.7,0.7,0.7c0.4,0,0.7-0.3,0.7-0.7c0-0.4-0.3-0.7-0.7-0.7
					C32.6,29.6,32.3,29.9,32.3,30.3z"/>
				<path class="st36" d="M33.4,30.8c0,0.1,0.1,0.3,0.3,0.3l0,0c0.1,0,0.3-0.1,0.3-0.3l0,0c0-0.1-0.1-0.3-0.3-0.3l0,0
					C33.6,30.5,33.4,30.6,33.4,30.8L33.4,30.8z"/>
				<path class="st36" d="M32,29.7c0,0.2,0.2,0.4,0.4,0.4l0,0c0.2,0,0.4-0.2,0.4-0.4l0,0c0-0.2-0.2-0.4-0.4-0.4l0,0
					C32.2,29.3,32,29.5,32,29.7L32,29.7z"/>
			</g>
			<path class="st37" d="M35.7,29.4c-0.9,0.1-1.9-0.9-5.8,1.1c-0.8,0.4-1.1-0.4-0.5-0.7c0.6-0.5,1.8-1.1,3-1.6
				c1.2-0.4,3-0.8,3.6-0.1C36.3,28.4,36.4,29.4,35.7,29.4z"/>
			<path class="st37" d="M38.1,29.3c0.8,0.1,1.8-1,5.4,0.9c0.7,0.4,1-0.4,0.5-0.7c-0.6-0.5-1.6-1.1-2.8-1.5c-1.1-0.4-2.8-0.7-3.4,0
				C37.7,28.3,37.5,29.4,38.1,29.3z"/>
			<g>
				<path class="st38" d="M38.1,40.8c0,0.2-0.6,0.8-1.4,0.8c-0.8,0-1.5-0.6-1.5-0.7c0-0.2,0.6,0.2,1.4,0.1
					C37.4,41,38.1,40.7,38.1,40.8z"/>
				<g>
					<path class="st39" d="M39.7,39.7c0,0.2-1.3,0.3-3,0.3c-0.4,0-0.8,0-1.2,0c-0.2,0-0.3,0-0.5,0c-0.1,0-0.3,0-0.4,0c0,0,0,0,0-0.1
						c0,0,0,0,0,0c0,0,0,0,0,0c0,0,0,0.1-0.1,0.1c0,0.1-0.1,0.2-0.1,0.2c-0.1,0.1-0.1,0.2-0.2,0.2c0,0-0.1-0.1-0.1-0.2
						c0-0.1,0-0.1,0-0.2c0-0.1,0-0.1,0-0.2c0,0,0.1-0.1,0.1-0.1c0.1,0,0.1-0.1,0.2-0.1c0.1,0,0.2,0,0.3,0c0.1,0,0.2,0,0.2,0
						c0.2,0,0.3,0,0.5-0.1c0.4,0,0.8-0.1,1.2-0.1C38.4,39.4,39.7,39.6,39.7,39.7z"/>
				</g>
			</g>
			<path class="st37" d="M38.6,36.2c-0.1,0-0.2-0.1-0.2-0.1c-0.3,0.3-0.7,0.5-1.2,0.5h0c-0.6,0-1.1-0.3-1.4-0.7
				c-0.5,0.1-0.9,0.2-1.3,0.5c-1.3,0.7-2.1,2-2.1,3.3c2.9-0.6,5.8-0.7,8.7-0.3C40.8,38,39.9,36.8,38.6,36.2z"/>
			<path class="st38" d="M38.3,33.6c0.1,0.7,0.2,1.7-0.2,2.2c-0.4,0.6-1.2,0.5-1.8,0.1c-0.6-0.3-1-0.9-1.5-1.5
				c0.3,0.6,0.5,1.2,0.9,1.6c2,2.1,3.6,0.3,3.5-1.3c-0.1-1.9-0.7-3.8-1.7-5.4C37.8,30.8,38.1,32.2,38.3,33.6z"/>
			<path class="st32" d="M24.4,29.2c-0.2-0.4-1.3-1.8-1.4-2.4c-0.1-0.8,0-1.9,0-2.9c0-3.4,1.1-3.7,2.1-3.6c-0.3,0.7-0.1,1.5,0.3,2.1
				c0.3,0.4,0.7,0.6,1.2,0.8c0.4,0.1,0.7,0.6,0.6,1.1c-0.8,3-0.9,6.2-0.3,9.3c-0.5,0.4-1.4,0.2-1.8-0.4c-0.4-0.6-0.4-1.3-0.4-2
				C24.7,30.5,24.7,29.8,24.4,29.2z"/>
			<g>
				<path class="st33" d="M22.2,26.9C22.2,26.9,22.2,26.9,22.2,26.9c0.8-0.3,1.6-0.1,2.3,0.5l0.8,7.2c-0.1,0-0.1,0.1-0.2,0.1
					c-1.4,0.6-3.1-0.7-3.9-2.8C20.4,29.8,20.8,27.5,22.2,26.9z"/>
				<path class="st40" d="M20.8,30.2c0.1,0.2,0.1,0.5,0.2,0.7c0.8,1.9,2.6,3,4.2,2.9l0.5,0.8c-0.1,0-0.5,0.3-0.6,0.3
					c-1.4,0.6-3.1-0.7-3.9-2.8C21,31.3,20.8,30.8,20.8,30.2z"/>
				<path class="st38" d="M21.7,28.6c0.2-0.4,0.8-0.6,1.3-0.4c0.3,0.1,0.5,0.3,0.7,0.6c0.2,0.3,0.3,0.6,0.4,0.9
					c0.1,0.3,0.1,0.6,0.1,0.9c0,0.3,0,0.6,0,0.8c0,0.3,0,0.5,0,0.7c0,0.2,0.1,0.4,0.1,0.6c0.2,0.7,0.6,0.9,0.6,1c0,0,0,0-0.1,0
					c-0.1,0-0.1,0-0.2-0.1c-0.2-0.1-0.4-0.3-0.6-0.7c-0.1-0.2-0.2-0.4-0.2-0.7c0-0.2,0-0.4,0-0.6c0,0,0,0,0,0
					c-0.1,0-0.3,0.1-0.3,0.3c-0.1,0.1-0.1,0.3-0.1,0.4c0,0.1,0,0.3-0.1,0.3c0,0.1-0.2,0-0.3-0.2c-0.1-0.2-0.2-0.6,0-0.9
					c0.2-0.3,0.6-0.4,0.8-0.3c0,0,0,0,0,0c0-0.4,0-0.9-0.1-1.3c-0.1-0.5-0.4-0.9-0.7-1.1c-0.3-0.1-0.7,0-0.9,0.2
					c-0.2,0.2-0.3,0.5-0.3,0.7c0,0.2,0,0.3-0.1,0.3c0,0-0.1-0.1-0.1-0.3C21.4,29.4,21.5,29,21.7,28.6z"/>
			</g>
			<g>
				<path class="st41" d="M43.6,27.5c-2.3-0.5-4.5-0.8-6.9-0.8c-2.3,0.1-4.6,0.5-6.8,1.2c2.2-1,4.4-1.7,6.8-1.8
					C39.1,26,41.4,26.6,43.6,27.5z"/>
				<path class="st41" d="M42.4,26.1c-1.9-0.7-3.7-1.1-5.8-1.1c-2,0.1-3.9,0.6-5.7,1.3c1.8-1.1,3.6-1.8,5.7-1.9
					C38.8,24.4,40.6,25,42.4,26.1z"/>
				<path class="st41" d="M41.6,24.3c-1.6-0.4-3.1-0.7-4.8-0.6c-1.6,0.1-3.2,0.4-4.8,0.8C35.1,22.7,38.5,22.6,41.6,24.3z"/>
				<path class="st41" d="M30.5,41.1c-1.3-3,2.1-5.6,4.1-7.1c-0.8,1.1-1.7,2.1-2.6,3.1C31,38.3,30.3,39.6,30.5,41.1z"/>
				<path class="st41" d="M42.4,39.2c-0.1-1-1-1.7-1.7-2.5c-0.5-0.7-1-1.4-1.4-2.2c0.7,0.5,1.3,1.1,1.9,1.8c0.4,0.5,0.9,1,1.1,1.6
					C42.3,38.1,42.6,39.1,42.4,39.2z"/>
				<path class="st41" d="M34.8,31.4c-1.8,2-4.5,2.3-6.8,0.9C30.4,32.8,32.5,32.6,34.8,31.4z"/>
				<path class="st41" d="M34.2,32.4c-1.4,2.3-4.2,2.8-6.3,1.2c1.1,0.3,2.2,0.5,3.3,0.4C32.4,33.7,33.3,33.1,34.2,32.4z"/>
				<path class="st41" d="M43.2,32.3c-1.4,1.1-3.3,0.6-4-1.1C40.5,32.2,41.7,32.5,43.2,32.3z"/>
				<path class="st41" d="M43.4,33.9c0,0.2-0.5,0.4-0.6,0.4c-0.5,0.2-1.1,0.1-1.6-0.1c-0.9-0.4-1.6-1-1.9-1.9
					C40.2,33,42,34.5,43.4,33.9z"/>
			</g>
		</g>
	</g>
</g>
</svg>
