<?xml version="1.0" encoding="utf-8"?>
<!-- Generator: Adobe Illustrator 26.0.3, SVG Export Plug-In . SVG Version: 6.00 Build 0)  -->
<svg version="1.1" id="Layer_1" xmlns="http://www.w3.org/2000/svg" xmlns:xlink="http://www.w3.org/1999/xlink" x="0px" y="0px"
	 viewBox="0 0 105 105" style="enable-background:new 0 0 105 105;" xml:space="preserve">
<style type="text/css">
	.st0{fill:#5D77FF;}
	.st1{fill-rule:evenodd;clip-rule:evenodd;fill:#FFFFFF;}
</style>
<path class="st0" d="M9.7,56.5l24.9-43.2c2.8-4.8,8.9-6.4,13.7-3.7l43.2,24.9c4.8,2.8,6.4,8.9,3.7,13.7L70.2,91.4
	c-2.8,4.8-8.9,6.4-13.7,3.7L13.3,70.2C8.6,67.4,6.9,61.3,9.7,56.5z"/>
<g id="XMLID_810_">
	<path id="XMLID_811_" class="st1" d="M69.8,71.6c-0.9-1.1-5.2-6.4-6-7.3c-0.9-0.9-1.5-1.4-2.8-0.6c-1.3,0.8-4.6,2.3-5.6,2.7
		c-1,0.4-1.7,0.2-2.6-0.9c-0.9-1.1-4-4-6.5-9.8c-2-4.5-2.5-9.3-2.7-10.7c-0.1-1.4,0.7-1.8,1.6-2.1c0.8-0.3,1.7-0.8,2.6-1.2
		c0.2-0.1,0.5-0.2,0.7-0.3c0.5-0.3,0.8-0.6,1.3-1c0.7-0.6,0.8-1.3,0.8-2c0-0.7,0.3-7.3,0.4-10c0.1-2.7-1-2.7-1.7-3
		c-0.6-0.3-1.4-0.8-2.1-1.1c-0.8-0.4-2.1-0.6-3.7,0c-1.6,0.6-5.7,2-8.3,7.5c-0.6,1.3-1,2.7-1.2,4.1c-0.7,4.5,0.2,8.9,0.4,9.7
		c0.2,1,2,16.1,11.4,26c9.4,9.8,10.1,8.3,12.3,9.1c2.2,0.8,8,0.4,10.1-1.8c2.2-2.2,3.2-4.4,3.2-5C71.3,73.3,70.6,72.7,69.8,71.6z"/>
</g>
</svg>
