<?xml version="1.0" encoding="utf-8"?>
<!-- Generator: Adobe Illustrator 26.0.3, SVG Export Plug-In . SVG Version: 6.00 Build 0)  -->
<svg version="1.1" id="Layer_2" xmlns="http://www.w3.org/2000/svg" xmlns:xlink="http://www.w3.org/1999/xlink" x="0px" y="0px"
	 viewBox="0 0 174 290" style="enable-background:new 0 0 174 290;" xml:space="preserve">
<style type="text/css">
	.st0{fill:url(#SVGID_1_);}
	.st1{fill:url(#SVGID_00000024716954511925770630000003394569718504075199_);}
	.st2{fill:url(#SVGID_00000147189872349715429630000016605233195479163527_);}
	.st3{fill:url(#SVGID_00000023981329070400154010000008982413816891403709_);}
	.st4{opacity:0.5;}
	.st5{filter:url(#Adobe_OpacityMaskFilter);}
	.st6{filter:url(#Adobe_OpacityMaskFilter_00000009587847524443908760000015852431562263784577_);}
	
		.st7{mask:url(#SVGID_00000159438955466904958300000011823411505366801281_);fill:url(#SVGID_00000026126854455479351000000016621961622203149205_);}
	.st8{fill:url(#SVGID_00000175291492992620272970000011995456727223789478_);}
	.st9{filter:url(#Adobe_OpacityMaskFilter_00000031924159584123011870000016871385556541545134_);}
	.st10{filter:url(#Adobe_OpacityMaskFilter_00000113340167328000204130000006689239401785469071_);}
	
		.st11{mask:url(#SVGID_00000054952197757701342820000010031875590229854896_);fill:url(#SVGID_00000175316986687383776000000013205110780434994307_);}
	.st12{fill:url(#SVGID_00000101784130016560974150000012331531206447115443_);}
	.st13{filter:url(#Adobe_OpacityMaskFilter_00000044159371284031427230000015513928537678765717_);}
	.st14{filter:url(#Adobe_OpacityMaskFilter_00000178896472208624036020000016681328475105006511_);}
	
		.st15{mask:url(#SVGID_00000011747539050866279110000005994906576232272014_);fill:url(#SVGID_00000180362860789221819850000014643904169654607526_);}
	.st16{fill:url(#SVGID_00000047034481363514451570000000646348492855490709_);}
	.st17{filter:url(#Adobe_OpacityMaskFilter_00000111895162252561802200000003317958070873895594_);}
	.st18{filter:url(#Adobe_OpacityMaskFilter_00000018940998685266678460000002114622643924070810_);}
	
		.st19{mask:url(#SVGID_00000108272386577124953080000005401192236749629839_);fill:url(#SVGID_00000053511396823244985330000000213633212978701737_);}
	.st20{fill:url(#SVGID_00000143599513906423334620000012598972208703599786_);}
	.st21{fill:#F4B78E;}
	.st22{fill:#F5DCD5;}
	.st23{fill:#F2A57F;}
	.st24{fill:#9D715E;}
	.st25{fill:#2F1806;}
	.st26{fill:#FFFFFF;}
	.st27{fill:#F27D7F;}
	.st28{fill:#F4A485;}
	.st29{fill:#466DAF;}
</style>
<g>
	<g>
		<linearGradient id="SVGID_1_" gradientUnits="userSpaceOnUse" x1="42.9839" y1="1.6834" x2="145.8073" y2="240.9456">
			<stop  offset="0" style="stop-color:#FFFFFF"/>
			<stop  offset="1" style="stop-color:#412874"/>
		</linearGradient>
		<path class="st0" d="M86.5,242.99c-2.72,0-5.26-1.21-6.96-3.34C61.88,217.7,4.27,143.12,4.27,105.21
			c0-45.34,36.89-82.23,82.23-82.23c45.34,0,82.23,36.89,82.23,82.23c0,37.91-57.61,112.48-75.27,134.44
			C91.76,241.77,89.22,242.99,86.5,242.99z M86.5,41.54c-35.11,0-63.67,28.56-63.67,63.67c0,35.11,28.56,63.67,63.67,63.67
			s63.67-28.56,63.67-63.67C150.17,70.11,121.61,41.54,86.5,41.54z"/>
		
			<linearGradient id="SVGID_00000076578229126832672840000004142159107555871880_" gradientUnits="userSpaceOnUse" x1="42.1602" y1="2.0368" x2="144.9839" y2="241.2997">
			<stop  offset="0" style="stop-color:#FFFFFF"/>
			<stop  offset="1" style="stop-color:#412874"/>
		</linearGradient>
		<path style="fill:url(#SVGID_00000076578229126832672840000004142159107555871880_);" d="M86.5,159.48
			c-29.92,0-54.26-24.34-54.26-54.26S56.58,50.95,86.5,50.95s54.26,24.34,54.26,54.27S116.42,159.48,86.5,159.48z"/>
	</g>
	
		<linearGradient id="SVGID_00000124875674820302580950000011767653155072068777_" gradientUnits="userSpaceOnUse" x1="43.4527" y1="31.6383" x2="158.7055" y2="226.9751">
		<stop  offset="0" style="stop-color:#C7AAD0"/>
		<stop  offset="1" style="stop-color:#764E9F"/>
	</linearGradient>
	<path style="fill:url(#SVGID_00000124875674820302580950000011767653155072068777_);" d="M86.5,24.42
		c-44.62,0-80.79,36.17-80.79,80.79c0,37.28,56.4,110.46,74.95,133.53c3,3.73,8.68,3.73,11.68,0
		c18.55-23.07,74.95-96.26,74.95-133.53C167.29,60.59,131.12,24.42,86.5,24.42z M86.5,170.32c-35.96,0-65.11-29.15-65.11-65.11
		c0-35.96,29.15-65.11,65.11-65.11c35.96,0,65.11,29.15,65.11,65.11C151.61,141.17,122.46,170.32,86.5,170.32z"/>
	
		<linearGradient id="SVGID_00000036948982904440207210000008800893809586094516_" gradientUnits="userSpaceOnUse" x1="43.1837" y1="31.7973" x2="158.4362" y2="227.1336">
		<stop  offset="0" style="stop-color:#C7AAD0"/>
		<stop  offset="1" style="stop-color:#764E9F"/>
	</linearGradient>
	<path style="fill:url(#SVGID_00000036948982904440207210000008800893809586094516_);" d="M139.32,105.21
		c0,29.17-23.65,52.82-52.82,52.82s-52.82-23.65-52.82-52.82c0-29.17,23.65-52.82,52.82-52.82S139.32,76.04,139.32,105.21z"/>
	<g class="st4">
		<defs>
			<filter id="Adobe_OpacityMaskFilter" filterUnits="userSpaceOnUse" x="5.71" y="24.42" width="120.83" height="160.35">
				<feFlood  style="flood-color:white;flood-opacity:1" result="back"/>
				<feBlend  in="SourceGraphic" in2="back" mode="normal"/>
			</filter>
		</defs>
		
			<mask maskUnits="userSpaceOnUse" x="5.71" y="24.42" width="120.83" height="160.35" id="SVGID_00000028285751503524722500000017454451140788144298_">
			<g class="st5">
				<defs>
					
						<filter id="Adobe_OpacityMaskFilter_00000178184864735453278290000010733806489201117571_" filterUnits="userSpaceOnUse" x="5.71" y="24.42" width="120.83" height="160.35">
						<feFlood  style="flood-color:white;flood-opacity:1" result="back"/>
						<feBlend  in="SourceGraphic" in2="back" mode="normal"/>
					</filter>
				</defs>
				
					<mask maskUnits="userSpaceOnUse" x="5.71" y="24.42" width="120.83" height="160.35" id="SVGID_00000028285751503524722500000017454451140788144298_">
					<g style="filter:url(#Adobe_OpacityMaskFilter_00000178184864735453278290000010733806489201117571_);">
					</g>
				</mask>
				
					<linearGradient id="SVGID_00000179628774516937215440000010289284726714120593_" gradientUnits="userSpaceOnUse" x1="157.1591" y1="165.6684" x2="39.5757" y2="76.4747">
					<stop  offset="0" style="stop-color:#FFFFFF"/>
					<stop  offset="1" style="stop-color:#000000"/>
				</linearGradient>
				
					<path style="mask:url(#SVGID_00000028285751503524722500000017454451140788144298_);fill:url(#SVGID_00000179628774516937215440000010289284726714120593_);" d="
					M21.39,105.21c0-35.96,29.15-65.11,65.11-65.11c15.1,0,28.96,5.19,40.01,13.81c0.15-6.72-0.26-13.26-1.19-19.56
					c-11.52-6.32-24.75-9.93-38.82-9.93c-44.62,0-80.79,36.17-80.79,80.79c0,20.45,16.98,51.7,35.36,79.56
					c9.56-4.16,18.95-9.86,27.82-16.92C41.5,160.16,21.39,135.06,21.39,105.21z"/>
			</g>
		</mask>
		
			<linearGradient id="SVGID_00000117657240477197147950000006354215685489244587_" gradientUnits="userSpaceOnUse" x1="157.1591" y1="165.6684" x2="39.5757" y2="76.4747">
			<stop  offset="0" style="stop-color:#FFFFFF"/>
			<stop  offset="1" style="stop-color:#FFFFFF"/>
		</linearGradient>
		<path style="fill:url(#SVGID_00000117657240477197147950000006354215685489244587_);" d="M21.39,105.21
			c0-35.96,29.15-65.11,65.11-65.11c15.1,0,28.96,5.19,40.01,13.81c0.15-6.72-0.26-13.26-1.19-19.56
			c-11.52-6.32-24.75-9.93-38.82-9.93c-44.62,0-80.79,36.17-80.79,80.79c0,20.45,16.98,51.7,35.36,79.56
			c9.56-4.16,18.95-9.86,27.82-16.92C41.5,160.16,21.39,135.06,21.39,105.21z"/>
		<defs>
			
				<filter id="Adobe_OpacityMaskFilter_00000165948078692106290930000002963774032550408848_" filterUnits="userSpaceOnUse" x="5.71" y="24.42" width="120.83" height="160.35">
				<feFlood  style="flood-color:white;flood-opacity:1" result="back"/>
				<feBlend  in="SourceGraphic" in2="back" mode="normal"/>
			</filter>
		</defs>
		
			<mask maskUnits="userSpaceOnUse" x="5.71" y="24.42" width="120.83" height="160.35" id="SVGID_00000114785923713040165350000005568421612644801186_">
			<g style="filter:url(#Adobe_OpacityMaskFilter_00000165948078692106290930000002963774032550408848_);">
				<defs>
					
						<filter id="Adobe_OpacityMaskFilter_00000122690225486236851690000018015808118179654568_" filterUnits="userSpaceOnUse" x="5.71" y="24.42" width="120.83" height="160.35">
						<feFlood  style="flood-color:white;flood-opacity:1" result="back"/>
						<feBlend  in="SourceGraphic" in2="back" mode="normal"/>
					</filter>
				</defs>
				
					<mask maskUnits="userSpaceOnUse" x="5.71" y="24.42" width="120.83" height="160.35" id="SVGID_00000114785923713040165350000005568421612644801186_">
					<g style="filter:url(#Adobe_OpacityMaskFilter_00000122690225486236851690000018015808118179654568_);">
					</g>
				</mask>
				
					<linearGradient id="SVGID_00000128464160169986604490000006128867457180695980_" gradientUnits="userSpaceOnUse" x1="316.2963" y1="206.118" x2="198.7105" y2="116.9224" gradientTransform="matrix(0.8666 0.499 -0.499 0.8666 -12.4569 -39.734)">
					<stop  offset="0" style="stop-color:#FFFFFF"/>
					<stop  offset="1" style="stop-color:#000000"/>
				</linearGradient>
				
					<path style="mask:url(#SVGID_00000114785923713040165350000005568421612644801186_);fill:url(#SVGID_00000128464160169986604490000006128867457180695980_);" d="
					M21.39,105.21c0-35.96,29.15-65.11,65.11-65.11c15.1,0,28.96,5.19,40.01,13.81c0.15-6.72-0.26-13.26-1.19-19.56
					c-11.52-6.32-24.75-9.93-38.82-9.93c-44.62,0-80.79,36.17-80.79,80.79c0,20.45,16.98,51.7,35.36,79.56
					c9.56-4.16,18.95-9.86,27.82-16.92C41.5,160.16,21.39,135.06,21.39,105.21z"/>
			</g>
		</mask>
		
			<linearGradient id="SVGID_00000119828136190741591710000002442331309417833632_" gradientUnits="userSpaceOnUse" x1="316.2963" y1="206.118" x2="198.7105" y2="116.9224" gradientTransform="matrix(0.8666 0.499 -0.499 0.8666 -12.4569 -39.734)">
			<stop  offset="0" style="stop-color:#FFFFFF"/>
			<stop  offset="1" style="stop-color:#FFFFFF"/>
		</linearGradient>
		<path style="fill:url(#SVGID_00000119828136190741591710000002442331309417833632_);" d="M21.39,105.21
			c0-35.96,29.15-65.11,65.11-65.11c15.1,0,28.96,5.19,40.01,13.81c0.15-6.72-0.26-13.26-1.19-19.56
			c-11.52-6.32-24.75-9.93-38.82-9.93c-44.62,0-80.79,36.17-80.79,80.79c0,20.45,16.98,51.7,35.36,79.56
			c9.56-4.16,18.95-9.86,27.82-16.92C41.5,160.16,21.39,135.06,21.39,105.21z"/>
		<defs>
			
				<filter id="Adobe_OpacityMaskFilter_00000129919224758973444010000017648047734752576401_" filterUnits="userSpaceOnUse" x="33.68" y="52.39" width="91.57" height="105.26">
				<feFlood  style="flood-color:white;flood-opacity:1" result="back"/>
				<feBlend  in="SourceGraphic" in2="back" mode="normal"/>
			</filter>
		</defs>
		
			<mask maskUnits="userSpaceOnUse" x="33.68" y="52.39" width="91.57" height="105.26" id="SVGID_00000121978098584896196130000009061680639178570388_">
			<g style="filter:url(#Adobe_OpacityMaskFilter_00000129919224758973444010000017648047734752576401_);">
				<defs>
					
						<filter id="Adobe_OpacityMaskFilter_00000123438001961153122950000007195800983667421322_" filterUnits="userSpaceOnUse" x="33.68" y="52.39" width="91.57" height="105.26">
						<feFlood  style="flood-color:white;flood-opacity:1" result="back"/>
						<feBlend  in="SourceGraphic" in2="back" mode="normal"/>
					</filter>
				</defs>
				
					<mask maskUnits="userSpaceOnUse" x="33.68" y="52.39" width="91.57" height="105.26" id="SVGID_00000121978098584896196130000009061680639178570388_">
					<g style="filter:url(#Adobe_OpacityMaskFilter_00000123438001961153122950000007195800983667421322_);">
					</g>
				</mask>
				
					<linearGradient id="SVGID_00000157270429377503812880000004262475121288223133_" gradientUnits="userSpaceOnUse" x1="160.4514" y1="161.3275" x2="42.8686" y2="72.1343">
					<stop  offset="0" style="stop-color:#FFFFFF"/>
					<stop  offset="1" style="stop-color:#000000"/>
				</linearGradient>
				
					<path style="mask:url(#SVGID_00000121978098584896196130000009061680639178570388_);fill:url(#SVGID_00000157270429377503812880000004262475121288223133_);" d="
					M106.02,124.22c10.32-17.92,16.67-36.71,19.23-54.83c-9.65-10.43-23.41-17-38.74-17c-29.17,0-52.82,23.65-52.82,52.82
					c0,27.1,20.41,49.4,46.7,52.44C89.96,148.17,98.69,136.96,106.02,124.22z"/>
			</g>
		</mask>
		
			<linearGradient id="SVGID_00000018196999044421220900000014230035759949908108_" gradientUnits="userSpaceOnUse" x1="160.4514" y1="161.3275" x2="42.8686" y2="72.1343">
			<stop  offset="0" style="stop-color:#FFFFFF"/>
			<stop  offset="1" style="stop-color:#FFFFFF"/>
		</linearGradient>
		<path style="fill:url(#SVGID_00000018196999044421220900000014230035759949908108_);" d="M106.02,124.22
			c10.32-17.92,16.67-36.71,19.23-54.83c-9.65-10.43-23.41-17-38.74-17c-29.17,0-52.82,23.65-52.82,52.82
			c0,27.1,20.41,49.4,46.7,52.44C89.96,148.17,98.69,136.96,106.02,124.22z"/>
		<defs>
			
				<filter id="Adobe_OpacityMaskFilter_00000158751578599521716650000014151013227881847223_" filterUnits="userSpaceOnUse" x="33.68" y="52.39" width="91.57" height="105.26">
				<feFlood  style="flood-color:white;flood-opacity:1" result="back"/>
				<feBlend  in="SourceGraphic" in2="back" mode="normal"/>
			</filter>
		</defs>
		
			<mask maskUnits="userSpaceOnUse" x="33.68" y="52.39" width="91.57" height="105.26" id="SVGID_00000055664805747458253140000009842248732816682374_">
			<g style="filter:url(#Adobe_OpacityMaskFilter_00000158751578599521716650000014151013227881847223_);">
				<defs>
					
						<filter id="Adobe_OpacityMaskFilter_00000057132407222814557130000003431063914368179072_" filterUnits="userSpaceOnUse" x="33.68" y="52.39" width="91.57" height="105.26">
						<feFlood  style="flood-color:white;flood-opacity:1" result="back"/>
						<feBlend  in="SourceGraphic" in2="back" mode="normal"/>
					</filter>
				</defs>
				
					<mask maskUnits="userSpaceOnUse" x="33.68" y="52.39" width="91.57" height="105.26" id="SVGID_00000055664805747458253140000009842248732816682374_">
					<g style="filter:url(#Adobe_OpacityMaskFilter_00000057132407222814557130000003431063914368179072_);">
					</g>
				</mask>
				
					<linearGradient id="SVGID_00000078752211983518914350000003814298954653233338_" gradientUnits="userSpaceOnUse" x1="320.0772" y1="201.1267" x2="202.4932" y2="111.9324" gradientTransform="matrix(0.8666 0.499 -0.499 0.8666 -12.4569 -39.734)">
					<stop  offset="0" style="stop-color:#FFFFFF"/>
					<stop  offset="1" style="stop-color:#000000"/>
				</linearGradient>
				
					<path style="mask:url(#SVGID_00000055664805747458253140000009842248732816682374_);fill:url(#SVGID_00000078752211983518914350000003814298954653233338_);" d="
					M106.02,124.22c10.32-17.92,16.67-36.71,19.23-54.83c-9.65-10.43-23.41-17-38.74-17c-29.17,0-52.82,23.65-52.82,52.82
					c0,27.1,20.41,49.4,46.7,52.44C89.96,148.17,98.69,136.96,106.02,124.22z"/>
			</g>
		</mask>
		
			<linearGradient id="SVGID_00000096036671455763100080000005489507815538748333_" gradientUnits="userSpaceOnUse" x1="320.0772" y1="201.1267" x2="202.4932" y2="111.9324" gradientTransform="matrix(0.8666 0.499 -0.499 0.8666 -12.4569 -39.734)">
			<stop  offset="0" style="stop-color:#FFFFFF"/>
			<stop  offset="1" style="stop-color:#FFFFFF"/>
		</linearGradient>
		<path style="fill:url(#SVGID_00000096036671455763100080000005489507815538748333_);" d="M106.02,124.22
			c10.32-17.92,16.67-36.71,19.23-54.83c-9.65-10.43-23.41-17-38.74-17c-29.17,0-52.82,23.65-52.82,52.82
			c0,27.1,20.41,49.4,46.7,52.44C89.96,148.17,98.69,136.96,106.02,124.22z"/>
	</g>
</g>
<g>
	<path class="st21" d="M93.2,117.09h-5.57h-7c0,0,0.32,9.63-1.22,12.42H87h7.58C93.05,126.72,93.2,117.09,93.2,117.09z"/>
	<path class="st22" d="M80.57,123.01c2.34,1.1,4.7,2.16,7.38,1.9c1.9-0.18,3.74-0.76,5.44-1.62c-0.23-3.16-0.18-6.2-0.18-6.2H80.64
		C80.64,117.09,80.73,119.95,80.57,123.01z"/>
	<g>
		<path class="st21" d="M88.14,156.69c15.07,0,27.57-8.86,27.57-8.86c0.84-11.32-5.41-12.86-5.41-12.86l-17.51-6.83h-5.71h-0.19
			h-5.71l-17.51,6.83c0,0-6.13,2.2-5.41,12.86"/>
	</g>
	<g>
		<g>
			<path class="st21" d="M102.79,98.8c-0.52,3.2,0.38,6.04,2,6.34c1.62,0.31,3.35-2.03,3.86-5.23c0.51-3.2-0.38-6.03-2-6.34
				C105.03,93.26,103.31,95.6,102.79,98.8z"/>
			<g>
				<g>
					<path class="st23" d="M104.74,97.93c0,0,0.02-0.18,0.09-0.47c0.06-0.29,0.19-0.71,0.39-1.15c0.2-0.43,0.53-0.92,0.94-0.94
						c0.1-0.01,0.21,0.01,0.31,0.04c0.02,0.01,0.12,0.06,0.16,0.08c0.03,0.03,0.07,0.05,0.11,0.1c0.17,0.16,0.3,0.41,0.39,0.7
						c0.1,0.28,0.16,0.6,0.19,0.91c0.03,0.31,0.05,0.64,0.01,0.92c-0.05,0.32-0.06,0.65-0.12,0.93c-0.05,0.29-0.11,0.55-0.15,0.8
						c-0.06,0.25-0.12,0.48-0.16,0.69c-0.04,0.21-0.11,0.38-0.15,0.53c-0.08,0.29-0.12,0.46-0.12,0.46s0.08-0.15,0.22-0.41
						c0.06-0.14,0.16-0.29,0.23-0.49c0.08-0.19,0.17-0.42,0.27-0.66c0.09-0.25,0.17-0.53,0.26-0.83c0.09-0.3,0.13-0.61,0.19-0.93
						c0.06-0.37,0.07-0.73,0.04-1.1c-0.03-0.36-0.09-0.73-0.21-1.08c-0.12-0.35-0.3-0.69-0.56-0.94c-0.06-0.06-0.15-0.12-0.23-0.17
						c-0.09-0.05-0.11-0.05-0.22-0.09c-0.16-0.04-0.32-0.05-0.49-0.02c-0.33,0.05-0.61,0.3-0.79,0.56c-0.19,0.26-0.3,0.54-0.38,0.8
						c-0.17,0.52-0.2,0.98-0.22,1.29C104.72,97.76,104.74,97.93,104.74,97.93z"/>
				</g>
				<path class="st23" d="M104.74,97.93c0,0-0.15-0.34,0.92-0.42c0,0,1.19,0.22,0.49,1.81c-0.15,0.34-0.28,0.7-0.36,1.07
					c-0.11,0.53,0.08,1.26-0.2,1.73c-0.37,0.61-1.31,0.26-1.36-0.44c-0.04-0.53,0.51-1.45,0.76-1.83
					C104.98,99.85,105.75,98.69,104.74,97.93z"/>
				<g>
					<path class="st23" d="M104.23,101.62c0,0-0.04,0.02-0.08,0.08c-0.05,0.06-0.11,0.16-0.16,0.3c-0.03,0.07-0.04,0.14-0.06,0.23
						c-0.01,0.08-0.03,0.17-0.02,0.26c0.01,0.09,0.01,0.19,0.03,0.29c0.02,0.09,0.06,0.18,0.09,0.27c0.04,0.08,0.07,0.18,0.12,0.24
						c0.05,0.07,0.11,0.12,0.16,0.18c0.1,0.13,0.22,0.2,0.33,0.23c0.21,0.09,0.36,0.09,0.36,0.09s-0.06-0.19-0.17-0.39
						c-0.03-0.05-0.05-0.1-0.09-0.15c-0.03-0.06-0.04-0.12-0.08-0.18c-0.03-0.06-0.05-0.12-0.09-0.17
						c-0.04-0.05-0.04-0.12-0.07-0.18c-0.06-0.11-0.09-0.23-0.13-0.35c-0.02-0.06-0.03-0.12-0.05-0.18
						c-0.01-0.06-0.03-0.12-0.04-0.17C104.25,101.82,104.23,101.62,104.23,101.62z"/>
				</g>
			</g>
		</g>
	</g>
	<g>
		<g>
			<path class="st21" d="M71.94,98.8c0.52,3.2-0.38,6.04-2,6.34c-1.62,0.31-3.35-2.03-3.86-5.23c-0.51-3.2,0.38-6.03,2-6.34
				C69.7,93.26,71.43,95.6,71.94,98.8z"/>
			<g>
				<g>
					<path class="st23" d="M69.99,97.93c0,0-0.02-0.18-0.09-0.47c-0.06-0.29-0.19-0.71-0.39-1.15c-0.2-0.43-0.53-0.92-0.94-0.94
						c-0.1-0.01-0.21,0.01-0.31,0.04c-0.02,0.01-0.13,0.06-0.16,0.08c-0.04,0.03-0.07,0.05-0.12,0.1c-0.17,0.16-0.3,0.41-0.39,0.7
						c-0.1,0.28-0.16,0.6-0.19,0.91c-0.03,0.31-0.05,0.64-0.01,0.92c0.05,0.32,0.06,0.65,0.12,0.93c0.05,0.29,0.11,0.55,0.15,0.8
						c0.07,0.25,0.12,0.48,0.16,0.69c0.04,0.21,0.11,0.38,0.14,0.53c0.08,0.29,0.13,0.46,0.13,0.46s-0.08-0.15-0.22-0.41
						c-0.06-0.14-0.16-0.29-0.23-0.49c-0.08-0.19-0.17-0.42-0.27-0.66c-0.09-0.25-0.17-0.53-0.26-0.83
						c-0.09-0.3-0.13-0.61-0.19-0.93c-0.06-0.37-0.07-0.73-0.04-1.1c0.03-0.36,0.09-0.73,0.21-1.08c0.12-0.35,0.3-0.69,0.56-0.94
						c0.06-0.06,0.15-0.12,0.23-0.17c0.09-0.05,0.11-0.05,0.22-0.09c0.16-0.04,0.32-0.05,0.49-0.02c0.34,0.05,0.61,0.3,0.8,0.56
						c0.19,0.26,0.3,0.54,0.38,0.8c0.17,0.52,0.2,0.98,0.22,1.29C70.02,97.76,69.99,97.93,69.99,97.93z"/>
				</g>
				<path class="st23" d="M69.99,97.93c0,0,0.15-0.34-0.92-0.42c0,0-1.19,0.22-0.49,1.81c0.15,0.34,0.28,0.7,0.36,1.07
					c0.11,0.53-0.08,1.26,0.2,1.73c0.37,0.61,1.31,0.26,1.36-0.44c0.04-0.53-0.51-1.45-0.76-1.83
					C69.75,99.85,68.98,98.69,69.99,97.93z"/>
				<g>
					<path class="st23" d="M70.51,101.62c0,0,0.04,0.02,0.08,0.08c0.05,0.06,0.11,0.16,0.16,0.3c0.03,0.07,0.04,0.14,0.06,0.23
						c0.01,0.08,0.03,0.17,0.02,0.26c-0.01,0.09-0.01,0.19-0.02,0.29c-0.02,0.09-0.06,0.18-0.09,0.27
						c-0.04,0.08-0.07,0.18-0.12,0.24c-0.05,0.07-0.11,0.12-0.16,0.18c-0.1,0.13-0.22,0.2-0.33,0.23c-0.21,0.09-0.36,0.09-0.36,0.09
						s0.06-0.19,0.17-0.39c0.03-0.05,0.05-0.1,0.09-0.15c0.03-0.06,0.05-0.12,0.08-0.18c0.03-0.06,0.05-0.12,0.09-0.17
						c0.04-0.05,0.04-0.12,0.07-0.18c0.06-0.11,0.09-0.23,0.13-0.35c0.02-0.06,0.03-0.12,0.05-0.18c0.01-0.06,0.03-0.12,0.04-0.17
						C70.49,101.82,70.51,101.62,70.51,101.62z"/>
				</g>
			</g>
		</g>
	</g>
	<g>
		<path class="st21" d="M103.3,72.84c0,0-5.51-6.04-16.37-6.37c-10.84,0.57-16.34,6.82-16.34,6.82c-2.95,9.51-1.06,20.65,0.19,30.29
			c0.93,7.12,5.72,12.11,11.75,15.57c0,0,2.13,1.38,4.98,1.54c2.83-0.22,4.93-1.64,4.94-1.65c5.87-3.98,10.35-8.89,11.47-16.13
			c0.97-6.25,1.19-13.16,0.97-19.47C104.78,79.97,104.41,76.16,103.3,72.84z"/>
	</g>
	<g>
		<g>
			<g>
				<g>
					<path class="st24" d="M82.21,92.29c0,0-3.88-1.31-7.89,0.53c0.79-4.28,8.2-2.52,8.2-2.52s0.49,0.12,0.44,0.88
						C82.96,91.18,82.77,92.5,82.21,92.29z"/>
				</g>
			</g>
			<g>
				<g>
					<g>
						<path class="st24" d="M91.25,92.29c0,0,4.41-1.31,8.42,0.53c-0.79-4.28-8.73-2.52-8.73-2.52s-0.49,0.12-0.44,0.88
							C90.5,91.18,90.7,92.5,91.25,92.29z"/>
					</g>
				</g>
			</g>
		</g>
	</g>
	<g>
		<g>
			<g>
				<path class="st25" d="M77.29,96.27c0.01,1.24,0.7,2.24,1.55,2.24c0.85,0,1.54-1.02,1.53-2.26c-0.01-1.24-0.7-2.24-1.55-2.24
					C77.97,94.02,77.29,95.03,77.29,96.27z"/>
			</g>
			<g>
				<path class="st26" d="M78.22,95.56c0,0.37-0.3,0.67-0.67,0.67c-0.37,0-0.67-0.3-0.67-0.67c0-0.37,0.3-0.67,0.67-0.67
					C77.92,94.89,78.22,95.19,78.22,95.56z"/>
			</g>
		</g>
		<g>
			<g>
				<path class="st25" d="M96.71,96.27c-0.01,1.24-0.7,2.24-1.55,2.24c-0.85,0-1.54-1.02-1.53-2.26c0.01-1.24,0.7-2.24,1.55-2.24
					C96.03,94.02,96.71,95.03,96.71,96.27z"/>
			</g>
			<g>
				<path class="st26" d="M95.78,95.56c0,0.37,0.3,0.67,0.67,0.67c0.37,0,0.67-0.3,0.67-0.67c0-0.37-0.3-0.67-0.67-0.67
					C96.08,94.89,95.78,95.19,95.78,95.56z"/>
			</g>
		</g>
	</g>
	<g>
		<g>
			<path class="st26" d="M83.14,110.27c0.01,1.2,1.71,2.17,3.81,2.17c2.1,0,3.8-0.97,3.8-2.17H83.14z"/>
			<g>
				<path class="st27" d="M90.75,110.45c0.9-0.22,1.04-0.31,1.04-0.31s-0.62-0.26-1.49-0.53c-2.24-0.95-2.09,0.28-3.28,0.28
					c-0.6,0.02-1.2-0.63-1.76-0.55c-0.56,0.06-1.08,0.16-1.53,0.28c-0.9,0.22-1.49,0.52-1.49,0.52s0.01,0.14,0.9,0.36
					c0,0,1.76-0.28,2.86-0.11c0,0,1.01,0.25,1.7,0.04C87.69,110.44,89.53,110.34,90.75,110.45"/>
			</g>
			<g>
				<path class="st27" d="M91.04,110.14c-0.88,0.9-1.84,2.3-4.3,2.29c0,0-2.83,0.13-3.76-2.29h-0.76c0.03,0.06,0.05,0.12,0.08,0.18
					c0.19,0.35,0.36,0.76,0.65,1.12c0.14,0.19,0.28,0.38,0.43,0.58c0.15,0.2,0.36,0.36,0.54,0.54l0.29,0.27l0.34,0.23
					c0.24,0.15,0.44,0.33,0.75,0.42c0.28,0.1,0.61,0.23,0.87,0.28l0.37,0.05l0.19,0.02l0.09,0.01l0.05,0.01l0.13,0.01l0.89-0.11
					c0.29-0.06,0.56-0.18,0.83-0.28c0.28-0.08,0.5-0.27,0.74-0.41l0.34-0.23l0.29-0.27c0.19-0.18,0.39-0.34,0.54-0.54
					c0.15-0.2,0.29-0.39,0.43-0.58c0.29-0.37,0.45-0.78,0.65-1.13c0.03-0.06,0.05-0.12,0.07-0.18H91.04z"/>
			</g>
		</g>
		<path class="st26" d="M87.03,113.35c3.09-0.46,3.52-2.32,3.52-2.32c-1.26,1.86-3.56,1.81-3.56,1.81s-0.2,0.03-0.18,0.29
			C86.81,113.13,86.88,113.37,87.03,113.35z"/>
	</g>
	<path class="st24" d="M109.3,86.89c0,0,1.27-21.38-16.43-25.27c0,0-13.45-2.15-18.5,6.2l10.44,8.44c0,0,5.18,9.71,15.6,13.4
		c0,0,4.32,1.1,4.58,9.16c0,0,0.61-4.43,3.09-4.03C108.09,94.78,109.34,89.26,109.3,86.89z"/>
	<path class="st28" d="M84.81,104.74c0,0,0.03,0,0.08-0.02c0.05-0.01,0.13-0.04,0.22-0.05c0.18-0.04,0.43-0.08,0.69-0.13
		c0.26-0.04,0.54-0.07,0.82-0.09c0.28-0.02,0.55-0.02,0.82-0.02c0.27,0.01,0.52,0.03,0.78,0.05c0.13,0.02,0.26,0.03,0.39,0.04
		c0.13,0.02,0.26,0.04,0.39,0.05c0.12,0.01,0.26,0.05,0.37,0.06c0.11,0,0.22,0.03,0.31,0.04c0.09,0.01,0.17,0.03,0.23,0.04
		c0.06,0.01,0.08,0.02,0.08,0.02s-0.01,0.03-0.02,0.08c-0.02,0.05-0.03,0.14-0.07,0.22c-0.07,0.19-0.2,0.44-0.42,0.67
		c-0.11,0.12-0.23,0.24-0.39,0.34c-0.15,0.1-0.32,0.21-0.5,0.28c-0.18,0.08-0.38,0.15-0.59,0.17c-0.21,0.04-0.41,0.06-0.62,0.05
		c-0.21,0-0.41-0.04-0.61-0.08c-0.2-0.04-0.39-0.11-0.56-0.19c-0.35-0.16-0.64-0.37-0.85-0.6c-0.21-0.23-0.36-0.46-0.44-0.64
		c-0.04-0.08-0.07-0.17-0.08-0.22C84.82,104.77,84.81,104.74,84.81,104.74z"/>
	<g>
		<g>
			<path class="st29" d="M94.58,128.83l15.14,5.91c-4.05,3-1.92,12.49-1.87,17.52c0,0-11.25,4.95-21.86,4.39
				c-4.71-0.25-18.44-4.39-18.44-4.39c0.05-1.37,0.67-7.14,0.58-8.36c-0.24-3.12-1.1-7.41-4.07-9.09l15.66-6.11
				c0,0,0.49,4.88,7.27,4.85C87.01,133.54,94.19,133.69,94.58,128.83z"/>
		</g>
	</g>
	<path class="st24" d="M72.38,89.13c-2.4,1.74-1.88,5.96-1.87,9.73c0,0-0.5-5.33-3.63-4.61c0,0-6.02-23.18,9-27.79L86,75.85
		C86,75.85,84.81,80.09,72.38,89.13z"/>
	<path class="st24" d="M65.93,80.09c0,0-9.53,43.26,8.93,49.42c0,0-0.49-6.89,5.79-8.82l0.01-2.71c0,0-5.09-3.76-5.68-4.97
		c0,0-3.41-3.3-4.19-9.43c0,0-0.69-8.76,0.1-12.2L65.93,80.09z"/>
	<path class="st24" d="M108.11,80.09c0,0,9.53,43.26-8.93,49.42c0,0,0.49-6.89-5.79-8.82l-0.01-2.71c0,0,5.08-3.76,5.68-4.97
		c0,0,3.41-3.3,4.19-9.43c0,0,0.69-8.76-0.1-12.2L108.11,80.09z"/>
</g>
</svg>
