<?xml version="1.0" encoding="utf-8"?>
<!-- Generator: Adobe Illustrator 26.0.3, SVG Export Plug-In . SVG Version: 6.00 Build 0)  -->
<svg version="1.1" id="Layer_1" xmlns="http://www.w3.org/2000/svg" xmlns:xlink="http://www.w3.org/1999/xlink" x="0px" y="0px"
	 viewBox="0 0 110 110" style="enable-background:new 0 0 110 110;" xml:space="preserve">
<style type="text/css">
	.st0{fill:#F36EFF;}
	.st1{fill:none;stroke:#FCFCFC;stroke-width:3;stroke-linecap:round;stroke-linejoin:round;stroke-miterlimit:10;}
</style>
<path class="st0" d="M9.7,20.6l67.2-18c5.3-1.4,10.8,1.7,12.2,7.1l18,67.2c1.4,5.3-1.7,10.8-7.1,12.2l-67.2,18
	c-5.3,1.4-10.8-1.7-12.2-7.1l-18-67.2C1.2,27.5,4.3,22,9.7,20.6z"/>
<path class="st1" d="M67.3,49.6c-2.9-11.2-15-17.7-27.1-14.6c-12.1,3.1-19.5,14.7-16.7,25.9c2.2,8.4,9.6,14.2,18.3,15.2
	c-0.7,2.9-2,6.2-4.1,7.6c0,0,7.1-3.2,12-8c0.3-0.1,0.6-0.1,0.9-0.2C62.7,72.4,70.2,60.8,67.3,49.6z M37.7,60.3
	c-1.2,0.3-2.3-0.4-2.6-1.6c-0.3-1.2,0.4-2.3,1.6-2.6c1.2-0.3,2.3,0.4,2.6,1.6S38.8,60,37.7,60.3z M44.6,58.2
	c-1.2,0.3-2.3-0.4-2.6-1.6c-0.3-1.2,0.4-2.3,1.6-2.6c1.2-0.3,2.3,0.4,2.6,1.6C46.4,56.7,45.8,57.9,44.6,58.2z M51.7,56
	c-1.2,0.3-2.3-0.4-2.6-1.6c-0.3-1.2,0.4-2.3,1.6-2.6c1.2-0.3,2.3,0.4,2.6,1.6C53.6,54.5,52.9,55.7,51.7,56z"/>
<path class="st1" d="M77.9,61.1c6.4-4.5,9.7-12.2,7.8-19.8c-2.6-10-13.4-15.8-24.1-13c-4.3,1.1-7.9,3.4-10.5,6.4
	c7.8,1.6,14.3,7.1,16.3,14.9c1.4,5.4,0.4,10.9-2.4,15.5c1.9,0,3.9-0.2,5.9-0.7c0.3-0.1,0.5-0.1,0.8-0.2c5.8,1.7,12.8,1.1,12.8,1.1
	C82.1,65.1,79.7,63.1,77.9,61.1z"/>
</svg>
